<?xml version="1.0" encoding="utf-8"?>
<!-- Generator: Adobe Illustrator 19.0.0, SVG Export Plug-In . SVG Version: 6.00 Build 0)  -->
<svg version="1.1" id="Layer_1" xmlns="http://www.w3.org/2000/svg" xmlns:xlink="http://www.w3.org/1999/xlink" x="0px" y="0px"
	 viewBox="0 0 479.9 269.7" style="enable-background:new 0 0 479.9 269.7;" xml:space="preserve">
<style type="text/css">
	.st0{fill:#A76127;}
	.st1{fill:#FFFFFF;}
	.st2{fill:none;stroke:#000000;stroke-width:0.2835;}
	.st3{fill:none;stroke:#000000;stroke-width:1.7008;stroke-miterlimit:10;}
</style>
<g id="XMLID_2_">
	<rect id="XMLID_38_" class="st0" width="479.9" height="269.7"/>
	<g id="XMLID_207_">
		<g id="XMLID_182_">
			<path id="XMLID_184_" d="M108.4,40.9l-8.5-4.5l-9.4-0.1l-7.3,3.6L75.7,49l-5.1,14v15.8l2,15.5l6.5,11l9.3,5.5l10.5,0.6l10.1-4.8
				l8.6-7.2l7,1.5l1.8,8.4l-12.5,11.6l-15.5,6.7L76,126.5l-14-6.3l-7.7-10.6l-7-20.1l-1.2-24.8L53,41.5l9.6-12.8l19-8.5l17.9,0.4
				l11.7,4.9l4,3.1l1.1-8.2l4.4-1.8l4,1.8l-1.1,22.4l1.1,20l-4,1.8l-4.4-1.8l-1.7-12.5l-1.2-3L108.4,40.9z"/>
		</g>
		<g id="XMLID_91_">
			<path id="XMLID_159_" class="st1" d="M102.8,32.4L94.3,28l-9.4-0.1l-7.3,3.6l-7.5,9.1l-5.1,14v15.8l2,15.5l6.5,11l9.3,5.5
				l10.5,0.6l10.1-4.8l8.6-7.2l7,1.5l1.8,8.4l-12.5,11.6l-15.5,6.7L70.3,118l-14-6.3l-7.7-10.6l-7-20.1l-1.2-24.8L47.3,33l9.6-12.8
				l19-8.5l17.9,0.4l11.7,4.9l4,3.1l1.1-8.2l4.4-1.8l4,1.8L118,34.4l1.1,20l-4,1.8l-4.4-1.8l-1.7-12.5l-1.2-3L102.8,32.4z"/>
		</g>
	</g>
	<g id="XMLID_204_">
		<g id="XMLID_156_">
			<path id="XMLID_157_" d="M87.7,156.4l-8.5-4.5l-9.4-0.1l-7.3,3.6l-7.5,9.1l-5.1,14v15.8l2,15.5l6.5,11l9.3,5.5l10.5,0.6l10.1-4.8
				l8.6-7.2l7,1.5l1.8,8.4l-12.5,11.6l-15.5,6.7L55.2,242l-14-6.3l-7.7-10.6l-7-20.1l-1.2-24.8l6.9-23.1l9.6-12.8l19-8.5l17.9,0.4
				l11.7,4.9l4,3.1l1.1-8.2l4.4-1.8l4,1.8l-1.1,22.4l1.1,20l-4,1.8l-4.4-1.8l-1.7-12.5l-1.2-3L87.7,156.4z"/>
		</g>
		<g id="XMLID_90_">
			<path id="XMLID_151_" class="st1" d="M82,147.9l-8.5-4.5l-9.4-0.1l-7.3,3.6l-7.5,9.1l-5.1,14v15.8l2,15.5l6.5,11l9.3,5.5
				l10.5,0.6l10.1-4.8l8.6-7.2l7,1.5l1.8,8.4l-12.5,11.6l-15.5,6.7l-22.3-1.3l-14-6.3l-7.7-10.6l-7-20.1l-1.2-24.8l6.9-23.1
				l9.6-12.8l19-8.5l17.9,0.4l11.7,4.9l4,3.1l1.1-8.2l4.4-1.8l4,1.8l-1.1,22.4l1.1,20l-4,1.8l-4.4-1.8l-1.7-12.5l-1.2-3L82,147.9z"
				/>
		</g>
	</g>
	<g id="XMLID_201_">
		<g id="XMLID_148_">
			<path id="XMLID_149_" d="M190,70.2l20-1.1L207.4,47l-11.8-1.2l-1.9-2.9l1.9-2.9l26.3,0.7l27.5-0.7l2,2.9l-2,2.9L236.4,47
				l-2.7,28.5l2.7,28.4l13.1,1.3l2,2.9l-2,2.9l-27.5-0.7l-26.3,0.7l-1.9-2.9l1.9-2.9l11.8-1.3l2.5-23.3l-20-1.2l-20.1,1.2l2.5,23.3
				l11.8,1.3l1.9,2.9l-1.9,2.9l-26.3-0.7l-27.5,0.7l-1.9-2.9l1.9-2.9l13.1-1.3l2.7-28.4L143.4,47l-13.1-1.2l-1.9-2.9l1.9-2.9
				l27.5,0.7l26.3-0.7l1.9,2.9l-1.9,2.9L172.4,47L169.8,69L190,70.2z"/>
		</g>
		<g id="XMLID_137_">
			<path id="XMLID_146_" class="st1" d="M184.3,61.6l20-1.1l-2.5-22.1L190,37.3l-1.9-2.9l1.9-2.9l26.3,0.7l27.5-0.7l2,2.9l-2,2.9
				l-13.1,1.2L228,67l2.7,28.4l13.1,1.3l2,2.9l-2,2.9l-27.5-0.7l-26.3,0.7l-1.9-2.9l1.9-2.9l11.8-1.3l2.5-23.3l-20-1.2l-20.1,1.2
				l2.5,23.3l11.8,1.3l1.9,2.9l-1.9,2.9l-26.3-0.7l-27.5,0.7l-1.9-2.9l1.9-2.9l13.1-1.3l2.7-28.4l-2.7-28.5l-13.1-1.2l-1.9-2.9
				l1.9-2.9l27.5,0.7l26.3-0.7l1.9,2.9l-1.9,2.9l-11.8,1.2l-2.5,22.1L184.3,61.6z"/>
		</g>
	</g>
	<g id="XMLID_197_">
		<g id="XMLID_141_">
			<path id="XMLID_142_" d="M266.6,117.3l-6.2,1.8l-5-6.7L284,45.3L278.3,35l-1.3-2.6l1.3-2.6l15.1-1.5l4.5,5.9l17.9,56.3l8.5,15.8
				l8.5,1.5l1.2,3.6l-1.2,3.8l-27.7,1.5l-3.7-21.4l-12.6-0.9l-13.6,1.3L266.6,117.3z M288.8,58.1l-10.2,23.8l10.2,1l9.9-1
				L288.8,58.1z"/>
		</g>
		<g id="XMLID_96_">
			<path id="XMLID_138_" class="st1" d="M260.9,108.8l-6.2,1.8l-5-6.7l28.6-67.1l-5.7-10.3l-1.3-2.6l1.3-2.6l15.1-1.5l4.5,5.9
				l17.9,56.3l8.5,15.8l8.5,1.5l1.2,3.6l-1.2,3.8l-27.7,1.5l-3.7-21.4l-12.6-0.9l-13.6,1.3L260.9,108.8z M283.1,49.6l-10.2,23.8
				l10.2,1l9.9-1L283.1,49.6z"/>
		</g>
	</g>
	<g id="XMLID_193_">
		<g id="XMLID_100_">
			<path id="XMLID_101_" d="M379.1,79.8l-5-0.2l2.4,22.6l13.1,1.3l2.1,2.9l-2.1,2.9l-27.6-0.7l-27.6,0.7l-1.9-2.9l1.9-2.9l13.1-1.3
				l2.7-28.3l-2.7-28.4l-13.1-1.2l-1.9-2.9l1.9-2.9l27.6,0.7l26.4-0.7h10.6l13.9,1l12.5,5.6l4.4,5.7l0.3,10.3l-7.7,9.2l-9.9,4.9
				l-7.3,2.4l21.6,15.7l14.2-4.8l5.7,0.9l1.7,3.7l-36.9,18.8l-6.2-2.4l-4.1-4.3l-18-25.1L379.1,79.8z M373.9,69.7l10.6,1.3l4.4-0.2
				l6-1.6l4.6-3.2l3.3-3.7l1.1-6.4l-2.1-3.6l-5.5-3l-4.6-1.8l-6-0.1l-9.3,1.1L373.9,69.7z"/>
		</g>
		<g id="XMLID_80_">
			<path id="XMLID_97_" class="st1" d="M373.4,71.3l-5-0.2l2.4,22.6l13.1,1.3l2.1,2.9l-2.1,2.9l-27.6-0.7l-27.6,0.7l-1.9-2.9
				l1.9-2.9l13.1-1.3l2.7-28.3L341.7,37l-13.1-1.2l-1.9-2.9l1.9-2.9l27.6,0.7l26.4-0.7h10.6l13.9,1l12.5,5.6l4.4,5.7l0.3,10.3
				l-7.7,9.2l-9.9,4.9l-7.3,2.4l21.6,15.7l14.2-4.8l5.7,0.9l1.7,3.7l-36.9,18.8l-6.2-2.4l-4.1-4.3l-18-25.1L373.4,71.3z M368.2,61.2
				l10.6,1.3l4.4-0.2l6-1.6l4.6-3.2l3.3-3.7l1.1-6.4l-2.1-3.6l-5.5-3L386,39l-6-0.1l-9.3,1.1L368.2,61.2z"/>
		</g>
	</g>
	<g id="XMLID_189_">
		<g id="XMLID_85_">
			<path id="XMLID_88_" d="M151.1,185.8l-4.7-0.2l2.2,21l12.2,1.2l1.9,2.7l-1.9,2.7l-25.7-0.7l-25.7,0.7l-1.8-2.7l1.8-2.7l12.2-1.2
				l2.5-26.3l-2.5-26.4l-12.2-1.1l-1.8-2.7l1.8-2.7l25.7,0.7l24.5-0.7h9.8l12.9,0.9l11.6,5.2l4.1,5.3l0.3,9.6l-7.2,8.6l-9.3,4.6
				l-6.8,2.2l20.1,14.6l13.2-4.5l5.3,0.8l1.6,3.4l-34.4,17.5l-5.7-2.2l-3.8-4l-16.7-23.4L151.1,185.8z M146.3,176.4l9.8,1.2l4.1-0.2
				l5.6-1.5l4.3-3l3.1-3.4l1-6l-1.9-3.4l-5.1-2.8l-4.3-1.7l-5.6-0.1l-8.7,1L146.3,176.4z"/>
		</g>
		<g id="XMLID_68_">
			<path id="XMLID_82_" class="st1" d="M145.4,177.3l-4.7-0.2l2.2,21l12.2,1.2l1.9,2.7l-1.9,2.7l-25.7-0.7l-25.7,0.7l-1.8-2.7
				l1.8-2.7l12.2-1.2l2.5-26.3l-2.5-26.4l-12.2-1.1l-1.8-2.7l1.8-2.7l25.7,0.7l24.5-0.7h9.8l12.9,0.9l11.6,5.2l4.1,5.3l0.3,9.6
				l-7.2,8.6l-9.3,4.6l-6.8,2.2l20.1,14.6l13.2-4.5l5.3,0.8l1.6,3.4l-34.4,17.5l-5.7-2.2l-3.8-4l-16.7-23.4L145.4,177.3z
				 M140.6,167.9l9.8,1.2l4.1-0.2l5.6-1.5l4.3-3l3.1-3.4l1-6l-1.9-3.4l-5.1-2.8l-4.3-1.7l-5.6-0.1l-8.7,1L140.6,167.9z"/>
		</g>
	</g>
	<g id="XMLID_186_">
		<g id="XMLID_72_">
			<path id="XMLID_73_" d="M265.8,148.5l-9.6-1.4l-1.2-3.4l1.2-3.3l14.8,0.8l13.9-0.8l1.2,3.3l-1.2,3.4l-8.1,1.4l-1.4,30l-0.2,10.1
				l-3.6,17.3l-7.1,10l-8.9,5.6h-19.2l-9.6-5.2l-5.5-8.1l-3.6-15.4l0.5-20.3l-1.4-23.8l-8-1.4l-1.3-3.4l1.3-3.3l16.7,0.8l16.7-0.8
				l1.3,3.3l-1.3,3.4l-8,1.4L234,157l-1.7,26.1l2.4,13.3l5.3,8.1l7.5,4.3l7.2,0.2l6.7-2.5l3.1-5.7l2-9.1l-0.5-16l-0.3-11.6
				L265.8,148.5z"/>
		</g>
		<g id="XMLID_57_">
			<path id="XMLID_69_" class="st1" d="M260.1,140l-9.6-1.4l-1.2-3.4l1.2-3.3l14.8,0.8l13.9-0.8l1.2,3.3l-1.2,3.4l-8.1,1.4l-1.4,30
				l-0.2,10.1l-3.6,17.3l-7.1,10l-8.9,5.6h-19.2l-9.6-5.2l-5.5-8.1l-3.6-15.4l0.5-20.3l-1.4-23.8l-8-1.4l-1.3-3.4l1.3-3.3l16.7,0.8
				l16.7-0.8l1.3,3.3l-1.3,3.4l-8,1.4l-0.3,8.5l-1.7,26.1l2.4,13.3l5.3,8.1l7.5,4.3l7.2,0.2l6.7-2.5l3.1-5.7l2-9.1l-0.5-16
				l-0.3-11.6L260.1,140z"/>
		</g>
	</g>
	<g id="XMLID_183_">
		<g id="XMLID_65_">
			<path id="XMLID_66_" d="M341.4,161.4l-15.8-0.3l-6.5,2.4l-4.4,3.6l1.1,3.7l5.2,3l22.9,4.1l14.3,4.4l10.1,8.8l1.3,12.3l-6.1,10.5
				l-12.8,8.6l-25.5,2.2l-16.7-2.7l-7.4-4l-1.3,7.2l-4.7,1.3l-4.6-1.3l1.3-14.6l-1.3-12.9l4.6-1.2l4.7,1.2l1.9,7.2l4.4,4.3l7.1,2.9
				l12.5,2.5l12.1-1.2l7.1-2.8l1.7-4.6l-3.9-4.3l-8.4-2.9l-17.2-3.5l-14.8-3.8l-9.6-7.8l-2.5-10.9l3-10.1l13.9-8.6l21.1-3.4l17,1.3
				l9.5,3.5l1.1-6.4l4.6-1.2l4.6,1.2l-1.1,14.6l1.1,11.2l-4.6,1.2l-4.6-1.2l-2-6.9l-5.7-3.6L341.4,161.4z"/>
		</g>
		<g id="XMLID_7_">
			<path id="XMLID_58_" class="st1" d="M335.8,152.9l-15.8-0.3l-6.5,2.4l-4.4,3.6l1.1,3.7l5.2,3l22.9,4.1l14.3,4.4l10.1,8.8
				l1.3,12.3l-6.1,10.5l-12.8,8.6l-25.5,2.2l-16.7-2.7l-7.4-4l-1.3,7.2l-4.7,1.3l-4.6-1.3l1.3-14.6l-1.3-12.9l4.6-1.2l4.7,1.2
				l1.9,7.2l4.4,4.3l7.1,2.9L320,206l12.1-1.2l7.1-2.8l1.7-4.6L337,193l-8.4-2.9l-17.2-3.5l-14.8-3.8l-9.6-7.8l-2.5-10.9l3-10.1
				l13.9-8.6l21.1-3.4l17,1.3l9.5,3.5l1.1-6.4l4.6-1.2l4.6,1.2l-1.1,14.6l1.1,11.2l-4.6,1.2l-4.6-1.2l-2-6.9l-5.7-3.6L335.8,152.9z"
				/>
		</g>
	</g>
	<g id="XMLID_180_">
		<g id="XMLID_54_">
			<path id="XMLID_55_" d="M386.6,152.1l-1.3,12.5l-3,1.5l-3-1.5l-1.2-28.2l32.7,2l32.7-2l-1.3,28.2l-3,1.5l-3-1.5l-1.3-12.5
				l-14.8-4.1l-1.6,33l1.6,35.5l8.6,1.6l1.2,3.6l-1.2,3.6l-17.9-0.9l-17.9,0.9l-1.3-3.6l1.3-3.6l8.5-1.6l1.7-35.5l-1.7-33
				L386.6,152.1z"/>
		</g>
		<g id="XMLID_6_">
			<path id="XMLID_28_" class="st1" d="M380.9,143.6l-1.3,12.5l-3,1.5l-3-1.5l-1.2-28.2l32.7,2l32.7-2l-1.3,28.2l-3,1.5l-3-1.5
				l-1.3-12.5l-14.8-4.1l-1.6,33l1.6,35.5l8.6,1.6l1.2,3.6l-1.2,3.6l-17.9-0.9l-17.9,0.9l-1.3-3.6l1.3-3.6l8.5-1.6l1.7-35.5l-1.7-33
				L380.9,143.6z"/>
		</g>
	</g>
	<g id="XMLID_8_">
		<path id="XMLID_9_" d="M116.1,255.8l-4.4,0.2l-0.3-0.7l0.3-0.7l2.1-0.3l0.4-7.1l-0.4-7.1l-2.1-0.3l-0.3-0.7l0.3-0.7l4.4,0.2l5-0.2
			h2.9l3.1,0.7l2,2.2l0.7,3.5l0.1,3.6l-1.5,4.3l-2.4,2.3l-3.2,1.2l-1.7-0.1L116.1,255.8z M123.2,252.9l1.2-1.2l1-2.3l0.2-3l-0.4-2.8
			l-1.5-2l-1.6-1l-2-0.1l-1.6,0.3l-0.5,6.2l0.4,6.5l1.3,0.1l1.3-0.1L123.2,252.9z"/>
		<path id="XMLID_12_" d="M138.3,248.5l-0.8,0l0.4,5.7l2.1,0.3l0.3,0.7l-0.3,0.7l-4.4-0.2l-4.4,0.2l-0.3-0.7l0.3-0.7l2.1-0.3
			l0.4-7.1l-0.4-7.1l-2.1-0.3l-0.3-0.7l0.3-0.7l4.4,0.2l4.2-0.2h1.7l2.2,0.3l2,1.4l0.7,1.4l0.1,2.6l-1.2,2.3l-1.6,1.2l-1.2,0.6
			l3.4,3.9l2.3-1.2l0.9,0.2l0.3,0.9l-5.9,4.7l-1-0.6l-0.7-1.1l-2.9-6.3L138.3,248.5z M137.4,246l1.7,0.3l0.7-0.1l1-0.4l0.7-0.8
			l0.5-0.9l0.2-1.6l-0.3-0.9l-0.9-0.8l-0.7-0.5l-1,0l-1.5,0.3L137.4,246z"/>
		<path id="XMLID_50_" d="M159.4,254.2l2.1,0.3l0.3,0.7l-0.3,0.7l-4.4-0.2l-4.4,0.2l-0.3-0.7l0.3-0.7l2.1-0.3l0.3-4.5l-0.4-0.5
			l-3.2-7.1l-1.3-1.8l-2.1-0.3l-0.3-0.7l0.3-0.7l6.8-0.3l0.3,2.4l3,5.7l3.6-7.9l1.8-0.6l1.1,1.5l-5.4,10l-0.2,0.6L159.4,254.2z"/>
		<path id="XMLID_52_" d="M175,250.2l-3.8-0.5l-3.7,0.5l-1.1-1.9l1.1-1.9l3.7,0.5l3.8-0.5l1.1,1.9L175,250.2z"/>
		<path id="XMLID_71_" d="M185.8,248.5l-0.8,0l0.4,5.7l2.1,0.3l0.3,0.7l-0.3,0.7l-4.4-0.2l-4.4,0.2l-0.3-0.7l0.3-0.7l2.1-0.3
			l0.4-7.1l-0.4-7.1l-2.1-0.3l-0.3-0.7l0.3-0.7l4.4,0.2l4.2-0.2h1.7l2.2,0.3l2,1.4l0.7,1.4l0.1,2.6l-1.2,2.3l-1.6,1.2L190,248
			l3.4,3.9l2.3-1.2l0.9,0.2l0.3,0.9l-5.9,4.7l-1-0.6l-0.7-1.1l-2.9-6.3L185.8,248.5z M185,246l1.7,0.3l0.7-0.1l1-0.4l0.7-0.8
			l0.5-0.9l0.2-1.6l-0.3-0.9l-0.9-0.8l-0.7-0.5l-1,0l-1.5,0.3L185,246z"/>
		<path id="XMLID_77_" d="M211.8,240l-2.5-0.3l-0.3-0.8l0.3-0.7l3.9,0.2l3.6-0.2l0.3,0.7l-0.3,0.8l-2.1,0.3l-0.4,6.6l-0.1,2.2
			l-0.9,3.8l-1.9,2.2l-2.3,1.2h-5l-2.5-1.2l-1.4-1.8l-0.9-3.4l0.1-4.5L199,240l-2.1-0.3l-0.3-0.8l0.3-0.7l4.4,0.2l4.4-0.2l0.3,0.7
			l-0.3,0.8l-2.1,0.3l-0.1,1.9l-0.5,5.8l0.6,2.9l1.4,1.8l2,1l1.9,0l1.8-0.6l0.8-1.3l0.5-2l-0.1-3.5l-0.1-2.6L211.8,240z"/>
		<path id="XMLID_81_" d="M218.5,256l-0.3-0.7l0.3-0.7l2.1-0.3l0.4-7.1l-0.4-7.1l-2.1-0.3l-0.3-0.7l0.3-0.7l4.4,0.2l3.8-0.2h1.7
			l2.6,0.3l2,1.4l0.5,1.4l0.1,1.7l-0.9,1.8l-1.2,1.1l1.6,0.7l1.3,1.2l0.7,1.4l0.1,2.2l-1.7,3.3l-2.2,1.2l-2.7,0.4l-5.5-0.3
			L218.5,256z M225.2,253.3l1.1,0.3l1.3-0.1l1.5-0.3l1.1-0.8l0.5-0.9l0.2-1.5l-0.7-1.1l-1.1-1l-1.7-0.3l-1.4-0.1h-1.2L225.2,253.3z
			 M226.2,245.3l1.5-0.3l1-0.7l0.5-1.1l0-0.9l-0.5-0.8l-0.8-0.6l-1.2-0.3l-0.9-0.1l-0.7,0.3l-0.4,3.1v1.2L226.2,245.3z"/>
		<path id="XMLID_154_" d="M253.5,240.7l-2.5-0.1l-1,0.6l-0.7,0.9l0.2,0.9l0.8,0.7l3.6,1l2.3,1.1l1.6,2.1l0.2,3l-1,2.6l-2,2.1
			l-4.1,0.5l-2.7-0.7l-1.2-1l-0.2,1.8l-0.8,0.3l-0.7-0.3l0.2-3.6l-0.2-3.1l0.7-0.3l0.8,0.3l0.3,1.8l0.7,1.1l1.1,0.7l2,0.6l1.9-0.3
			l1.1-0.7l0.3-1.1l-0.6-1.1l-1.3-0.7l-2.7-0.9l-2.4-0.9l-1.5-1.9l-0.4-2.7l0.5-2.5l2.2-2.1l3.4-0.8l2.7,0.3l1.5,0.9l0.2-1.6
			l0.7-0.3l0.7,0.3l-0.2,3.6l0.2,2.7l-0.7,0.3l-0.7-0.3l-0.3-1.7l-0.9-0.9L253.5,240.7z"/>
		<path id="XMLID_160_" d="M271.7,246.3l0.3,0.7l-0.3,0.7l-5.2,0.8l0.4,5.1l5.6-0.8l0.3-2.5l0.7-0.3l0.7,0.3l0.3,5.7l-10-0.2
			l-4.4,0.2l-0.3-0.7l0.3-0.7l2.1-0.3l0.4-7.1l-0.4-7.1l-2.1-0.3l-0.3-0.7l0.3-0.7l4.4,0.2l10-0.2l-0.3,5.7l-0.7,0.3l-0.7-0.3
			l-0.3-2.5l-5.6-0.8l-0.4,5.1L271.7,246.3z"/>
		<path id="XMLID_162_" d="M278.5,256.1l-1.5,0.4l-1.2-1.3l7.1-13.4l-1.4-2.1l-0.3-0.5l0.3-0.5l3.7-0.3l1.1,1.2l4.4,11.3l2.1,3.2
			l2.1,0.3l0.3,0.7l-0.3,0.8L288,256l-0.9-4.3l-3.1-0.2l-3.4,0.3L278.5,256.1z M284,244.3l-2.5,4.7l2.5,0.2l2.5-0.2L284,244.3z"/>
		<path id="XMLID_165_" d="M304.2,240.7l-2.5-0.1l-1,0.6l-0.7,0.9l0.2,0.9l0.8,0.7l3.6,1l2.3,1.1l1.6,2.1l0.2,3l-1,2.6l-2,2.1
			l-4.1,0.5l-2.7-0.7l-1.2-1l-0.2,1.8l-0.8,0.3l-0.7-0.3l0.2-3.6l-0.2-3.1l0.7-0.3l0.8,0.3l0.3,1.8l0.7,1.1l1.1,0.7l2,0.6l1.9-0.3
			l1.1-0.7l0.3-1.1l-0.6-1.1l-1.3-0.7l-2.7-0.9l-2.4-0.9l-1.5-1.9l-0.4-2.7l0.5-2.5l2.2-2.1l3.4-0.8l2.7,0.3l1.5,0.9l0.2-1.6
			l0.7-0.3l0.7,0.3l-0.2,3.6l0.2,2.7l-0.7,0.3l-0.7-0.3l-0.3-1.7l-0.9-0.9L304.2,240.7z"/>
		<path id="XMLID_167_" d="M313.6,254.5l-1.4-1.8l-1-3l-0.2-4.2l1.6-3.7l1.7-2.1l3.3-1.7h5.4l3.1,1.2l1.9,2.3l0.7,3.1l0.1,3.6
			l-1.4,4.4l-2.5,2.2l-3.2,1.2l-5.2-0.2L313.6,254.5z M315.9,243.3l-0.6,2.7l0.3,2.9l1.1,2.3l1.6,1.3l1.7,0.6l1.9,0.1l1.9-1l0.8-1.6
			l0.3-2.4l-0.3-2.5l-0.9-2.8l-1.8-1.6l-1.8-0.5l-1.7,0l-1.4,0.8L315.9,243.3z"/>
		<path id="XMLID_170_" d="M340.3,244.8l3.4,3.9l0-1.6l-0.4-7.1l-2.1-0.3l-0.3-0.7l0.3-0.7l3.7,0.2l3.7-0.2l0.3,0.7l-0.3,0.7
			l-2.1,0.3l-0.4,7.1l0.4,8.2l-2.4,1.2l-1.2-1.2l-5.1-7.1l-2.7-2.6l-0.1,1.5l0.4,7.1l2.1,0.3l0.3,0.7l-0.3,0.7l-3.7-0.2l-3.7,0.2
			l-0.3-0.7l0.3-0.7l2.1-0.3l0.4-7.1l-0.4-6.8l-2.1-0.3l-0.3-0.7l0.3-0.7l5.8-0.3l0.7,1.1L340.3,244.8z"/>
		<path id="XMLID_172_" d="M352.5,239.9l-2.1-0.3l-0.3-0.7l0.3-0.7l4.4,0.2l4.4-0.2l0.3,0.7l-0.3,0.7l-2.1,0.3l-0.4,7.1l0.4,7.1
			l2.1,0.3l0.3,0.7l-0.3,0.7l-4.4-0.2l-4.4,0.2l-0.3-0.7l0.3-0.7l2.1-0.3l0.4-7.1L352.5,239.9z"/>
		<path id="XMLID_174_" d="M371.7,244.8l3.4,3.9l0-1.6l-0.4-7.1l-2.1-0.3l-0.3-0.7l0.3-0.7l3.7,0.2l3.7-0.2l0.3,0.7l-0.3,0.7
			l-2.1,0.3l-0.4,7.1l0.4,8.2l-2.4,1.2l-1.2-1.2l-5.1-7.1l-2.7-2.6l-0.1,1.5l0.4,7.1l2.1,0.3l0.3,0.7l-0.3,0.7l-3.7-0.2l-3.7,0.2
			l-0.3-0.7l0.3-0.7l2.1-0.3l0.4-7.1l-0.4-6.8l-2.1-0.3l-0.3-0.7l0.3-0.7l5.8-0.3l0.7,1.1L371.7,244.8z"/>
		<path id="XMLID_176_" d="M393.3,241.5l-1.9-0.7l-1.4-0.1l-2,0.8l-1.3,1.5l-0.8,2.1l-0.1,2.8l0.4,2.7l1.2,1.8l1.5,1l1.3,0.3
			l1.4-0.6l0.9-1.3l-0.2-2.6l-2.1-0.3l-0.3-0.8l0.3-0.7l4.4,0.2l4.4-0.2l0.3,0.7l-0.3,0.8l-2.1,0.3v2.2l0.3,2l-2.5,2l-3.3,0.9
			l-3.4-0.1l-3.6-1.2l-1.4-1.9l-1.3-3.3l0-4.2l1.1-3.7l1.7-2.1l3.8-1.7l3.5,0.1l1.8,0.4l1.3,0.8l0.3-1.2l0.9-0.3l0.7,0.3l-0.2,3.6
			l0.2,2.9l-0.9,0.4l-0.7-0.4l-0.2-1.3l-0.4-0.8L393.3,241.5z"/>
		<path id="XMLID_178_" d="M408.7,240.7l-2.5-0.1l-1,0.6l-0.7,0.9l0.2,0.9l0.8,0.7l3.6,1l2.3,1.1l1.6,2.1l0.2,3l-1,2.6l-2,2.1
			l-4.1,0.5l-2.7-0.7l-1.2-1l-0.2,1.8l-0.8,0.3l-0.7-0.3l0.2-3.6l-0.2-3.1l0.7-0.3l0.8,0.3l0.3,1.8l0.7,1.1l1.1,0.7l2,0.6l1.9-0.3
			l1.1-0.7l0.3-1.1l-0.6-1.1l-1.3-0.7l-2.7-0.9l-2.4-0.9l-1.5-1.9l-0.4-2.7l0.5-2.5l2.2-2.1l3.4-0.8l2.7,0.3l1.5,0.9l0.2-1.6
			l0.7-0.3l0.7,0.3l-0.2,3.6l0.2,2.7l-0.7,0.3L411,244l-0.3-1.7l-0.9-0.9L408.7,240.7z"/>
	</g>
</g>
<g id="XMLID_1_">
	<g id="XMLID_4_">
		<g id="XMLID_33_">
			<path id="XMLID_34_" d="M445.3,206.7h5.4c2.2,0,3.5,1.2,3.5,3c0,1.4-0.6,2.5-2,2.9v0c1.3,0.3,1.6,1.2,1.7,2.4
				c0.1,1.1,0,2.4,0.7,3.2H453c-0.4-0.5-0.2-1.7-0.4-2.8c-0.2-1.1-0.4-2.1-1.9-2.1h-3.8v4.9h-1.5V206.7z M450.1,212
				c1.4,0,2.7-0.4,2.7-2.1c0-1.1-0.6-2-2.1-2h-3.8v4H450.1z"/>
		</g>
		<g id="XMLID_29_">
			<path id="XMLID_30_" class="st2" d="M445.3,206.7h5.4c2.2,0,3.5,1.2,3.5,3c0,1.4-0.6,2.5-2,2.9v0c1.3,0.3,1.6,1.2,1.7,2.4
				c0.1,1.1,0,2.4,0.7,3.2H453c-0.4-0.5-0.2-1.7-0.4-2.8c-0.2-1.1-0.4-2.1-1.9-2.1h-3.8v4.9h-1.5V206.7z M450.1,212
				c1.4,0,2.7-0.4,2.7-2.1c0-1.1-0.6-2-2.1-2h-3.8v4H450.1z"/>
		</g>
	</g>
	<circle id="XMLID_3_" class="st3" cx="450" cy="212.5" r="10.1"/>
</g>
<g id="XMLID_5_">
</g>
<g id="XMLID_93_">
</g>
<g id="XMLID_145_">
</g>
<g id="XMLID_187_">
</g>
<g id="XMLID_188_">
</g>
<g id="XMLID_190_">
</g>
</svg>
