<?xml version="1.0" encoding="utf-8"?>
<!-- Generator: Adobe Illustrator 19.0.0, SVG Export Plug-In . SVG Version: 6.00 Build 0)  -->
<svg version="1.1" id="Layer_1" xmlns="http://www.w3.org/2000/svg" xmlns:xlink="http://www.w3.org/1999/xlink" x="0px" y="0px"
	 viewBox="0 0 447 401.2" style="enable-background:new 0 0 447 401.2;" xml:space="preserve">
<style type="text/css">
	.st0{fill:none;stroke:#000000;stroke-width:9.9213;stroke-miterlimit:10;}
</style>
<polygon id="XMLID_41_" class="st0" points="15,384.5 432,384.5 223.5,23 "/>
<path id="XMLID_47_" d="M162.3,262.4h-10.4v-12.9c0-6.6-5.4-12-12-12h0c-6.6,0-12,5.4-12,12V317c0,6.6,5.4,12,12,12h0
	c6.6,0,12-5.4,12-12v-22.7h10.4V323c0,9-7.3,16.3-16.3,16.3h-13.1c-9,0-16.3-7.3-16.3-16.3v-81.7c0-9.1,7.4-16.5,16.5-16.5h12.6
	c9.1,0,16.5,7.4,16.5,16.5V262.4z"/>
<path id="XMLID_43_" d="M326.5,262.4h-10.4v-12.9c0-6.6-5.4-12-12-12l0,0c-6.6,0-12,5.4-12,12V317c0,6.6,5.4,12,12,12l0,0
	c6.6,0,12-5.4,12-12v-22.7h10.4V323c0,9-7.3,16.3-16.3,16.3h-13.1c-9,0-16.3-7.3-16.3-16.3v-81.7c0-9.1,7.4-16.5,16.5-16.5H310
	c9.1,0,16.5,7.4,16.5,16.5V262.4z"/>
<path id="XMLID_49_" d="M264.9,334.1v-37.5c0-11.8-4.1-20.5-12.3-27.1c-2.9-2.4-3-6.8-0.1-9.3c10.7-9.6,12.1-29.5,12.5-50.8
	c0-32.9-10.2-49.7-36.3-49.9h-44.1c-7.2,0-8.3,2.4-8.3,5.7c0,2.6,1.6,4.9,4.1,5.6c3.9,1.1,4.2,3.3,4.2,5.8v162.7
	c0,4.2-3.4,7.6-7.6,7.6h0v12.3h35.3v-10.8c-4.2,0-7.7-3.4-7.7-7.7v-65.3c0-4.6,3.7-8.3,8.3-8.3h9.7c11.5,0,21.2,11.9,21.2,29.4
	c0,0-2.9,62.7,19.3,62.7h22.1c0-0.7-0.1-1.9-0.1-3.4C276.3,351.6,264.9,344.8,264.9,334.1z M245.8,209.3c0,17.1-2.1,40.1-20.6,40.1
	h-14.1c-3.6,0-6.5-2.9-6.5-6.5v-63.4c0-3.6,2.9-6.5,6.5-6.5l16,0C241.8,173,246,190.5,245.8,209.3z"/>
<g id="XMLID_1_">
</g>
<g id="XMLID_42_">
</g>
<g id="XMLID_44_">
</g>
<g id="XMLID_45_">
</g>
<g id="XMLID_50_">
</g>
<g id="XMLID_51_">
</g>
</svg>
