<?xml version="1.0" encoding="utf-8"?>
<!-- Generator: Adobe Illustrator 19.0.0, SVG Export Plug-In . SVG Version: 6.00 Build 0)  -->
<svg version="1.1" id="Layer_1" xmlns="http://www.w3.org/2000/svg" xmlns:xlink="http://www.w3.org/1999/xlink" x="0px" y="0px"
	 viewBox="-13 14.6 540.8 546.7" style="enable-background:new -13 14.6 540.8 546.7;" xml:space="preserve">
<style type="text/css">
	.st0{fill:url(#XMLID_18_);}
	.st1{fill:none;stroke:#E31E26;stroke-width:12.3164;stroke-miterlimit:10;}
	.st2{fill:#FFFFFF;}
	.st3{fill:none;stroke:#FFFFFF;stroke-width:25.5118;}
	.st4{fill:url(#XMLID_19_);}
	.st5{fill:url(#XMLID_21_);}
	.st6{fill:url(#XMLID_23_);}
	.st7{fill:#DE1F26;}
	.st8{fill:#715953;}
</style>
<radialGradient id="XMLID_18_" cx="257.4" cy="281.76" r="158.2" gradientTransform="matrix(1 0 0 -1 0 568.19)" gradientUnits="userSpaceOnUse">
	<stop  offset="0" style="stop-color:#B8A6A1"/>
	<stop  offset="0.5282" style="stop-color:#9F8D8A"/>
	<stop  offset="0.9949" style="stop-color:#6E5B57"/>
</radialGradient>
<circle id="XMLID_5_" class="st0" cx="257.4" cy="286.4" r="158.2"/>
<ellipse id="XMLID_1_" class="st1" cx="256.3" cy="287" rx="265" ry="265.8"/>
<g id="XMLID_6_">
	<path id="XMLID_7_" class="st2" d="M321.1,227.7c-2.5-17.5-15.4-35.3-34.9-50.7c6,25.3,10.6,46.4,6.1,60.2L321.1,227.7z"/>
	<g id="XMLID_4_">
		<g id="XMLID_152_">
			<path id="XMLID_155_" d="M205.1,444.6c-1.6-0.2-3.2-0.4-4.8-0.6c-17.7-2.9-33.5-9.8-46.5-22.5c-9-8.8-15.9-19.1-21-30.5
				c-6-13.5-9.3-27.7-10.4-42.5c-0.8-12.4,2.6-23.9,7.9-34.9c5.9-12.2,13.7-23.1,22.2-33.6c11.1-13.6,23.4-26,35.8-38.4
				c13.3-13.3,26.8-26.4,39.9-39.8c9.4-9.6,18.3-19.7,25.7-31.1c4.4-6.8,8.2-14,10.2-22c2-8.2,1.8-16.2-1.6-24.1
				c-0.2-0.4-0.3-0.8-0.6-1.9c1.2,0.8,2,1.2,2.6,1.8c12.6,11,19.3,24.7,18.7,41.6c-0.5,12.7-3.3,25-7.2,37
				c-5,15.6-11.5,30.5-18.7,45.1c-10.6,21.4-21.4,42.6-32,64c-8.4,17-15.9,34.4-21.3,52.7c-3.8,12.9-6.4,26.1-6.6,39.7
				c-0.2,12.7,1.8,25,6.7,36.7c0.3,0.8,0.6,1.5,0.9,2.3C205.2,443.9,205.1,444.1,205.1,444.6z"/>
			<path id="XMLID_154_" d="M250.2,450c-0.6-1-0.9-1.4-1.2-1.9c-9.3-12.4-15-26.1-15.7-41.7c-0.5-12,2-23.4,6.2-34.5
				c5.5-14.4,13.3-27.7,21.2-40.9c8.2-13.7,16.4-27.3,24.2-41.2c6.9-12.3,12.6-25.2,16.7-38.7c2.2-7.3,4-14.7,4.9-22.3
				c0.1-0.7,0.4-1.3,0.7-2.5c2.5,4.5,4.1,8.8,5.5,13.2c3.1,9.6,3.6,19.5,3.9,29.5c0.4,14.7-3,28.7-7.3,42.5
				c-5.4,17.4-12.1,34.4-19.2,51.2c-11.9,28.1-24.7,55.7-37.7,83.3C251.8,446.9,251.2,448.1,250.2,450z"/>
			<path id="XMLID_153_" d="M311.1,448c-1.1-1.2-2-2.1-2.8-3c-2.4-2.9-4.9-5.7-7-8.9c-2.4-3.7-3.9-7.9-3.8-12.5
				c0.1-2.2,0.6-4.2,2.1-5.8c3.9-4.3,7.9-8.5,11.6-13c11.2-13.5,22.8-26.6,31.9-41.7c8-13.4,14.1-27.5,16.7-43
				c1.5-9.1,2.4-18.3,1.6-27.5c-0.6-6.9-1.2-13.8-1.8-20.6c-0.1-1-0.1-2-0.2-3.4c0.8,0.5,1.3,0.7,1.7,1.1
				c14,12.9,26.1,27.5,36.4,43.5c11.2,17.3,9.9,44.2-3.8,61c-5.6,6.9-11.9,12.8-19.1,17.9c-8.8,6.1-17.8,11.9-26.7,17.7
				c-8.2,5.4-16.6,10.7-23.6,17.7c-2.8,2.7-5.3,5.7-7.7,8.7c-2.4,2.9-4.1,6.4-4.9,10.1C311.6,446.6,311.4,447.1,311.1,448z"/>
		</g>
		<g id="XMLID_148_">
			<path id="XMLID_151_" class="st3" d="M205.1,444.6c-1.6-0.2-3.2-0.4-4.8-0.6c-17.7-2.9-33.5-9.8-46.5-22.5
				c-9-8.8-15.9-19.1-21-30.5c-6-13.5-9.3-27.7-10.4-42.5c-0.8-12.4,2.6-23.9,7.9-34.9c5.9-12.2,13.7-23.1,22.2-33.6
				c11.1-13.6,23.4-26,35.8-38.4c13.3-13.3,26.8-26.4,39.9-39.8c9.4-9.6,18.3-19.7,25.7-31.1c4.4-6.8,8.2-14,10.2-22
				c2-8.2,1.8-16.2-1.6-24.1c-0.2-0.4-0.3-0.8-0.6-1.9c1.2,0.8,2,1.2,2.6,1.8c12.6,11,19.3,24.7,18.7,41.6c-0.5,12.7-3.3,25-7.2,37
				c-5,15.6-11.5,30.5-18.7,45.1c-10.6,21.4-21.4,42.6-32,64c-8.4,17-15.9,34.4-21.3,52.7c-3.8,12.9-6.4,26.1-6.6,39.7
				c-0.2,12.7,1.8,25,6.7,36.7c0.3,0.8,0.6,1.5,0.9,2.3C205.2,443.9,205.1,444.1,205.1,444.6z"/>
			<path id="XMLID_150_" class="st3" d="M250.2,450c-0.6-1-0.9-1.4-1.2-1.9c-9.3-12.4-15-26.1-15.7-41.7c-0.5-12,2-23.4,6.2-34.5
				c5.5-14.4,13.3-27.7,21.2-40.9c8.2-13.7,16.4-27.3,24.2-41.2c6.9-12.3,12.6-25.2,16.7-38.7c2.2-7.3,4-14.7,4.9-22.3
				c0.1-0.7,0.4-1.3,0.7-2.5c2.5,4.5,4.1,8.8,5.5,13.2c3.1,9.6,3.6,19.5,3.9,29.5c0.4,14.7-3,28.7-7.3,42.5
				c-5.4,17.4-12.1,34.4-19.2,51.2c-11.9,28.1-24.7,55.7-37.7,83.3C251.8,446.9,251.2,448.1,250.2,450z"/>
			<path id="XMLID_149_" class="st3" d="M311.1,448c-1.1-1.2-2-2.1-2.8-3c-2.4-2.9-4.9-5.7-7-8.9c-2.4-3.7-3.9-7.9-3.8-12.5
				c0.1-2.2,0.6-4.2,2.1-5.8c3.9-4.3,7.9-8.5,11.6-13c11.2-13.5,22.8-26.6,31.9-41.7c8-13.4,14.1-27.5,16.7-43
				c1.5-9.1,2.4-18.3,1.6-27.5c-0.6-6.9-1.2-13.8-1.8-20.6c-0.1-1-0.1-2-0.2-3.4c0.8,0.5,1.3,0.7,1.7,1.1
				c14,12.9,26.1,27.5,36.4,43.5c11.2,17.3,9.9,44.2-3.8,61c-5.6,6.9-11.9,12.8-19.1,17.9c-8.8,6.1-17.8,11.9-26.7,17.7
				c-8.2,5.4-16.6,10.7-23.6,17.7c-2.8,2.7-5.3,5.7-7.7,8.7c-2.4,2.9-4.1,6.4-4.9,10.1C311.6,446.6,311.4,447.1,311.1,448z"/>
		</g>
		<g id="XMLID_8_">
			
				<linearGradient id="XMLID_19_" gradientUnits="userSpaceOnUse" x1="124.7208" y1="175.7308" x2="328.6859" y2="379.6959" gradientTransform="matrix(1 0 0 -1 0 568.19)">
				<stop  offset="0" style="stop-color:#910D11"/>
				<stop  offset="0.5282" style="stop-color:#ED1C24"/>
				<stop  offset="0.9949" style="stop-color:#910D11"/>
			</linearGradient>
			<path id="XMLID_12_" class="st4" d="M205.1,444.6c-1.6-0.2-3.2-0.4-4.8-0.6c-17.7-2.9-33.5-9.8-46.5-22.5
				c-9-8.8-15.9-19.1-21-30.5c-6-13.5-9.3-27.7-10.4-42.5c-0.8-12.4,2.6-23.9,7.9-34.9c5.9-12.2,13.7-23.1,22.2-33.6
				c11.1-13.6,23.4-26,35.8-38.4c13.3-13.3,26.8-26.4,39.9-39.8c9.4-9.6,18.3-19.7,25.7-31.1c4.4-6.8,8.2-14,10.2-22
				c2-8.2,1.8-16.2-1.6-24.1c-0.2-0.4-0.3-0.8-0.6-1.9c1.2,0.8,2,1.2,2.6,1.8c12.6,11,19.3,24.7,18.7,41.6c-0.5,12.7-3.3,25-7.2,37
				c-5,15.6-11.5,30.5-18.7,45.1c-10.6,21.4-21.4,42.6-32,64c-8.4,17-15.9,34.4-21.3,52.7c-3.8,12.9-6.4,26.1-6.6,39.7
				c-0.2,12.7,1.8,25,6.7,36.7c0.3,0.8,0.6,1.5,0.9,2.3C205.2,443.9,205.1,444.1,205.1,444.6z"/>
			
				<linearGradient id="XMLID_21_" gradientUnits="userSpaceOnUse" x1="174.5614" y1="125.8714" x2="378.5109" y2="329.8209" gradientTransform="matrix(1 0 0 -1 0 568.19)">
				<stop  offset="0" style="stop-color:#910D11"/>
				<stop  offset="0.5282" style="stop-color:#ED1C24"/>
				<stop  offset="0.9949" style="stop-color:#910D11"/>
			</linearGradient>
			<path id="XMLID_11_" class="st5" d="M250.2,450c-0.6-1-0.9-1.4-1.2-1.9c-9.3-12.4-15-26.1-15.7-41.7c-0.5-12,2-23.4,6.2-34.5
				c5.5-14.4,13.3-27.7,21.2-40.9c8.2-13.7,16.4-27.3,24.2-41.2c6.9-12.3,12.6-25.2,16.7-38.7c2.2-7.3,4-14.7,4.9-22.3
				c0.1-0.7,0.4-1.3,0.7-2.5c2.5,4.5,4.1,8.8,5.5,13.2c3.1,9.6,3.6,19.5,3.9,29.5c0.4,14.7-3,28.7-7.3,42.5
				c-5.4,17.4-12.1,34.4-19.2,51.2c-11.9,28.1-24.7,55.7-37.7,83.3C251.8,446.9,251.2,448.1,250.2,450z"/>
			
				<linearGradient id="XMLID_23_" gradientUnits="userSpaceOnUse" x1="215.2978" y1="85.135" x2="419.2473" y2="289.0845" gradientTransform="matrix(1 0 0 -1 0 568.19)">
				<stop  offset="0" style="stop-color:#910D11"/>
				<stop  offset="0.5282" style="stop-color:#ED1C24"/>
				<stop  offset="0.9949" style="stop-color:#910D11"/>
			</linearGradient>
			<path id="XMLID_9_" class="st6" d="M311.1,448c-1.1-1.2-2-2.1-2.8-3c-2.4-2.9-4.9-5.7-7-8.9c-2.4-3.7-3.9-7.9-3.8-12.5
				c0.1-2.2,0.6-4.2,2.1-5.8c3.9-4.3,7.9-8.5,11.6-13c11.2-13.5,22.8-26.6,31.9-41.7c8-13.4,14.1-27.5,16.7-43
				c1.5-9.1,2.4-18.3,1.6-27.5c-0.6-6.9-1.2-13.8-1.8-20.6c-0.1-1-0.1-2-0.2-3.4c0.8,0.5,1.3,0.7,1.7,1.1
				c14,12.9,26.1,27.5,36.4,43.5c11.2,17.3,9.9,44.2-3.8,61c-5.6,6.9-11.9,12.8-19.1,17.9c-8.8,6.1-17.8,11.9-26.7,17.7
				c-8.2,5.4-16.6,10.7-23.6,17.7c-2.8,2.7-5.3,5.7-7.7,8.7c-2.4,2.9-4.1,6.4-4.9,10.1C311.6,446.6,311.4,447.1,311.1,448z"/>
		</g>
	</g>
	<path id="XMLID_15_" class="st2" d="M380.8,271.1c-9.1-10.9-21.2-19.6-35.8-26.7l1.8,23.5l10-7.8l17.5,13.3L380.8,271.1z"/>
</g>
<g id="XMLID_138_">
	<path id="XMLID_139_" class="st7" d="M223.7,477.8h8c0.8,0,1.4,0.2,1.8,0.5s0.6,0.8,0.6,1.3s-0.2,0.9-0.5,1.3
		c-0.3,0.3-0.8,0.5-1.5,0.5h-11.2c-0.8,0-1.4-0.2-1.8-0.6c-0.4-0.4-0.6-0.9-0.6-1.5c0-0.4,0.1-0.9,0.4-1.5c0.3-0.6,0.6-1.1,0.9-1.4
		c1.4-1.4,2.6-2.6,3.7-3.6c1.1-1,1.9-1.7,2.3-2c0.8-0.6,1.5-1.2,2.1-1.8c0.6-0.6,1-1.2,1.3-1.8c0.3-0.6,0.4-1.2,0.4-1.8
		c0-0.7-0.2-1.2-0.5-1.7s-0.7-0.9-1.3-1.2c-0.5-0.3-1.1-0.4-1.7-0.4c-1.3,0-2.4,0.6-3.1,1.8c-0.1,0.2-0.3,0.6-0.5,1.3
		c-0.2,0.7-0.5,1.2-0.8,1.6s-0.7,0.5-1.3,0.5c-0.5,0-0.9-0.2-1.3-0.5c-0.3-0.3-0.5-0.8-0.5-1.4c0-0.7,0.2-1.4,0.5-2.2
		c0.3-0.8,0.8-1.5,1.4-2.1c0.6-0.6,1.4-1.1,2.4-1.5s2.1-0.6,3.4-0.6c1.6,0,2.9,0.2,4,0.7c0.7,0.3,1.3,0.8,1.9,1.3
		c0.5,0.6,1,1.2,1.3,2c0.3,0.7,0.4,1.5,0.4,2.3c0,1.3-0.3,2.4-0.9,3.4c-0.6,1-1.3,1.8-1.9,2.4c-0.7,0.6-1.7,1.5-3.3,2.8
		s-2.6,2.2-3.1,2.9C224.2,477.1,224,477.4,223.7,477.8z"/>
	<path id="XMLID_141_" class="st7" d="M252.4,470.4c0,1.7-0.1,3.1-0.3,4.3c-0.2,1.2-0.6,2.3-1.1,3.3c-0.7,1.2-1.6,2.1-2.7,2.8
		s-2.3,1-3.7,1c-1.5,0-2.9-0.4-4.2-1.3c-1.2-0.9-2.1-2.1-2.8-3.6c-0.3-0.8-0.5-1.8-0.7-2.8c-0.1-1-0.2-2.1-0.2-3.3
		c0-1.5,0.1-2.9,0.2-4.1c0.2-1.2,0.4-2.3,0.8-3.2c0.6-1.5,1.5-2.6,2.6-3.3s2.5-1.2,4.1-1.2c1,0,2,0.2,2.9,0.5s1.6,0.8,2.2,1.5
		s1.2,1.5,1.6,2.4C252,465,252.4,467.4,252.4,470.4z M248.2,470.1c0-1.9-0.1-3.4-0.3-4.6c-0.2-1.2-0.6-2.1-1.1-2.7s-1.3-0.9-2.2-0.9
		c-1.3,0-2.3,0.7-2.8,2s-0.8,3.4-0.8,6.3c0,1.9,0.1,3.5,0.3,4.7s0.6,2.1,1.1,2.8c0.5,0.6,1.2,0.9,2.1,0.9s1.7-0.3,2.2-1
		s0.9-1.6,1.1-2.8C248.1,473.7,248.2,472.1,248.2,470.1z"/>
	<path id="XMLID_144_" class="st7" d="M262.7,479.3v-13.9c-2.6,2-4.3,3-5.2,3c-0.4,0-0.8-0.2-1.1-0.5c-0.3-0.3-0.5-0.7-0.5-1.2
		s0.2-0.9,0.5-1.1s0.9-0.6,1.7-0.9c1.2-0.6,2.2-1.2,2.9-1.8c0.7-0.6,1.4-1.4,2-2.1c0.6-0.8,0.9-1.3,1.1-1.5s0.5-0.3,1-0.3
		s1,0.2,1.3,0.6s0.5,1,0.5,1.7v17.5c0,2-0.7,3.1-2.1,3.1c-0.6,0-1.1-0.2-1.5-0.6C262.8,480.7,262.7,480.1,262.7,479.3z"/>
	<path id="XMLID_146_" class="st7" d="M281,467.9c0.9,0,1.7-0.3,2.4-0.8s1-1.3,1-2.4c0-0.8-0.3-1.5-0.8-2c-0.5-0.6-1.3-0.8-2.2-0.8
		c-0.6,0-1.1,0.1-1.5,0.3s-0.7,0.4-1,0.7c-0.2,0.3-0.5,0.7-0.7,1.1s-0.4,0.9-0.6,1.3c-0.1,0.2-0.3,0.4-0.5,0.5s-0.6,0.2-0.9,0.2
		c-0.4,0-0.8-0.2-1.1-0.5c-0.3-0.3-0.5-0.8-0.5-1.3s0.2-1.1,0.5-1.7s0.8-1.1,1.4-1.7s1.4-1,2.3-1.3s1.9-0.5,3.1-0.5
		c1,0,1.9,0.1,2.7,0.4c0.8,0.3,1.5,0.7,2.1,1.2s1.1,1.1,1.4,1.8c0.3,0.7,0.5,1.4,0.5,2.2c0,1-0.2,1.9-0.7,2.6
		c-0.4,0.7-1.1,1.4-1.9,2.1c0.8,0.4,1.5,0.9,2,1.5c0.5,0.5,1,1.2,1.2,1.8c0.3,0.7,0.4,1.4,0.4,2.2c0,0.9-0.2,1.8-0.6,2.7
		c-0.4,0.9-0.9,1.6-1.6,2.3s-1.6,1.2-2.6,1.6s-2.1,0.6-3.3,0.6c-1.2,0-2.3-0.2-3.3-0.7s-1.8-1-2.4-1.6c-0.6-0.7-1.1-1.3-1.4-2
		s-0.5-1.3-0.5-1.7c0-0.6,0.2-1.1,0.6-1.4c0.4-0.4,0.9-0.5,1.4-0.5c0.3,0,0.6,0.1,0.8,0.3c0.3,0.2,0.4,0.4,0.5,0.6
		c0.5,1.4,1.1,2.5,1.7,3.1c0.6,0.7,1.5,1,2.6,1c0.6,0,1.2-0.2,1.8-0.5c0.6-0.3,1.1-0.8,1.4-1.4c0.4-0.6,0.6-1.3,0.6-2.1
		c0-1.2-0.3-2.1-1-2.8s-1.6-1-2.7-1c-0.2,0-0.5,0-0.9,0.1c-0.4,0-0.7,0.1-0.8,0.1c-0.6,0-1-0.1-1.3-0.4s-0.5-0.7-0.5-1.2
		s0.2-0.9,0.5-1.2c0.4-0.3,0.9-0.5,1.6-0.5h0.8V467.9z"/>
</g>
<g id="XMLID_98_">
	<path id="XMLID_99_" class="st7" d="M65.6,279.4l-5.1,1.8l-0.4,16.3l5.1,2c2,0.8,3.3,1.5,4,2s1,1.4,1,2.6c0,1-0.4,1.9-1.2,2.7
		c-0.8,0.8-1.6,1.1-2.6,1.1c-0.5,0-1.1-0.1-1.7-0.3c-0.6-0.2-1.4-0.5-2.4-1l-25.8-10.9c-0.7-0.3-1.6-0.7-2.7-1.1
		c-1-0.4-1.9-0.9-2.6-1.4c-0.7-0.5-1.2-1.1-1.6-1.9c-0.4-0.8-0.6-1.7-0.6-2.8c0-1.1,0.3-2.1,0.7-2.8c0.4-0.7,1-1.3,1.7-1.8
		c0.7-0.4,1.4-0.8,2.2-1.1c0.8-0.3,1.8-0.7,3.1-1.1l26.1-9.8c2-0.8,3.4-1.1,4.3-1.1s1.8,0.4,2.5,1.2c0.8,0.8,1.1,1.7,1.1,2.8
		c0,0.6-0.1,1.2-0.4,1.6c-0.2,0.5-0.6,0.8-1,1.1c-0.4,0.3-1,0.6-1.8,1C66.9,278.8,66.2,279.1,65.6,279.4z M54,295.2l0.3-12
		l-16.7,5.6L54,295.2z"/>
	<path id="XMLID_102_" class="st7" d="M70.5,239.8l-24.8,0.8l21.9,11.9c1.7,0.9,2.8,1.6,3.5,2.1s1.3,1.1,1.7,2
		c0.4,0.9,0.5,1.9,0.2,3.1c-0.2,1-0.6,1.7-1.1,2.3c-0.5,0.5-1.1,0.9-1.9,1.2c-0.8,0.2-1.6,0.4-2.6,0.4s-1.9,0.1-2.7,0.1L36.9,264
		c-1.6,0-2.8,0-3.6-0.2c-1-0.2-1.8-0.8-2.3-1.7s-0.7-1.8-0.4-2.9c0.3-1.4,1-2.3,2.1-2.6c1.1-0.3,2.5-0.4,4.3-0.4l24,0.2l-20-10.7
		c-1.5-0.8-2.7-1.5-3.5-2s-1.4-1.3-1.8-2.2c-0.4-0.9-0.5-2-0.2-3.3s0.9-2.3,1.7-2.9c0.8-0.6,1.6-0.9,2.5-1s2.2-0.2,4-0.3l22.7-0.8
		l-21.6-10.5c-1.1-0.5-2-1-2.6-1.4s-1.1-0.9-1.5-1.6c-0.4-0.7-0.5-1.5-0.2-2.5c0.2-1,0.8-1.8,1.6-2.4s1.8-0.7,2.8-0.5
		c0.7,0.2,1.8,0.6,3.3,1.4L73,228.6c1.7,0.9,2.9,1.5,3.6,2s1.4,1.2,1.8,2c0.5,0.8,0.5,1.9,0.2,3.2c-0.3,1.2-0.8,2.1-1.6,2.7
		c-0.8,0.6-1.6,0.9-2.4,1C73.9,239.6,72.5,239.7,70.5,239.8z"/>
	<path id="XMLID_104_" class="st7" d="M89.2,197l-5.4-0.4l-7,14.7l3.8,3.9c1.5,1.5,2.4,2.7,2.9,3.5s0.4,1.7-0.2,2.8
		c-0.4,0.9-1.2,1.6-2.2,2s-1.9,0.4-2.8,0c-0.5-0.2-1-0.6-1.4-1s-1.1-1-1.8-1.9L56,200.3c-0.6-0.6-1.2-1.3-2-2.1s-1.4-1.6-1.8-2.3
		s-0.7-1.5-0.7-2.4c-0.1-0.9,0.1-1.8,0.6-2.8s1.1-1.8,1.8-2.3c0.7-0.5,1.5-0.8,2.3-1c0.8-0.1,1.6-0.2,2.5-0.1s1.9,0.1,3.3,0.2
		l27.9,1.6c2.1,0.1,3.6,0.3,4.4,0.7s1.4,1.1,1.8,2.1s0.3,2-0.1,3c-0.3,0.6-0.6,1-1,1.3s-0.8,0.5-1.3,0.6s-1.2,0.2-2.1,0.1
		S89.8,197,89.2,197z M72.2,206.8l5.1-10.8l-17.5-1.6L72.2,206.8z"/>
	<path id="XMLID_107_" class="st7" d="M90.9,170.4l-1.7,2.3l10.4,7.5c1.4,1,2.2,2,2.4,3.1c0.2,1.1,0,2.1-0.7,3.1
		c-0.8,1-1.7,1.6-2.8,1.7c-1.1,0.1-2.3-0.3-3.6-1.3l-25-18.1c-1.4-1-2.2-2.1-2.4-3.2s0.2-2.4,1.3-3.8l7.7-10.7
		c1.1-1.5,2-2.7,2.9-3.7s1.8-1.7,2.8-2.3c1.2-0.7,2.4-1.2,3.8-1.4s2.7-0.1,4.1,0.2c1.4,0.4,2.6,1,3.8,1.8c2.4,1.8,3.9,3.8,4.3,6.2
		c0.5,2.4,0,5.2-1.4,8.4c1.5-0.7,3.2-1.2,5.2-1.4s4-0.2,5.9-0.1c2,0.2,3.7,0.4,5.1,0.7s2.4,0.6,2.8,0.9c0.4,0.3,0.8,0.8,1,1.3
		c0.2,0.6,0.3,1.2,0.2,1.8s-0.4,1.3-0.8,1.9c-0.5,0.7-1.2,1.2-1.9,1.5s-1.5,0.4-2.3,0.3c-0.8,0-1.9-0.1-3.4-0.2l-6.3-0.5
		c-2.3-0.2-4.1-0.3-5.5-0.1c-1.4,0.1-2.5,0.5-3.4,1C92.6,168.4,91.7,169.2,90.9,170.4z M79.9,156.7l-4.4,6.1l8.9,6.5l4.3-5.9
		c1.1-1.6,2-3,2.5-4.3s0.6-2.4,0.4-3.5c-0.2-1-0.9-2-2.1-2.8c-0.9-0.7-1.9-1-2.9-1s-2,0.2-2.9,0.8C82.8,153.1,81.6,154.5,79.9,156.7
		z"/>
	<path id="XMLID_110_" class="st7" d="M96.2,127.3l7.7-7.3c2-1.9,3.9-3.3,5.7-4.3c1.8-1,3.7-1.5,5.9-1.6c5.5-0.3,10.7,2.3,15.7,7.6
		c1.6,1.8,3,3.5,4.1,5.2c1.1,1.7,1.8,3.5,2.3,5.2c0.5,1.8,0.6,3.6,0.5,5.4c-0.1,1.4-0.4,2.8-1,4.1c-0.5,1.3-1.2,2.5-2.2,3.7
		c-0.9,1.2-2,2.4-3.4,3.7l-7.7,7.3c-1.1,1-2,1.6-2.9,1.8s-1.6,0.1-2.4-0.4c-0.7-0.4-1.5-1.1-2.4-2.1L96,134.3
		c-1.2-1.3-1.8-2.5-1.7-3.6C94.3,129.6,95,128.5,96.2,127.3z M102.9,129.8l18.6,19.8l4.5-4.2c1-0.9,1.7-1.7,2.2-2.3s1-1.3,1.4-2
		c0.4-0.8,0.6-1.6,0.7-2.4c0.4-3.5-1.3-7.3-5.2-11.4c-2.7-2.9-5.2-4.6-7.4-5.2s-4.1-0.5-5.8,0.3c-1.6,0.8-3.4,2.1-5.2,3.8
		L102.9,129.8z"/>
	<path id="XMLID_113_" class="st7" d="M154.6,83c3.7-1.9,7.2-2.8,10.7-2.7c3.4,0.1,6.5,1.2,9.3,3.2s5.2,4.9,7.1,8.6
		c1.4,2.7,2.4,5.4,2.8,8.1c0.4,2.6,0.3,5.2-0.3,7.6s-1.8,4.6-3.5,6.6s-4,3.7-6.8,5.2s-5.5,2.3-8.2,2.6c-2.7,0.3-5.2-0.1-7.5-0.9
		c-2.3-0.9-4.5-2.2-6.4-4.1s-3.6-4.2-5-6.9c-1.4-2.7-2.3-5.4-2.8-8.1c-0.4-2.7-0.3-5.2,0.4-7.6c0.6-2.4,1.8-4.5,3.5-6.5
		C149.7,86.1,151.9,84.4,154.6,83z M174.4,95.9c-1.4-2.6-3-4.6-4.8-6.1s-3.8-2.3-5.9-2.4c-2.1-0.2-4.1,0.3-6.1,1.3
		c-1.4,0.8-2.6,1.7-3.6,2.9c-0.9,1.2-1.6,2.5-1.9,4c-0.3,1.5-0.3,3.2,0,5.1s1,3.8,2.1,5.8s2.3,3.7,3.6,5.1c1.4,1.4,2.8,2.3,4.3,2.9
		s3,0.8,4.5,0.7c1.5-0.1,2.9-0.5,4.4-1.3c1.8-1,3.3-2.3,4.4-4c1.1-1.7,1.5-3.8,1.5-6.2C176.6,101.3,175.9,98.7,174.4,95.9z"/>
	<path id="XMLID_116_" class="st7" d="M207.5,70.2l-15.3,4.5l2.9,9.8l12.8-3.8c1.2-0.4,2.2-0.3,2.9,0c0.7,0.4,1.2,1,1.5,1.9
		s0.2,1.7-0.3,2.4c-0.4,0.7-1.2,1.2-2.4,1.6l-12.8,3.8l3.8,12.7c0.5,1.6,0.5,2.9,0,3.9s-1.3,1.7-2.4,2c-1.2,0.3-2.2,0.2-3.2-0.3
		c-1-0.6-1.7-1.7-2.1-3.2L184,75.8c-0.3-1.1-0.4-2.1-0.3-2.9c0.1-0.8,0.5-1.5,1.1-2s1.5-1,2.6-1.3l18.4-5.4c1.2-0.4,2.2-0.4,3,0
		s1.3,1,1.5,1.9c0.3,0.9,0.2,1.7-0.3,2.5C209.6,69.3,208.7,69.8,207.5,70.2z"/>
	<path id="XMLID_118_" class="st7" d="M260.7,64.3L242.4,65l0.4,9.8l16.8-0.7c1.2-0.1,2.2,0.2,2.8,0.7c0.6,0.5,1,1.3,1,2.2
		s-0.2,1.7-0.8,2.3c-0.6,0.6-1.5,0.9-2.8,1L243,81l0.5,11.4l18.9-0.8c1.3-0.1,2.2,0.2,2.9,0.8c0.7,0.6,1,1.3,1.1,2.3
		c0,0.9-0.3,1.7-0.9,2.3c-0.6,0.6-1.6,1-2.8,1l-22,0.9c-1.8,0.1-3.1-0.3-3.9-1c-0.8-0.8-1.2-2-1.3-3.8L234.3,64
		c0-1.2,0.1-2.1,0.4-2.9c0.3-0.8,0.8-1.3,1.6-1.7c0.7-0.4,1.7-0.6,2.8-0.6l21.4-0.9c1.3-0.1,2.3,0.2,2.9,0.7c0.7,0.5,1,1.3,1,2.2
		s-0.2,1.7-0.9,2.3C263,63.9,262,64.2,260.7,64.3z"/>
	<path id="XMLID_120_" class="st7" d="M269.1,90.5l10.7-11.8l-5.9-12.6c-0.6-1.2-0.9-2.2-1.2-3.1c-0.2-0.9-0.3-1.6-0.2-2.4
		c0.1-0.8,0.5-1.4,1.3-1.9s1.6-0.7,2.6-0.6c1.1,0.2,1.9,0.6,2.5,1.3c0.5,0.7,1.2,2.1,2.1,4l4.6,10.5l7.7-8.8
		c0.6-0.7,1.2-1.4,1.6-1.9s0.9-1,1.3-1.3s0.8-0.6,1.3-0.7s1-0.2,1.5-0.1c1,0.1,1.8,0.6,2.4,1.2c0.6,0.7,0.8,1.5,0.7,2.3
		c-0.2,1.2-1.1,2.8-2.8,4.6l-9.4,10.6l6.7,14.1c0.6,1.2,1,2.3,1.3,3.1c0.2,0.8,0.3,1.5,0.2,2.2c-0.1,0.6-0.3,1.2-0.7,1.7
		c-0.4,0.5-0.9,0.8-1.5,1.1c-0.6,0.2-1.3,0.3-2,0.2c-0.8-0.1-1.4-0.3-1.9-0.7c-0.5-0.4-0.9-0.8-1.1-1.4c-0.3-0.5-0.7-1.5-1.4-3
		l-5.5-12l-9,10.3c-0.7,0.8-1.2,1.4-1.5,1.7c-0.3,0.3-0.6,0.6-1,0.9s-0.8,0.5-1.3,0.6s-1.1,0.2-1.7,0.1c-1-0.1-1.7-0.5-2.3-1.2
		c-0.6-0.7-0.8-1.6-0.6-2.7C266.6,93.8,267.5,92.2,269.1,90.5z"/>
	<path id="XMLID_122_" class="st7" d="M334.4,100.9c-0.4,1.2-1.1,2.4-2.2,3.6s-2.5,2.3-4.2,3.2c-1.7,0.9-3.7,1.5-6,1.7
		s-4.7-0.1-7.4-1c-2-0.7-3.8-1.4-5.3-2.4c-1.5-0.9-2.8-2-3.9-3.2s-2-2.7-2.7-4.4c-0.6-1.5-1-3.1-1.3-4.9c-0.2-1.7-0.2-3.5,0-5.3
		s0.6-3.6,1.2-5.5c1-3.1,2.3-5.7,4-7.8s3.6-3.8,5.9-5c2.2-1.2,4.6-1.9,7.1-2c2.5-0.2,5.1,0.2,7.6,1c3.1,1,5.6,2.5,7.6,4.5
		s3.4,4.1,4,6.4c0.6,2.3,0.8,4.2,0.2,5.8c-0.3,0.9-0.9,1.6-1.7,2s-1.7,0.6-2.6,0.3c-1-0.3-1.7-0.8-2-1.4s-0.6-1.6-0.9-3
		c-0.4-2.2-1.1-4-2.2-5.4s-2.6-2.4-4.6-3c-3.2-1-6.1-0.7-8.8,1.1c-2.7,1.8-4.7,4.9-6.2,9.3c-1,3-1.4,5.6-1.2,7.8
		c0.2,2.2,0.9,4.1,2.1,5.6s2.8,2.5,4.9,3.2c2.2,0.7,4.3,0.8,6.2,0.2s3.6-1.8,5.1-3.7c0.7-0.9,1.3-1.6,2-2.1s1.6-0.5,2.6-0.2
		c0.9,0.3,1.6,0.9,2,1.7S334.7,99.9,334.4,100.9z"/>
	<path id="XMLID_124_" class="st7" d="M373,98l-16-8.9l-4.8,8.6l14.7,8.2c1.1,0.6,1.8,1.3,2,2.1c0.3,0.8,0.2,1.6-0.3,2.4
		c-0.4,0.8-1.1,1.3-1.9,1.5s-1.8,0-2.9-0.6l-14.7-8.2l-5.6,9.9l16.5,9.3c1.1,0.6,1.8,1.4,2.1,2.2s0.2,1.7-0.3,2.5s-1.1,1.3-2,1.5
		s-1.8,0-3-0.6l-19.2-10.8c-1.5-0.9-2.5-1.8-2.8-2.9s0-2.4,0.8-3.9L350.3,84c0.6-1,1.2-1.8,1.9-2.2s1.4-0.7,2.2-0.6s1.7,0.4,2.7,0.9
		l19,10.5c1.1,0.6,1.8,1.4,2.1,2.2c0.3,0.8,0.2,1.6-0.3,2.4s-1.1,1.3-1.9,1.5S374.2,98.6,373,98z"/>
	<path id="XMLID_126_" class="st7" d="M391.5,108.9l-18.4,22.6l12.8,10.4c1,0.8,1.6,1.7,1.7,2.6c0.1,0.9-0.1,1.8-0.7,2.5
		c-0.6,0.8-1.4,1.2-2.3,1.2s-1.9-0.4-2.9-1.2l-15.2-12.4c-1.4-1.1-2.1-2.2-2.2-3.3s0.4-2.3,1.5-3.7l19.5-24c1-1.3,2.1-2,3.2-2.2
		s2.1,0.1,3,0.9s1.5,1.7,1.5,2.8C393,106.4,392.5,107.6,391.5,108.9z"/>
	<path id="XMLID_128_" class="st7" d="M418.2,133.4l-21.8,19.4l11,12.3c0.9,1,1.3,1.9,1.3,2.9c0,0.9-0.4,1.7-1.1,2.4
		s-1.6,0.9-2.5,0.8c-0.9-0.1-1.8-0.7-2.7-1.7l-13.1-14.6c-1.2-1.3-1.7-2.5-1.7-3.6c0.1-1.1,0.8-2.2,2.1-3.4l23-20.6
		c1.2-1.1,2.4-1.6,3.5-1.6s2.1,0.5,2.9,1.4c0.8,0.9,1.2,1.9,1.1,3C420.1,131.2,419.5,132.3,418.2,133.4z"/>
	<path id="XMLID_130_" class="st7" d="M449,178.5l-9.8-15.5l-8.3,5.3l9,14.2c0.7,1,0.9,2,0.8,2.8s-0.6,1.5-1.4,2s-1.6,0.6-2.4,0.4
		c-0.8-0.2-1.5-0.8-2.2-1.9l-9-14.2l-9.6,6.1l10.1,16c0.7,1.1,0.9,2,0.8,2.9c-0.2,0.9-0.6,1.6-1.5,2.1c-0.8,0.5-1.6,0.6-2.5,0.4
		c-0.8-0.2-1.6-0.9-2.3-2l-11.8-18.6c-0.9-1.5-1.3-2.8-1-3.9c0.2-1.1,1.1-2.1,2.6-3l25.5-16.1c1-0.6,1.9-1,2.7-1.1
		c0.8-0.1,1.6,0.1,2.2,0.5c0.7,0.4,1.3,1.1,1.9,2.1l11.5,18.1c0.7,1.1,1,2.1,0.8,2.9c-0.1,0.8-0.6,1.5-1.4,2s-1.6,0.6-2.4,0.4
		C450.4,180.3,449.7,179.6,449,178.5z"/>
	<path id="XMLID_132_" class="st7" d="M461.4,199.3l-16.1,23.3l22.1-8.9c1.4-0.6,2.6-0.7,3.6-0.4s1.7,1,2.1,2.1s0.4,2.1,0,3
		s-1.4,1.7-2.9,2.2L441,232.4c-3.3,1.3-5.4,0.6-6.5-2.1c-0.3-0.7-0.4-1.3-0.4-1.9c0-0.6,0.1-1.3,0.3-1.9c0.2-0.6,0.5-1.3,1-1.9
		s0.8-1.3,1.2-1.9l16-22.8l-21.8,8.8c-1.4,0.6-2.6,0.7-3.6,0.3s-1.7-1.1-2.1-2.1c-0.4-1.1-0.4-2.1,0.1-3s1.4-1.7,2.8-2.3l28.7-11.5
		c1.2-0.5,2.2-0.7,3-0.7c0.9,0,1.7,0.3,2.5,0.8s1.3,1.3,1.7,2.1c0.3,0.7,0.4,1.3,0.4,1.9c0,0.6-0.2,1.1-0.4,1.6
		c-0.2,0.5-0.6,1.1-1,1.7C462.3,198,461.9,198.7,461.4,199.3z"/>
	<path id="XMLID_134_" class="st7" d="M457.1,270.2c-1.3,0.2-2.7,0.2-4.2-0.1c-1.6-0.3-3.2-1-4.9-2.1c-1.7-1-3.1-2.5-4.4-4.4
		s-2.2-4.2-2.7-6.9c-0.4-2.1-0.6-4-0.5-5.8s0.4-3.4,0.9-5c0.6-1.5,1.4-3,2.5-4.5c1-1.3,2.2-2.4,3.6-3.5c1.4-1,2.9-1.9,4.6-2.6
		c1.7-0.7,3.5-1.2,5.4-1.6c3.2-0.6,6.1-0.7,8.8-0.3c2.7,0.4,5.1,1.3,7.2,2.7s3.9,3.1,5.2,5.2c1.4,2.1,2.3,4.5,2.8,7.1
		c0.6,3.2,0.5,6.1-0.2,8.9c-0.8,2.7-2,4.9-3.6,6.6s-3.2,2.7-4.9,3c-0.9,0.2-1.8,0-2.6-0.5c-0.8-0.5-1.3-1.2-1.5-2.1
		c-0.2-1-0.1-1.8,0.3-2.4c0.4-0.6,1.1-1.3,2.2-2.2c1.7-1.4,3-2.9,3.7-4.5c0.7-1.6,0.8-3.4,0.4-5.5c-0.6-3.3-2.4-5.6-5.3-7.1
		s-6.6-1.7-11.2-0.8c-3.1,0.6-5.5,1.5-7.4,2.8s-3.1,2.8-3.8,4.5c-0.7,1.8-0.8,3.7-0.4,5.8c0.4,2.3,1.4,4.1,2.8,5.5s3.3,2.2,5.7,2.6
		c1.1,0.1,2,0.4,2.8,0.8c0.8,0.4,1.2,1.1,1.5,2.2c0.2,0.9,0,1.8-0.5,2.6C458.8,269.5,458.1,270,457.1,270.2z"/>
	<path id="XMLID_136_" class="st7" d="M479,302.2l-0.3-18.3l-9.8,0.2l0.3,16.8c0,1.2-0.2,2.2-0.8,2.8c-0.5,0.6-1.3,0.9-2.2,1
		c-0.9,0-1.7-0.3-2.2-0.9c-0.6-0.6-0.9-1.5-0.9-2.8l-0.3-16.8l-11.4,0.2l0.3,18.9c0,1.3-0.3,2.2-0.8,2.9c-0.6,0.7-1.4,1-2.3,1
		s-1.7-0.3-2.3-0.9c-0.6-0.6-0.9-1.6-0.9-2.9l-0.4-22.1c0-1.8,0.3-3,1.1-3.8c0.8-0.8,2-1.2,3.8-1.2l30.1-0.6c1.2,0,2.1,0.1,2.9,0.5
		c0.7,0.3,1.3,0.9,1.6,1.6s0.5,1.7,0.6,2.8l0.4,21.4c0,1.3-0.2,2.3-0.8,2.9c-0.6,0.6-1.3,1-2.2,1c-0.9,0-1.7-0.3-2.3-0.9
		S479.1,303.5,479,302.2z"/>
</g>
<g id="XMLID_2_">
	<path id="XMLID_13_" class="st8" d="M74.5,380.4l-7.3,11.5l10.5-4.7c0.7-0.3,1.3-0.4,1.7-0.3c0.5,0.1,0.8,0.5,1,1s0.2,1,0,1.4
		s-0.7,0.8-1.3,1.1l-13.9,6.2c-1.5,0.7-2.6,0.4-3.2-0.9c-0.1-0.3-0.2-0.6-0.3-0.9c0-0.3,0-0.6,0.1-0.9s0.2-0.6,0.4-0.9
		c0.2-0.3,0.4-0.6,0.6-0.9l7.3-11.3l-10.3,4.6c-0.7,0.3-1.3,0.4-1.7,0.2c-0.5-0.2-0.8-0.5-1.1-1c-0.2-0.5-0.2-1,0-1.4
		c0.2-0.5,0.6-0.8,1.3-1.1l13.6-6.1c0.6-0.3,1.1-0.4,1.4-0.4c0.4,0,0.8,0.1,1.2,0.4s0.7,0.6,0.9,1c0.1,0.3,0.2,0.6,0.2,0.9
		s-0.1,0.5-0.2,0.8s-0.2,0.5-0.4,0.8S74.7,380.1,74.5,380.4z"/>
	<path id="XMLID_17_" class="st8" d="M73.4,411.7l1.7-2l-3.9-6.8l-2.6,0.4c-1,0.2-1.7,0.2-2.2,0.2s-0.8-0.3-1.1-0.8
		c-0.2-0.4-0.3-0.9-0.2-1.4s0.4-0.9,0.8-1.1c0.2-0.1,0.5-0.2,0.8-0.3c0.3-0.1,0.7-0.1,1.2-0.2l13.4-1.8c0.4-0.1,0.8-0.1,1.4-0.2
		c0.5-0.1,1-0.1,1.4-0.1s0.8,0.2,1.1,0.4s0.7,0.6,0.9,1c0.3,0.5,0.4,0.9,0.4,1.3s-0.1,0.8-0.3,1.2c-0.2,0.4-0.4,0.7-0.6,1
		c-0.3,0.3-0.6,0.7-1,1.2l-8.4,10.5c-0.6,0.8-1.1,1.3-1.5,1.5s-0.8,0.3-1.3,0.1s-0.9-0.4-1.2-0.9c-0.2-0.3-0.2-0.5-0.2-0.8
		c0-0.2,0-0.5,0.1-0.7s0.3-0.5,0.5-0.8S73.2,411.9,73.4,411.7z M74.3,402.3l2.8,5l5.5-6.4L74.3,402.3z"/>
	<path id="XMLID_20_" class="st8" d="M94.7,419l-2.4-3.6l-11.7,7.7c-0.7,0.4-1.3,0.6-1.8,0.5s-0.9-0.4-1.3-0.8
		c-0.3-0.5-0.4-1-0.3-1.5s0.5-1,1.2-1.4l11.7-7.7l-2.4-3.6c-0.4-0.6-0.5-1.1-0.5-1.5s0.3-0.8,0.7-1c0.4-0.3,0.8-0.4,1.3-0.2
		s0.8,0.5,1.2,1l6.9,10.4c0.4,0.6,0.5,1.1,0.5,1.5c-0.1,0.4-0.3,0.8-0.7,1.1c-0.4,0.3-0.8,0.3-1.2,0.2C95.4,419.9,95,419.5,94.7,419
		z"/>
	<path id="XMLID_22_" class="st8" d="M85.9,430.7l12.2-9.1c0.6-0.5,1.2-0.7,1.7-0.6s1,0.3,1.3,0.8c0.4,0.5,0.5,1,0.4,1.5
		s-0.5,1-1.1,1.5l-12.2,9.1c-0.6,0.5-1.2,0.7-1.8,0.6s-1-0.3-1.3-0.8s-0.5-0.9-0.4-1.5C84.9,431.6,85.3,431.1,85.9,430.7z"/>
	<path id="XMLID_40_" class="st8" d="M110,432.7c1.3,1.5,2.1,3.1,2.4,4.7s0.2,3.2-0.5,4.7s-1.7,3-3.3,4.3c-1.1,1-2.3,1.7-3.5,2.2
		s-2.4,0.7-3.6,0.7s-2.4-0.3-3.5-0.9s-2.2-1.4-3.2-2.6c-1-1.1-1.7-2.3-2.1-3.6c-0.4-1.2-0.5-2.4-0.4-3.6s0.6-2.3,1.2-3.5
		c0.7-1.1,1.6-2.2,2.7-3.1c1.1-1,2.3-1.7,3.5-2.2s2.4-0.7,3.6-0.7s2.3,0.4,3.4,0.9C108,430.8,109.1,431.6,110,432.7z M106.1,443.4
		c1.1-0.9,1.9-1.9,2.3-2.9c0.5-1,0.7-2,0.5-3s-0.6-1.9-1.3-2.7c-0.5-0.6-1.1-1-1.8-1.4c-0.7-0.3-1.4-0.5-2.1-0.5s-1.5,0.2-2.4,0.5
		c-0.8,0.4-1.7,0.9-2.5,1.6s-1.5,1.5-2,2.3s-0.8,1.6-0.9,2.3s-0.1,1.5,0.1,2.2s0.6,1.3,1.1,1.9c0.7,0.8,1.4,1.3,2.4,1.6
		c0.9,0.3,1.9,0.3,3.1,0S105,444.4,106.1,443.4z"/>
	<path id="XMLID_43_" class="st8" d="M120,446.8l-2.4,13.4l7.9-8.3c0.5-0.5,1-0.8,1.5-0.9c0.5,0,0.9,0.1,1.3,0.5
		c0.4,0.4,0.6,0.8,0.6,1.3s-0.3,1-0.8,1.6l-10.5,11c-1.2,1.2-2.3,1.4-3.3,0.4c-0.3-0.2-0.4-0.5-0.6-0.8c-0.1-0.3-0.2-0.6-0.2-0.9
		s0-0.7,0-1c0-0.4,0.1-0.7,0.2-1.1l2.4-13.2l-7.8,8.2c-0.5,0.5-1,0.8-1.5,0.9c-0.5,0-1-0.1-1.3-0.5c-0.4-0.4-0.6-0.8-0.6-1.3
		s0.3-1,0.8-1.6l10.3-10.8c0.4-0.5,0.8-0.8,1.2-0.9c0.4-0.2,0.8-0.2,1.3-0.1s0.8,0.3,1.2,0.6c0.3,0.2,0.4,0.5,0.5,0.7
		c0.1,0.3,0.2,0.5,0.2,0.8s0,0.6-0.1,0.9C120.2,446.1,120.1,446.5,120,446.8z"/>
	<path id="XMLID_45_" class="st8" d="M130.9,476.2l0.8-2.5l-6.2-4.9l-2.3,1.4c-0.9,0.5-1.5,0.9-1.9,1s-0.8,0-1.3-0.4
		c-0.4-0.3-0.6-0.7-0.7-1.2s0-1,0.3-1.3c0.2-0.2,0.4-0.4,0.6-0.6c0.2-0.2,0.6-0.4,1.1-0.7l11.7-6.8c0.3-0.2,0.7-0.4,1.2-0.7
		c0.5-0.3,0.9-0.5,1.3-0.6c0.4-0.1,0.8-0.2,1.2-0.1s0.8,0.3,1.3,0.6c0.4,0.3,0.7,0.7,0.9,1.1s0.2,0.8,0.2,1.2c0,0.4-0.1,0.8-0.2,1.2
		c-0.1,0.4-0.3,0.9-0.5,1.5l-3.8,12.9c-0.3,1-0.5,1.7-0.8,2c-0.3,0.4-0.7,0.6-1.2,0.6c-0.5,0.1-1-0.1-1.4-0.4
		c-0.2-0.2-0.4-0.4-0.5-0.6s-0.2-0.5-0.2-0.7s0.1-0.6,0.2-1C130.7,476.8,130.8,476.5,130.9,476.2z M128.1,467.1l4.5,3.6l2.7-8.1
		L128.1,467.1z"/>
	<path id="XMLID_48_" class="st8" d="M148.6,470.2l-7.7,11.7l6.6,4.4c0.5,0.3,0.8,0.7,1,1.2c0.1,0.4,0,0.9-0.2,1.2
		c-0.3,0.4-0.6,0.6-1.1,0.7c-0.4,0.1-0.9-0.1-1.5-0.4l-7.9-5.2c-0.7-0.5-1.1-1-1.2-1.5c-0.1-0.5,0.1-1.1,0.5-1.8l8.2-12.4
		c0.4-0.7,0.9-1.1,1.4-1.2s1,0,1.5,0.3s0.8,0.8,0.9,1.3C149.2,469,149.1,469.6,148.6,470.2z"/>
	<path id="XMLID_50_" class="st8" d="M163.9,499l-5.3-2.6c-0.8-0.4-1.2-0.8-1.4-1.3s0-1.1,0.3-1.9l6.5-13c0.4-0.8,0.8-1.2,1.3-1.4
		s1.1-0.1,1.9,0.3l5.6,2.8c0.8,0.4,1.5,0.8,2.1,1.2s1,0.9,1.3,1.4c0.3,0.4,0.5,0.9,0.6,1.5c0.1,0.5,0.2,1.1,0.1,1.6
		c-0.1,0.5-0.2,1.1-0.5,1.6c-0.9,1.7-2.4,2.6-4.5,2.5c1.9,1.9,2.3,3.8,1.3,5.9c-0.5,1-1.2,1.7-2,2.2s-1.8,0.8-2.9,0.7
		c-0.6,0-1.3-0.2-2-0.4C165.6,499.8,164.8,499.5,163.9,499z M167.4,491.2l-3.6-1.8l-2.5,5l3.8,1.9c2.4,1.2,4,0.9,4.8-0.8
		c0.4-0.9,0.4-1.7,0-2.4C169.5,492.5,168.6,491.8,167.4,491.2z M167.3,482.4l-2.2,4.5l3.2,1.6c0.9,0.4,1.6,0.7,2.1,0.8
		s1.1-0.1,1.6-0.4c0.4-0.2,0.6-0.6,0.8-1c0.4-0.9,0.4-1.6-0.1-2.2s-1.4-1.2-2.6-1.8L167.3,482.4z"/>
	<path id="XMLID_54_" class="st8" d="M186.1,506.2v-2.6l-7.3-2.9l-1.8,2c-0.7,0.8-1.2,1.3-1.6,1.5s-0.8,0.2-1.4,0
		c-0.5-0.2-0.8-0.5-1-1s-0.2-0.9-0.1-1.3c0.1-0.2,0.2-0.5,0.4-0.7s0.5-0.5,0.8-0.9l9.2-9.9c0.3-0.3,0.6-0.6,0.9-1
		c0.4-0.4,0.7-0.7,1-0.9c0.3-0.2,0.7-0.4,1.1-0.4c0.4-0.1,0.9,0,1.4,0.2s0.9,0.5,1.2,0.8s0.4,0.7,0.5,1.1s0.1,0.8,0.1,1.2
		c0,0.4,0,0.9,0,1.6l0.2,13.5c0,1,0,1.7-0.2,2.1s-0.5,0.7-1,0.9c-0.5,0.2-1,0.2-1.5,0c-0.3-0.1-0.5-0.3-0.7-0.4
		c-0.2-0.2-0.3-0.4-0.4-0.6c-0.1-0.2-0.1-0.6-0.1-1S186.1,506.6,186.1,506.2z M180.9,498.4l5.4,2.1l0.2-8.5L180.9,498.4z"/>
	<path id="XMLID_57_" class="st8" d="M200.2,504.4l-1.3-0.4l-1.7,6c-0.2,0.8-0.6,1.3-1,1.6c-0.5,0.3-1,0.3-1.5,0.2
		c-0.6-0.2-1-0.5-1.2-1s-0.2-1.1,0-1.9l4-14.3c0.2-0.8,0.6-1.3,1-1.6c0.5-0.3,1.1-0.3,1.9,0l6.1,1.7c0.8,0.2,1.6,0.5,2.1,0.7
		c0.6,0.2,1.1,0.5,1.5,0.9c0.5,0.4,0.9,0.9,1.3,1.5c0.3,0.6,0.5,1.2,0.6,1.9c0.1,0.7,0,1.3-0.2,2c-0.4,1.4-1.1,2.4-2.1,3
		s-2.4,0.9-4.1,0.8c0.6,0.5,1.1,1.2,1.5,2.1s0.7,1.8,1,2.7c0.3,0.9,0.4,1.7,0.5,2.4c0.1,0.7,0.1,1.2,0,1.4s-0.2,0.5-0.4,0.7
		s-0.5,0.3-0.8,0.4c-0.3,0.1-0.6,0-1-0.1c-0.4-0.1-0.8-0.3-1-0.6c-0.2-0.3-0.4-0.6-0.5-1c-0.1-0.4-0.3-0.9-0.5-1.6l-0.8-2.9
		c-0.3-1.1-0.6-1.9-0.9-2.5c-0.3-0.6-0.6-1.1-1-1.4C201.4,504.9,200.9,504.6,200.2,504.4z M204.6,497.2l-3.5-1l-1.4,5.1l3.4,1
		c0.9,0.3,1.7,0.4,2.3,0.4c0.7,0,1.2-0.1,1.6-0.4c0.4-0.3,0.7-0.8,0.9-1.4c0.1-0.5,0.1-1,0-1.5c-0.2-0.5-0.4-0.9-0.8-1.2
		S205.9,497.6,204.6,497.2z"/>
	<path id="XMLID_60_" class="st8" d="M220.7,517.7l-5.8-1c-0.8-0.2-1.4-0.4-1.7-0.9c-0.3-0.4-0.4-1.1-0.2-1.9l2.6-14.3
		c0.2-0.8,0.4-1.4,0.9-1.7s1.1-0.4,1.9-0.2l6.2,1.1c0.9,0.2,1.7,0.4,2.3,0.6s1.2,0.6,1.7,1c0.4,0.3,0.7,0.8,1,1.2
		c0.3,0.5,0.5,1,0.5,1.5c0.1,0.5,0.1,1.1,0,1.6c-0.3,1.9-1.5,3.1-3.6,3.7c2.4,1.2,3.3,3,2.9,5.3c-0.2,1.1-0.6,2-1.3,2.7
		c-0.7,0.8-1.5,1.3-2.5,1.5c-0.6,0.1-1.3,0.2-2.1,0.2C222.6,518,221.7,517.9,220.7,517.7z M221.9,509.2l-4-0.7l-1,5.6l4.1,0.7
		c2.6,0.5,4.1-0.2,4.4-2.1c0.2-1,0-1.7-0.6-2.3C224.2,509.8,223.3,509.4,221.9,509.2z M219.3,500.8l-0.9,4.9l3.5,0.6
		c1,0.2,1.7,0.2,2.3,0.1s1-0.4,1.4-0.8c0.3-0.3,0.5-0.7,0.5-1.2c0.2-1-0.1-1.7-0.7-2.1c-0.6-0.4-1.6-0.8-3-1L219.3,500.8z"/>
	<path id="XMLID_64_" class="st8" d="M246.7,504.4l-8.8-0.7l-0.4,4.7l8.1,0.7c0.6,0.1,1,0.2,1.3,0.5s0.4,0.7,0.4,1.1s-0.2,0.8-0.5,1
		s-0.8,0.4-1.4,0.3l-8.1-0.7l-0.5,5.5l9.1,0.8c0.6,0.1,1.1,0.2,1.3,0.5s0.4,0.7,0.4,1.2s-0.2,0.8-0.6,1.1c-0.3,0.3-0.8,0.4-1.4,0.3
		l-10.6-0.9c-0.8-0.1-1.4-0.3-1.8-0.7c-0.3-0.4-0.5-1-0.4-1.9l1.2-14.5c0-0.6,0.2-1,0.4-1.4c0.2-0.3,0.5-0.6,0.8-0.7
		c0.4-0.1,0.8-0.2,1.4-0.1l10.3,0.9c0.6,0.1,1.1,0.2,1.4,0.5s0.4,0.7,0.4,1.1c0,0.5-0.2,0.8-0.5,1.1
		C247.8,504.3,247.3,504.4,246.7,504.4z"/>
	<path id="XMLID_66_" class="st8" d="M268,514.6c0,0.6-0.1,1.3-0.4,2s-0.8,1.4-1.4,2.1s-1.5,1.3-2.5,1.7c-1,0.4-2.2,0.7-3.5,0.7
		c-1,0-1.9-0.1-2.8-0.2c-0.8-0.2-1.6-0.5-2.3-0.9c-0.7-0.4-1.3-0.9-1.9-1.6c-0.5-0.6-1-1.3-1.3-2s-0.7-1.5-0.9-2.4
		c-0.2-0.8-0.3-1.8-0.3-2.7c0-1.6,0.2-3,0.6-4.2s1.1-2.3,1.9-3.2s1.8-1.6,2.9-2c1.1-0.5,2.3-0.7,3.6-0.7c1.6,0,3,0.3,4.2,0.9
		s2.2,1.4,2.8,2.3c0.7,0.9,1,1.8,1,2.6c0,0.4-0.1,0.8-0.5,1.2c-0.3,0.3-0.7,0.5-1.1,0.5c-0.5,0-0.9-0.1-1.1-0.3
		c-0.3-0.2-0.5-0.6-0.9-1.2c-0.5-0.9-1.1-1.7-1.8-2.1c-0.7-0.5-1.6-0.7-2.6-0.7c-1.6,0-2.9,0.7-3.8,1.9c-0.9,1.2-1.4,3-1.3,5.2
		c0,1.5,0.3,2.7,0.7,3.7c0.4,1,1,1.7,1.8,2.2s1.7,0.7,2.7,0.7c1.1,0,2.1-0.3,2.8-0.9c0.7-0.6,1.3-1.4,1.7-2.5
		c0.2-0.5,0.4-0.9,0.6-1.3c0.2-0.3,0.6-0.5,1.2-0.5c0.5,0,0.9,0.1,1.2,0.5C267.8,513.8,268,514.2,268,514.6z"/>
	<path id="XMLID_68_" class="st8" d="M271.7,512.6l-1-9.2c-0.1-0.8,0-1.4,0.3-1.8s0.8-0.7,1.3-0.7c0.6-0.1,1.1,0.1,1.5,0.4
		s0.6,0.9,0.7,1.7l1,9.4c0.1,1.1,0.3,2,0.7,2.7s0.8,1.2,1.5,1.5s1.5,0.4,2.6,0.3c1.5-0.2,2.5-0.7,3.1-1.6c0.6-0.9,0.7-2.1,0.5-3.8
		l-1-9.5c-0.1-0.8,0-1.4,0.3-1.8s0.8-0.7,1.3-0.7s1.1,0.1,1.5,0.4s0.7,0.9,0.7,1.7l1,9.2c0.2,1.5,0.2,2.8,0,3.8s-0.6,2-1.4,2.8
		c-0.6,0.7-1.4,1.3-2.3,1.7s-2,0.7-3.2,0.8c-1.5,0.2-2.8,0.1-3.9-0.1s-2-0.6-2.8-1.2c-0.8-0.6-1.3-1.4-1.8-2.4
		C272.1,515.3,271.8,514,271.7,512.6z"/>
	<path id="XMLID_70_" class="st8" d="M302.9,499.3l-8.6,1.8l1,4.6l7.9-1.7c0.6-0.1,1-0.1,1.4,0.1c0.3,0.2,0.6,0.5,0.6,0.9
		c0.1,0.4,0,0.8-0.2,1.1c-0.2,0.3-0.6,0.6-1.2,0.7l-7.9,1.7l1.1,5.4l8.9-1.9c0.6-0.1,1.1-0.1,1.4,0.1c0.4,0.2,0.6,0.6,0.7,1
		c0.1,0.4,0,0.8-0.2,1.2c-0.2,0.3-0.7,0.6-1.3,0.7l-10.4,2.2c-0.8,0.2-1.5,0.1-1.9-0.2s-0.8-0.9-0.9-1.7l-3-14.2
		c-0.1-0.5-0.1-1,0-1.4s0.3-0.7,0.6-0.9c0.3-0.2,0.7-0.4,1.3-0.5l10.1-2.1c0.6-0.1,1.1-0.1,1.4,0.1c0.4,0.2,0.6,0.5,0.7,1
		c0.1,0.4,0,0.8-0.2,1.2S303.5,499.2,302.9,499.3z"/>
	<path id="XMLID_72_" class="st8" d="M330.1,505.7l-1.7-2l-7.4,2.6l-0.1,2.6c0,1-0.1,1.7-0.2,2.2c-0.1,0.4-0.5,0.7-1,0.9
		c-0.5,0.2-0.9,0.1-1.4-0.1c-0.5-0.2-0.8-0.5-0.9-1c-0.1-0.3-0.1-0.5-0.1-0.8s0-0.7,0-1.3l0.6-13.5c0-0.4,0-0.9,0.1-1.4
		s0.1-1,0.2-1.4s0.3-0.7,0.6-1.1s0.7-0.6,1.2-0.7c0.5-0.2,1-0.2,1.4-0.2s0.8,0.2,1.1,0.5c0.3,0.2,0.6,0.5,0.9,0.8s0.6,0.7,1,1.2
		l8.8,10.1c0.7,0.8,1.1,1.4,1.2,1.8s0.1,0.9-0.1,1.3c-0.2,0.5-0.6,0.8-1.1,1c-0.3,0.1-0.6,0.1-0.8,0.1c-0.2,0-0.5-0.1-0.7-0.2
		s-0.4-0.4-0.7-0.7S330.3,506,330.1,505.7z M321,503.2l5.5-1.9l-5.4-6.6L321,503.2z"/>
	<path id="XMLID_75_" class="st8" d="M349.2,493.6c0.5,1.1,0.6,2.1,0.5,3.2c-0.2,1.1-0.7,2.1-1.5,3.1s-2,1.8-3.4,2.4
		c-1.7,0.8-3.3,1.1-4.7,1c-1-0.1-2-0.4-2.8-1c-0.9-0.6-1.5-1.2-1.8-2c-0.2-0.4-0.2-0.9-0.1-1.3c0.2-0.4,0.5-0.8,0.9-1
		s0.7-0.2,1.1-0.1s0.8,0.4,1.2,0.8c0.5,0.5,0.9,0.8,1.4,1.1c0.4,0.3,0.9,0.4,1.5,0.4s1.3-0.1,2-0.5c1.1-0.5,1.8-1.1,2.2-1.9
		c0.4-0.8,0.5-1.6,0.2-2.3c-0.3-0.6-0.7-1-1.2-1.2s-1.1-0.3-1.8-0.2c-0.7,0.1-1.5,0.2-2.5,0.4c-1.4,0.3-2.6,0.4-3.6,0.4
		s-2-0.2-2.8-0.7s-1.4-1.2-1.9-2.2c-0.4-1-0.6-1.9-0.4-2.9s0.7-1.9,1.5-2.8s1.9-1.6,3.3-2.2c1.1-0.5,2.1-0.8,3-0.9s1.7,0,2.4,0.2
		c0.7,0.2,1.3,0.5,1.8,0.9s0.8,0.8,1,1.3c0.2,0.4,0.2,0.9,0.1,1.4s-0.4,0.8-0.9,1c-0.4,0.2-0.8,0.2-1.1,0.1
		c-0.3-0.1-0.7-0.3-1.1-0.7c-0.6-0.5-1.2-0.9-1.9-1c-0.6-0.2-1.4,0-2.4,0.4c-0.9,0.4-1.6,1-2,1.6c-0.4,0.7-0.4,1.3-0.2,1.8
		c0.2,0.4,0.4,0.6,0.7,0.8s0.7,0.3,1.1,0.3s0.8,0,1.2,0c0.4-0.1,1-0.2,1.9-0.3c1.1-0.2,2.1-0.4,3-0.5s1.8-0.1,2.5,0.1
		c0.7,0.1,1.4,0.5,2,0.9C348.3,492,348.8,492.7,349.2,493.6z"/>
	<path id="XMLID_77_" class="st8" d="M365.3,484.7c0.6,1,0.8,2.1,0.8,3.2c-0.1,1.1-0.5,2.2-1.2,3.2c-0.8,1-1.8,1.9-3.2,2.7
		c-1.7,0.9-3.2,1.4-4.6,1.4c-1,0-2-0.3-2.9-0.8s-1.6-1.1-2-1.8c-0.2-0.4-0.3-0.8-0.2-1.3c0.1-0.5,0.4-0.8,0.8-1.1
		c0.4-0.2,0.7-0.3,1.1-0.2c0.4,0.1,0.8,0.3,1.2,0.7c0.5,0.4,1,0.7,1.5,1c0.5,0.2,1,0.3,1.6,0.3s1.2-0.2,2-0.7c1-0.6,1.7-1.3,2.1-2.1
		c0.4-0.8,0.3-1.6,0-2.3c-0.3-0.6-0.7-0.9-1.3-1.1s-1.1-0.2-1.8-0.1s-1.5,0.3-2.5,0.6c-1.4,0.4-2.6,0.6-3.6,0.7s-2-0.1-2.8-0.5
		s-1.5-1.1-2.1-2c-0.5-0.9-0.7-1.9-0.6-2.9s0.5-2,1.3-2.9s1.8-1.8,3-2.5c1-0.6,2-1,2.9-1.1c0.9-0.2,1.7-0.2,2.5,0s1.4,0.4,1.8,0.7
		c0.5,0.3,0.9,0.7,1.1,1.2c0.2,0.4,0.3,0.9,0.2,1.3c-0.1,0.5-0.4,0.9-0.8,1.1s-0.7,0.3-1.1,0.2c-0.3-0.1-0.7-0.3-1.2-0.6
		c-0.7-0.5-1.3-0.8-1.9-0.9s-1.4,0.1-2.4,0.6c-0.9,0.5-1.5,1.1-1.8,1.8c-0.3,0.7-0.3,1.3,0,1.9c0.2,0.3,0.4,0.6,0.8,0.7
		c0.3,0.1,0.7,0.2,1.1,0.2s0.8-0.1,1.2-0.1c0.4-0.1,1-0.2,1.9-0.5c1.1-0.3,2.1-0.6,3-0.7c0.9-0.2,1.8-0.2,2.5-0.1
		c0.8,0.1,1.5,0.3,2.1,0.7C364.2,483.2,364.8,483.8,365.3,484.7z"/>
	<path id="XMLID_79_" class="st8" d="M367.5,466.5c1.6-1.1,3.3-1.8,4.9-2s3.2,0.2,4.7,1s2.8,2,3.9,3.7c0.9,1.2,1.5,2.5,1.8,3.7
		c0.4,1.2,0.5,2.4,0.3,3.6c-0.1,1.2-0.6,2.3-1.3,3.4c-0.7,1.1-1.7,2-2.9,2.9c-1.2,0.9-2.5,1.4-3.7,1.7c-1.3,0.3-2.5,0.3-3.6,0
		s-2.3-0.8-3.3-1.6s-2-1.8-2.8-3c-0.9-1.2-1.5-2.5-1.8-3.7c-0.4-1.3-0.5-2.5-0.3-3.7s0.6-2.3,1.3-3.3
		C365.3,468.3,366.2,467.3,367.5,466.5z M377.7,471.4c-0.8-1.2-1.7-2-2.7-2.6s-2-0.9-3-0.8s-2,0.4-2.9,1c-0.6,0.4-1.2,1-1.5,1.6
		c-0.4,0.6-0.6,1.3-0.7,2s0,1.5,0.3,2.4s0.7,1.8,1.3,2.7c0.6,0.9,1.3,1.6,2,2.2s1.5,0.9,2.2,1.1s1.5,0.2,2.2,0.1s1.4-0.4,2-0.9
		c0.8-0.6,1.4-1.3,1.8-2.2s0.5-1.9,0.3-3C379.1,473.9,378.6,472.7,377.7,471.4z"/>
	<path id="XMLID_82_" class="st8" d="M398.4,459.1c0.4,0.5,0.7,1.1,1,1.8c0.2,0.7,0.3,1.6,0.3,2.5s-0.3,1.9-0.8,2.9
		s-1.2,1.9-2.3,2.8c-0.8,0.7-1.5,1.2-2.3,1.6s-1.5,0.7-2.3,0.8s-1.6,0.1-2.5,0c-0.8-0.1-1.6-0.4-2.3-0.7c-0.8-0.3-1.5-0.8-2.2-1.3
		s-1.3-1.2-2-1.9c-1-1.2-1.7-2.4-2.2-3.6s-0.6-2.5-0.6-3.7c0.1-1.2,0.4-2.4,1-3.4c0.6-1.1,1.3-2,2.3-2.9c1.2-1,2.4-1.7,3.8-2
		c1.3-0.3,2.5-0.3,3.6-0.1c1.1,0.3,1.9,0.7,2.4,1.3c0.3,0.3,0.4,0.7,0.4,1.2s-0.2,0.8-0.5,1.1c-0.4,0.3-0.7,0.5-1.1,0.5
		c-0.3,0-0.8-0.1-1.4-0.4c-1-0.4-1.9-0.5-2.8-0.5c-0.8,0.1-1.6,0.5-2.4,1.1c-1.2,1-1.8,2.3-1.7,3.9c0.1,1.5,0.8,3.2,2.3,4.9
		c1,1.1,2,2,2.9,2.4c1,0.5,1.9,0.7,2.8,0.5c0.9-0.1,1.8-0.5,2.5-1.2c0.9-0.7,1.4-1.6,1.6-2.5s0.1-1.9-0.3-3
		c-0.2-0.5-0.3-0.9-0.3-1.3s0.2-0.8,0.6-1.1c0.4-0.3,0.8-0.4,1.2-0.4C397.7,458.5,398.1,458.7,398.4,459.1z"/>
	<path id="XMLID_84_" class="st8" d="M404,459.1l-10.7-10.9c-0.6-0.6-0.8-1.1-0.9-1.6c0-0.5,0.2-1,0.6-1.4s0.9-0.6,1.4-0.6
		s1.1,0.3,1.6,0.9l10.7,10.9c0.6,0.6,0.8,1.1,0.9,1.7c0,0.5-0.2,1-0.6,1.4s-0.9,0.6-1.4,0.5C405.1,460,404.6,459.7,404,459.1z"/>
	<path id="XMLID_86_" class="st8" d="M418.5,443.7l-2.4-0.9l-5.2,5.9l1.2,2.3c0.5,0.9,0.8,1.6,0.8,2c0.1,0.4-0.1,0.8-0.5,1.3
		c-0.3,0.4-0.8,0.6-1.3,0.6s-1-0.1-1.3-0.4c-0.2-0.2-0.4-0.4-0.5-0.6c-0.2-0.3-0.3-0.6-0.6-1.1l-6.1-12.1c-0.2-0.3-0.4-0.8-0.6-1.2
		c-0.2-0.5-0.4-0.9-0.5-1.3s-0.1-0.8,0-1.2c0.1-0.4,0.3-0.8,0.7-1.2c0.4-0.4,0.7-0.7,1.1-0.8s0.8-0.2,1.2-0.1s0.8,0.1,1.2,0.3
		c0.4,0.1,0.9,0.3,1.5,0.6l12.7,4.6c1,0.3,1.6,0.7,1.9,0.9c0.3,0.3,0.5,0.7,0.5,1.2s-0.1,1-0.5,1.4c-0.2,0.2-0.4,0.4-0.7,0.5
		c-0.2,0.1-0.5,0.1-0.7,0.1s-0.6-0.1-1-0.2C419.1,443.9,418.8,443.8,418.5,443.7z M409.3,445.9l3.9-4.3l-7.9-3.1L409.3,445.9z"/>
	<path id="XMLID_89_" class="st8" d="M418.5,421.3l-2.6,3.4l11.1,8.6c0.6,0.5,1,1,1.1,1.5s0,1-0.4,1.5s-0.8,0.7-1.3,0.8
		c-0.5,0-1.1-0.2-1.8-0.7l-11.1-8.6l-2.6,3.4c-0.4,0.5-0.8,0.8-1.3,0.9c-0.4,0.1-0.8,0-1.2-0.3c-0.4-0.3-0.6-0.7-0.6-1.1
		s0.2-0.9,0.6-1.4l7.6-9.9c0.4-0.5,0.8-0.8,1.3-0.9c0.4-0.1,0.8,0,1.2,0.3s0.6,0.7,0.6,1.1S418.9,420.7,418.5,421.3z"/>
	<path id="XMLID_91_" class="st8" d="M432.4,425.8l-12.6-8.6c-0.7-0.4-1-0.9-1.2-1.5c-0.1-0.5,0-1,0.3-1.5s0.8-0.8,1.3-0.9
		s1.1,0.1,1.8,0.6l12.6,8.6c0.7,0.5,1.1,0.9,1.2,1.5s0,1-0.3,1.5s-0.7,0.7-1.3,0.8C433.7,426.4,433.1,426.2,432.4,425.8z"/>
	<path id="XMLID_93_" class="st8" d="M426.6,402.3c1-1.7,2.2-3,3.7-3.8c1.4-0.8,3-1.2,4.6-1.1c1.7,0.1,3.4,0.7,5.1,1.7
		c1.3,0.8,2.4,1.6,3.2,2.6c0.8,1,1.5,2,1.8,3.2c0.4,1.2,0.5,2.4,0.3,3.6c-0.2,1.3-0.7,2.5-1.4,3.9c-0.8,1.3-1.7,2.3-2.7,3.1
		c-1,0.8-2.1,1.3-3.3,1.5c-1.2,0.2-2.4,0.2-3.7-0.1c-1.3-0.3-2.5-0.8-3.8-1.5c-1.3-0.8-2.3-1.6-3.2-2.6c-0.9-1-1.5-2.1-1.8-3.2
		s-0.4-2.3-0.2-3.6S425.8,403.5,426.6,402.3z M438,402.5c-1.2-0.7-2.4-1.1-3.5-1.3c-1.1-0.1-2.1,0-3,0.5s-1.6,1.2-2.2,2.1
		c-0.4,0.7-0.6,1.4-0.7,2.1s0,1.4,0.2,2.1s0.7,1.4,1.3,2.1c0.6,0.7,1.4,1.3,2.3,1.8c0.9,0.6,1.9,0.9,2.8,1.1s1.7,0.2,2.5,0.1
		s1.4-0.4,2-0.8s1.1-1,1.5-1.6c0.5-0.9,0.8-1.8,0.7-2.8s-0.3-1.9-1-2.9C440.3,404.1,439.3,403.3,438,402.5z"/>
	<path id="XMLID_96_" class="st8" d="M436.7,388.2l13.5-2l-10.4-4.8c-0.7-0.3-1.1-0.7-1.3-1.1c-0.2-0.4-0.2-0.9,0-1.4s0.6-0.8,1.1-1
		s1.1,0,1.7,0.3l13.8,6.4c1.5,0.7,2,1.7,1.4,3c-0.1,0.3-0.3,0.6-0.5,0.8c-0.2,0.2-0.5,0.4-0.8,0.5s-0.6,0.2-1,0.3
		c-0.4,0.1-0.7,0.1-1.1,0.2l-13.3,1.9l10.3,4.8c0.7,0.3,1.1,0.7,1.3,1.2c0.2,0.5,0.2,0.9,0,1.4s-0.6,0.8-1.1,1
		c-0.5,0.1-1.1,0.1-1.7-0.2l-13.5-6.3c-0.6-0.3-1-0.5-1.3-0.8s-0.5-0.7-0.5-1.2s0-0.9,0.2-1.3c0.1-0.3,0.3-0.6,0.5-0.7
		c0.2-0.2,0.4-0.3,0.7-0.4s0.6-0.2,0.9-0.2S436.4,388.3,436.7,388.2z"/>
</g>
<circle id="XMLID_10_" class="st7" cx="62.7" cy="343.8" r="8.6"/>
<circle id="XMLID_14_" class="st7" cx="449.9" cy="344.1" r="8.6"/>
<g id="XMLID_3_">
</g>
<g id="XMLID_24_">
</g>
<g id="XMLID_25_">
</g>
<g id="XMLID_26_">
</g>
<g id="XMLID_27_">
</g>
<g id="XMLID_28_">
</g>
</svg>
