<?xml version="1.0" encoding="utf-8"?>
<!-- Generator: Adobe Illustrator 19.0.0, SVG Export Plug-In . SVG Version: 6.00 Build 0)  -->
<svg version="1.1" id="Layer_1" xmlns="http://www.w3.org/2000/svg" xmlns:xlink="http://www.w3.org/1999/xlink" x="0px" y="0px"
	 viewBox="0 0 534.9 213.1" style="enable-background:new 0 0 534.9 213.1;" xml:space="preserve">
<style type="text/css">
	.st0{fill:#C51F41;}
	.st1{fill:#C5203E;}
</style>
<path id="XMLID_28_" d="M17.9,144.6h33c3,0,3.1-4.6,0-4.8c-14.9-6.5-17.2-32.9-18-61.7V38.6l33.9,112.6c8.7-11.3,17.1-22,27.1-23
	c4.2,0,4.4-3.8,0.8-4.5c-5.1-2.1-7.1-7.1-6.3-14.6v-40c0-22.6,5.3-45.4,12-47c4.4-0.7,4.3-5.3-0.1-5.5H72.1c-3.1,0.1-2.6,3.9,0,4.8
	C83,26.2,85.2,51.6,85.7,75.1v30.5l-21-73.8c-0.9-4-1.1-7.5-0.2-10.1c1.3-3,1.7-5.1-1.2-5.1H21.7c-3.3,0-3.5,5.6,0,5.6
	c5.7,0.7,8.7,6.9,8.4,15v62.1c-0.3,21.8-3.1,38.6-12.3,40.3C15.2,139.6,14.8,144.6,17.9,144.6z"/>
<path id="XMLID_36_" d="M243.7,74c37.4-6,32.1-57.1-1.4-57.1h-55.2c-3.4,0-3.9,5.5,0,5.3c5.3,0.3,7.4,3.6,7.1,9.3v94.1
	c0,8.9-1.4,13.9-6,13.9c-4.4,0-5.4,4.9,0,4.9h55.5C279.5,144.5,282.4,73.1,243.7,74z M239.7,88.6v43.2c0,4.4-3.5,7.9-7.9,7.9
	s-7.9-3.5-7.9-7.9V77.5h7.8C237.3,78.1,240,81.8,239.7,88.6z M231.7,72.8h-7.8V28.3c0-3.6,3.5-6.5,7.9-6.5s7.9,2.9,7.9,6.5v35.4
	C240,69.3,237.3,72.3,231.7,72.8z"/>
<path id="XMLID_31_" d="M155.5,74c37.4-6,32.1-57.1-1.4-57.1H98.9c-3.4,0-3.9,5.5,0,5.3c5.3,0.3,7.4,3.6,7.1,9.3v94.1
	c0,8.9-1.4,13.9-6,13.9c-4.4,0-5.4,4.9,0,4.9h55.5C191.2,144.5,194.1,73.1,155.5,74z M151.4,88.6v43.2c0,4.4-3.5,7.9-7.9,7.9
	s-7.9-3.5-7.9-7.9V77.5h7.8C149.1,78.1,151.8,81.8,151.4,88.6z M143.4,72.8h-7.8V28.3c0-3.6,3.5-6.5,7.9-6.5s7.9,2.9,7.9,6.5v35.4
	C151.8,69.3,149.1,72.3,143.4,72.8z"/>
<path id="XMLID_42_" d="M317.7,13.3c-23.5,0-42.6,29.7-42.6,66.3s19.1,66.3,42.6,66.3s42.6-29.7,42.6-66.3S341.2,13.3,317.7,13.3z
	 M326.5,133.6c0,5.1-4.1,9.3-9.3,9.3s-9.3-4.1-9.3-9.3V28.6c0-5.1,4.1-9.3,9.3-9.3s9.3,4.1,9.3,9.3V133.6z"/>
<path id="XMLID_38_" d="M304,157.6c-3.8-9.4,20.7-17.1,22.5,0c4.6,44.8,50.7,23.5,39.4-9.5c-1.1-2.7-3-2.2-2.6,0.7
	c0,14.3-6.8,14.7-16.7,4.5c-5.9-5.9-14.8-9-28.9-8.8c-18.4,0-26.1,17-18.9,29.5c4.2,9.4,17.3,7.7,20.2-5.7
	C321.4,158.9,311.2,148.1,304,157.6z"/>
<path id="XMLID_2_" class="st0" d="M482.5,145.3c1.7-8.8,10.4-15.4,22.7-21.8c23.6-13.4,15.4-35.2-8.9-50.7c2,16-5.5,34.5-18.4,54.2
	C469.8,136.4,471.9,142.3,482.5,145.3z"/>
<path id="XMLID_3_" class="st0" d="M460.9,142.5c-13.8-11.7-11.3-31.6,2.1-53.8c9.9-14.1,16.5-28.6,15.9-44.3
	c11.5,12.6,10.5,35.9,0,56.8C471.7,114.6,465.8,128.4,460.9,142.5z"/>
<path id="XMLID_4_" class="st0" d="M446.4,142.5c-23.7-31,62.3-117,11.8-129.2c22.9,21.6-44.1,53.9-35.6,76l6.8,45.8l10.3,7.4H446.4
	z"/>
<rect id="XMLID_8_" x="373.2" y="156.9" class="st1" width="116.4" height="13.4"/>
<rect id="XMLID_10_" x="17.7" y="156.9" class="st1" width="270.7" height="13.4"/>
<g id="XMLID_1_">
	<path id="XMLID_11_" d="M17.1,188.1h3.1l5.9,9.5h0v-9.5H29v14.1h-3.1l-5.9-9.5h0v9.5h-2.9V188.1z"/>
	<path id="XMLID_13_" d="M35.6,188.1h3.2l5.3,14.1h-3.2l-1.1-3.1h-5.3l-1.1,3.1h-3.1L35.6,188.1z M35.3,196.8H39l-1.8-5.2h0
		L35.3,196.8z"/>
	<path id="XMLID_39_" d="M47,190.7h-4.2v-2.6h11.6v2.6h-4.2v11.5H47V190.7z"/>
	<path id="XMLID_44_" d="M55.9,188.1H59v14.1h-3.1V188.1z"/>
	<path id="XMLID_46_" d="M68.1,187.8c4.4,0,7,3.3,7,7.5c0,4.1-2.6,7.3-7,7.3s-7-3.3-7-7.3C61.2,191.1,63.7,187.8,68.1,187.8z
		 M68.1,200c2.8,0,3.8-2.4,3.8-4.7c0-2.5-1-4.9-3.8-4.9c-2.8,0-3.8,2.4-3.8,4.9C64.3,197.6,65.3,200,68.1,200z"/>
	<path id="XMLID_49_" d="M77.2,188.1h3.1l5.9,9.5h0v-9.5h2.9v14.1H86l-5.9-9.5h0v9.5h-2.9V188.1z"/>
	<path id="XMLID_51_" d="M95.7,188.1h3.2l5.3,14.1H101l-1.1-3.1h-5.3l-1.1,3.1h-3.1L95.7,188.1z M95.4,196.8h3.7l-1.8-5.2h0
		L95.4,196.8z"/>
	<path id="XMLID_54_" d="M105.4,188.1h3.1v11.5h6.9v2.6h-10V188.1z"/>
	<path id="XMLID_56_" d="M122.7,188.1h6.7c2.7,0,4.5,0.9,4.5,3.5c0,1.4-0.7,2.4-1.9,3c1.7,0.5,2.6,1.8,2.6,3.6c0,2.9-2.4,4.1-5,4.1
		h-6.9V188.1z M125.8,193.9h3.1c1.1,0,1.9-0.5,1.9-1.7c0-1.3-1-1.6-2.1-1.6h-2.9V193.9z M125.8,199.9h3.3c1.2,0,2.3-0.4,2.3-1.9
		c0-1.4-0.9-2-2.2-2h-3.4V199.9z"/>
	<path id="XMLID_60_" d="M140.5,188.1h3.2l5.3,14.1h-3.2l-1.1-3.1h-5.3l-1.1,3.1h-3.1L140.5,188.1z M140.2,196.8h3.7l-1.8-5.2h0
		L140.2,196.8z"/>
	<path id="XMLID_63_" d="M150.2,188.1h7.6c2.5,0,4.1,1.8,4.1,3.9c0,1.7-0.7,2.9-2.2,3.5v0c1.5,0.4,2,1.9,2.1,3.3
		c0.1,0.9,0,2.6,0.6,3.3h-3.1c-0.4-0.9-0.3-2.3-0.5-3.4c-0.2-1.5-0.8-2.1-2.4-2.1h-3.1v5.5h-3.1V188.1z M153.3,194.5h3.4
		c1.4,0,2.1-0.6,2.1-2c0-1.4-0.8-2-2.1-2h-3.4V194.5z"/>
	<path id="XMLID_66_" d="M164.5,188.1h6.7c2.7,0,4.5,0.9,4.5,3.5c0,1.4-0.7,2.4-1.9,3c1.7,0.5,2.6,1.8,2.6,3.6c0,2.9-2.4,4.1-5,4.1
		h-6.9V188.1z M167.6,193.9h3.1c1.1,0,1.9-0.5,1.9-1.7c0-1.3-1-1.6-2.1-1.6h-2.9V193.9z M167.6,199.9h3.3c1.2,0,2.3-0.4,2.3-1.9
		c0-1.4-0.9-2-2.2-2h-3.4V199.9z"/>
	<path id="XMLID_70_" d="M178.4,188.1H189v2.6h-7.5v3h6.9v2.4h-6.9v3.5h7.6v2.6h-10.7V188.1z"/>
	<path id="XMLID_72_" d="M200.7,192.9c-0.2-1.4-1.5-2.5-3.1-2.5c-2.8,0-3.8,2.4-3.8,4.9c0,2.4,1,4.7,3.8,4.7c1.9,0,3-1.3,3.2-3.2h3
		c-0.3,3.5-2.8,5.8-6.2,5.8c-4.4,0-7-3.3-7-7.3c0-4.2,2.6-7.5,7-7.5c3.1,0,5.7,1.8,6.1,5.1H200.7z"/>
	<path id="XMLID_74_" d="M217.9,196.9c0,3.8-2.3,5.7-6,5.7c-3.8,0-6-1.8-6-5.7v-8.8h3.1v8.8c0,1.5,0.4,3.1,2.9,3.1
		c2.2,0,2.9-1,2.9-3.1v-8.8h3.1V196.9z"/>
	<path id="XMLID_76_" d="M220.6,188.1h10.6v2.6h-7.5v3h6.9v2.4h-6.9v3.5h7.6v2.6h-10.7V188.1z"/>
	<path id="XMLID_78_" d="M246.7,200.9c-1.1,1.1-2.4,1.7-4,1.7c-2.6,0-4.6-1.6-4.6-4.2c0-2,1.5-3.3,3.2-4.1c-0.8-0.9-1.3-1.8-1.3-3
		c0-2,1.8-3.2,3.7-3.2c2.1,0,3.9,1.1,3.9,3.4c0,1.6-1.1,2.8-2.5,3.5l1.8,2.2c0.3-0.5,0.4-1.1,0.5-1.7h2.4c-0.1,1.3-0.6,2.5-1.4,3.5
		l2.9,3.3h-3.4L246.7,200.9z M242.8,196c-1,0.4-2,1.2-2,2.3c0,1,1,1.9,2,1.9c1,0,1.7-0.5,2.4-1.2L242.8,196z M243.8,189.9
		c-0.7,0-1.3,0.5-1.3,1.2c0,0.9,0.6,1.5,1.1,2.1c0.8-0.5,1.4-1,1.4-2C245.1,190.5,244.5,189.9,243.8,189.9z"/>
	<path id="XMLID_82_" d="M268.2,200.7c-1.1,1.4-2.5,1.9-3.9,1.9c-4.4,0-7-3.3-7-7.3c0-4.2,2.6-7.5,7-7.5c2.9,0,5.6,1.8,6,5h-3
		c-0.4-1.6-1.5-2.4-3-2.4c-2.8,0-3.8,2.4-3.8,4.9c0,2.4,1,4.7,3.8,4.7c2,0,3.2-1.1,3.4-3.1h-3.1v-2.3h5.9v7.6h-2L268.2,200.7z"/>
	<path id="XMLID_84_" d="M273,188.1h7.6c2.5,0,4.1,1.8,4.1,3.9c0,1.7-0.7,2.9-2.2,3.5v0c1.5,0.4,2,1.9,2.1,3.3
		c0.1,0.9,0,2.6,0.6,3.3h-3.1c-0.4-0.9-0.3-2.3-0.5-3.4c-0.2-1.5-0.8-2.1-2.4-2.1h-3.1v5.5H273V188.1z M276.1,194.5h3.4
		c1.4,0,2.1-0.6,2.1-2c0-1.4-0.8-2-2.1-2h-3.4V194.5z"/>
	<path id="XMLID_87_" d="M287.3,188.1h3.1v14.1h-3.1V188.1z"/>
	<path id="XMLID_89_" d="M293.2,188.1h3.1v11.5h6.9v2.6h-10V188.1z"/>
	<path id="XMLID_91_" d="M304.9,188.1h3.1v11.5h6.9v2.6h-10V188.1z"/>
	<path id="XMLID_93_" d="M316.6,188.1h3.1v14.1h-3.1V188.1z"/>
	<path id="XMLID_95_" d="M322.5,188.1h3.1l5.9,9.5h0v-9.5h2.9v14.1h-3.1l-5.9-9.5h0v9.5h-2.9V188.1z"/>
	<path id="XMLID_97_" d="M347.4,200.7c-1.1,1.4-2.5,1.9-3.9,1.9c-4.4,0-7-3.3-7-7.3c0-4.2,2.6-7.5,7-7.5c2.9,0,5.6,1.8,6,5h-3
		c-0.4-1.6-1.5-2.4-3-2.4c-2.8,0-3.8,2.4-3.8,4.9c0,2.4,1,4.7,3.8,4.7c2,0,3.2-1.1,3.4-3.1h-3.1v-2.3h5.9v7.6h-2L347.4,200.7z"/>
	<path id="XMLID_99_" d="M361.5,188.1h3.2l5.3,14.1h-3.2l-1.1-3.1h-5.3l-1.1,3.1h-3.1L361.5,188.1z M361.3,196.8h3.7l-1.8-5.2h0
		L361.3,196.8z"/>
	<path id="XMLID_102_" d="M373.4,197.6c0,1.9,1.5,2.6,3.1,2.6c1.1,0,2.8-0.3,2.8-1.8c0-1.5-2.1-1.8-4.2-2.3c-2.1-0.6-4.2-1.4-4.2-4
		c0-2.9,2.7-4.3,5.3-4.3c3,0,5.7,1.3,5.7,4.6h-3c-0.1-1.7-1.3-2.1-2.8-2.1c-1,0-2.1,0.4-2.1,1.6c0,1.1,0.7,1.2,4.2,2.1
		c1,0.3,4.2,0.9,4.2,4.1c0,2.6-2,4.5-5.9,4.5c-3.1,0-6.1-1.5-6-5H373.4z"/>
	<path id="XMLID_104_" d="M386.2,197.6c0,1.9,1.5,2.6,3.1,2.6c1.1,0,2.8-0.3,2.8-1.8c0-1.5-2.1-1.8-4.2-2.3c-2.1-0.6-4.2-1.4-4.2-4
		c0-2.9,2.7-4.3,5.3-4.3c3,0,5.7,1.3,5.7,4.6h-3c-0.1-1.7-1.3-2.1-2.8-2.1c-1,0-2.1,0.4-2.1,1.6c0,1.1,0.7,1.2,4.2,2.1
		c1,0.3,4.2,0.9,4.2,4.1c0,2.6-2,4.5-5.9,4.5c-3.1,0-6.1-1.5-6-5H386.2z"/>
	<path id="XMLID_106_" d="M403.3,187.8c4.4,0,7,3.3,7,7.5c0,4.1-2.6,7.3-7,7.3c-4.4,0-7-3.3-7-7.3
		C396.3,191.1,398.9,187.8,403.3,187.8z M403.3,200c2.8,0,3.8-2.4,3.8-4.7c0-2.5-1-4.9-3.8-4.9c-2.8,0-3.8,2.4-3.8,4.9
		C399.4,197.6,400.5,200,403.3,200z"/>
	<path id="XMLID_109_" d="M421.8,192.9c-0.2-1.4-1.5-2.5-3.1-2.5c-2.8,0-3.8,2.4-3.8,4.9c0,2.4,1,4.7,3.8,4.7c1.9,0,3-1.3,3.2-3.2h3
		c-0.3,3.5-2.8,5.8-6.2,5.8c-4.4,0-7-3.3-7-7.3c0-4.2,2.6-7.5,7-7.5c3.1,0,5.7,1.8,6.1,5.1H421.8z"/>
	<path id="XMLID_111_" d="M427,188.1h3.1v14.1H427V188.1z"/>
	<path id="XMLID_113_" d="M436.7,188.1h3.2l5.3,14.1H442l-1.1-3.1h-5.3l-1.1,3.1h-3.1L436.7,188.1z M436.4,196.8h3.7l-1.8-5.2h0
		L436.4,196.8z"/>
	<path id="XMLID_116_" d="M448.1,190.7h-4.2v-2.6h11.6v2.6h-4.2v11.5h-3.1V190.7z"/>
	<path id="XMLID_118_" d="M457.1,188.1h3.1v14.1h-3.1V188.1z"/>
	<path id="XMLID_120_" d="M469.2,187.8c4.4,0,7,3.3,7,7.5c0,4.1-2.6,7.3-7,7.3c-4.4,0-7-3.3-7-7.3
		C462.3,191.1,464.9,187.8,469.2,187.8z M469.2,200c2.8,0,3.8-2.4,3.8-4.7c0-2.5-1-4.9-3.8-4.9c-2.8,0-3.8,2.4-3.8,4.9
		C465.4,197.6,466.5,200,469.2,200z"/>
	<path id="XMLID_123_" d="M478.3,188.1h3.1l5.9,9.5h0v-9.5h2.9v14.1h-3.1l-5.9-9.5h0v9.5h-2.9V188.1z"/>
</g>
<path id="XMLID_7_" d="M445.2,139c-3.8,0-6.3-4.7-8-14.2L411.2,6.5c-9.7,12.6-19.6,21-29.6,20.5c-1.5-0.1-2.3,1.7-1.4,2.8l4.2,5
	c3.3,3.7,2.7,8.9,1.4,14.4l-15.1,69.1c-2.6,9.9-6.6,18.5-12.2,21.2l-1.6,0.6c-2.4,0.9-1.7,4.4,0.8,4.4l32.8-0.2c3-0.6,2.8-3.7,0-4.6
	c-9.2-4.8-12.4-24.4-9.3-43h18.9l5.2,22.4c2.8,13.7,0.6,20.3-6,20.6c-2.4,0.6-3.3,4.9,0,4.9h45.9C449.3,144.6,449.2,138.9,445.2,139
	z M381.6,91.1l8.4-42.9l9.4,42.9H381.6z"/>
<g id="XMLID_9_">
</g>
<g id="XMLID_125_">
</g>
<g id="XMLID_126_">
</g>
<g id="XMLID_127_">
</g>
<g id="XMLID_128_">
</g>
<g id="XMLID_129_">
</g>
</svg>
