<?xml version="1.0" encoding="utf-8"?>
<!-- Generator: Adobe Illustrator 19.0.0, SVG Export Plug-In . SVG Version: 6.00 Build 0)  -->
<svg version="1.1" id="Layer_1" xmlns="http://www.w3.org/2000/svg" xmlns:xlink="http://www.w3.org/1999/xlink" x="0px" y="0px"
	 viewBox="0 0 540.8 546.6" style="enable-background:new 0 0 540.8 546.6;" xml:space="preserve">
<style type="text/css">
	.st0{fill:url(#XMLID_30_);}
	.st1{fill:none;stroke:#E31E26;stroke-width:12.3164;stroke-miterlimit:10;}
	.st2{fill:#FFFFFF;}
	.st3{fill:none;stroke:#FFFFFF;stroke-width:25.5118;}
	.st4{fill:url(#XMLID_31_);}
	.st5{fill:url(#XMLID_32_);}
	.st6{fill:url(#XMLID_33_);}
	.st7{fill:#DE1F26;}
	.st8{fill:#715953;}
</style>
<radialGradient id="XMLID_30_" cx="270.41" cy="271.7852" r="158.1862" gradientUnits="userSpaceOnUse">
	<stop  offset="0" style="stop-color:#B8A6A1"/>
	<stop  offset="0.5282" style="stop-color:#9F8D8A"/>
	<stop  offset="0.9949" style="stop-color:#6E5B57"/>
</radialGradient>
<circle id="XMLID_5_" class="st0" cx="270.4" cy="271.8" r="158.2"/>
<ellipse id="XMLID_1_" class="st1" cx="269.3" cy="272.4" rx="265" ry="265.8"/>
<g id="XMLID_6_">
	<path id="XMLID_7_" class="st2" d="M334.1,213.1c-2.5-17.5-15.4-35.3-34.9-50.7c6,25.3,10.6,46.4,6.1,60.2L334.1,213.1z"/>
	<g id="XMLID_4_">
		<g id="XMLID_152_">
			<path id="XMLID_155_" d="M218.1,430c-1.6-0.2-3.2-0.4-4.8-0.6c-17.7-2.9-33.5-9.8-46.5-22.5c-9-8.8-15.9-19.1-21-30.5
				c-6-13.5-9.3-27.7-10.4-42.5c-0.8-12.4,2.6-23.9,7.9-34.9c5.9-12.2,13.7-23.1,22.2-33.6c11.1-13.6,23.4-26,35.8-38.4
				c13.3-13.3,26.8-26.4,39.9-39.8c9.4-9.6,18.3-19.7,25.7-31.1c4.4-6.8,8.2-14,10.2-22c2-8.2,1.8-16.2-1.6-24.1
				c-0.2-0.4-0.3-0.8-0.6-1.9c1.2,0.8,2,1.2,2.6,1.8c12.6,11,19.3,24.7,18.7,41.6c-0.5,12.7-3.3,25-7.2,37
				c-5,15.6-11.5,30.5-18.7,45.1c-10.6,21.4-21.4,42.6-32,64c-8.4,17-15.9,34.4-21.3,52.7c-3.8,12.9-6.4,26.1-6.6,39.7
				c-0.2,12.7,1.8,25,6.7,36.7c0.3,0.8,0.6,1.5,0.9,2.3C218.2,429.3,218.1,429.5,218.1,430z"/>
			<path id="XMLID_154_" d="M263.2,435.4c-0.6-1-0.9-1.4-1.2-1.9c-9.3-12.4-15-26.1-15.7-41.7c-0.5-12,2-23.4,6.2-34.5
				c5.5-14.4,13.3-27.7,21.2-40.9c8.2-13.7,16.4-27.3,24.2-41.2c6.9-12.3,12.6-25.2,16.7-38.7c2.2-7.3,4-14.7,4.9-22.3
				c0.1-0.7,0.4-1.3,0.7-2.5c2.5,4.5,4.1,8.8,5.5,13.2c3.1,9.6,3.6,19.5,3.9,29.5c0.4,14.7-3,28.7-7.3,42.5
				c-5.4,17.4-12.1,34.4-19.2,51.2c-11.9,28.1-24.7,55.7-37.7,83.3C264.8,432.3,264.2,433.5,263.2,435.4z"/>
			<path id="XMLID_153_" d="M324.1,433.4c-1.1-1.2-2-2.1-2.8-3c-2.4-2.9-4.9-5.7-7-8.9c-2.4-3.7-3.9-7.9-3.8-12.5
				c0.1-2.2,0.6-4.2,2.1-5.8c3.9-4.3,7.9-8.5,11.6-13c11.2-13.5,22.8-26.6,31.9-41.7c8-13.4,14.1-27.5,16.7-43
				c1.5-9.1,2.4-18.3,1.6-27.5c-0.6-6.9-1.2-13.8-1.8-20.6c-0.1-1-0.1-2-0.2-3.4c0.8,0.5,1.3,0.7,1.7,1.1
				c14,12.9,26.1,27.5,36.4,43.5c11.2,17.3,9.9,44.2-3.8,61c-5.6,6.9-11.9,12.8-19.1,17.9c-8.8,6.1-17.8,11.9-26.7,17.7
				c-8.2,5.4-16.6,10.7-23.6,17.7c-2.8,2.7-5.3,5.7-7.7,8.7c-2.4,2.9-4.1,6.4-4.9,10.1C324.6,432,324.4,432.5,324.1,433.4z"/>
		</g>
		<g id="XMLID_148_">
			<path id="XMLID_151_" class="st3" d="M218.1,430c-1.6-0.2-3.2-0.4-4.8-0.6c-17.7-2.9-33.5-9.8-46.5-22.5
				c-9-8.8-15.9-19.1-21-30.5c-6-13.5-9.3-27.7-10.4-42.5c-0.8-12.4,2.6-23.9,7.9-34.9c5.9-12.2,13.7-23.1,22.2-33.6
				c11.1-13.6,23.4-26,35.8-38.4c13.3-13.3,26.8-26.4,39.9-39.8c9.4-9.6,18.3-19.7,25.7-31.1c4.4-6.8,8.2-14,10.2-22
				c2-8.2,1.8-16.2-1.6-24.1c-0.2-0.4-0.3-0.8-0.6-1.9c1.2,0.8,2,1.2,2.6,1.8c12.6,11,19.3,24.7,18.7,41.6c-0.5,12.7-3.3,25-7.2,37
				c-5,15.6-11.5,30.5-18.7,45.1c-10.6,21.4-21.4,42.6-32,64c-8.4,17-15.9,34.4-21.3,52.7c-3.8,12.9-6.4,26.1-6.6,39.7
				c-0.2,12.7,1.8,25,6.7,36.7c0.3,0.8,0.6,1.5,0.9,2.3C218.2,429.3,218.1,429.5,218.1,430z"/>
			<path id="XMLID_150_" class="st3" d="M263.2,435.4c-0.6-1-0.9-1.4-1.2-1.9c-9.3-12.4-15-26.1-15.7-41.7c-0.5-12,2-23.4,6.2-34.5
				c5.5-14.4,13.3-27.7,21.2-40.9c8.2-13.7,16.4-27.3,24.2-41.2c6.9-12.3,12.6-25.2,16.7-38.7c2.2-7.3,4-14.7,4.9-22.3
				c0.1-0.7,0.4-1.3,0.7-2.5c2.5,4.5,4.1,8.8,5.5,13.2c3.1,9.6,3.6,19.5,3.9,29.5c0.4,14.7-3,28.7-7.3,42.5
				c-5.4,17.4-12.1,34.4-19.2,51.2c-11.9,28.1-24.7,55.7-37.7,83.3C264.8,432.3,264.2,433.5,263.2,435.4z"/>
			<path id="XMLID_149_" class="st3" d="M324.1,433.4c-1.1-1.2-2-2.1-2.8-3c-2.4-2.9-4.9-5.7-7-8.9c-2.4-3.7-3.9-7.9-3.8-12.5
				c0.1-2.2,0.6-4.2,2.1-5.8c3.9-4.3,7.9-8.5,11.6-13c11.2-13.5,22.8-26.6,31.9-41.7c8-13.4,14.1-27.5,16.7-43
				c1.5-9.1,2.4-18.3,1.6-27.5c-0.6-6.9-1.2-13.8-1.8-20.6c-0.1-1-0.1-2-0.2-3.4c0.8,0.5,1.3,0.7,1.7,1.1
				c14,12.9,26.1,27.5,36.4,43.5c11.2,17.3,9.9,44.2-3.8,61c-5.6,6.9-11.9,12.8-19.1,17.9c-8.8,6.1-17.8,11.9-26.7,17.7
				c-8.2,5.4-16.6,10.7-23.6,17.7c-2.8,2.7-5.3,5.7-7.7,8.7c-2.4,2.9-4.1,6.4-4.9,10.1C324.6,432,324.4,432.5,324.1,433.4z"/>
		</g>
		<g id="XMLID_8_">
			<linearGradient id="XMLID_31_" gradientUnits="userSpaceOnUse" x1="137.7384" y1="377.8656" x2="341.6879" y2="173.9161">
				<stop  offset="0" style="stop-color:#910D11"/>
				<stop  offset="0.5282" style="stop-color:#ED1C24"/>
				<stop  offset="0.9949" style="stop-color:#910D11"/>
			</linearGradient>
			<path id="XMLID_12_" class="st4" d="M218.1,430c-1.6-0.2-3.2-0.4-4.8-0.6c-17.7-2.9-33.5-9.8-46.5-22.5c-9-8.8-15.9-19.1-21-30.5
				c-6-13.5-9.3-27.7-10.4-42.5c-0.8-12.4,2.6-23.9,7.9-34.9c5.9-12.2,13.7-23.1,22.2-33.6c11.1-13.6,23.4-26,35.8-38.4
				c13.3-13.3,26.8-26.4,39.9-39.8c9.4-9.6,18.3-19.7,25.7-31.1c4.4-6.8,8.2-14,10.2-22c2-8.2,1.8-16.2-1.6-24.1
				c-0.2-0.4-0.3-0.8-0.6-1.9c1.2,0.8,2,1.2,2.6,1.8c12.6,11,19.3,24.7,18.7,41.6c-0.5,12.7-3.3,25-7.2,37
				c-5,15.6-11.5,30.5-18.7,45.1c-10.6,21.4-21.4,42.6-32,64c-8.4,17-15.9,34.4-21.3,52.7c-3.8,12.9-6.4,26.1-6.6,39.7
				c-0.2,12.7,1.8,25,6.7,36.7c0.3,0.8,0.6,1.5,0.9,2.3C218.2,429.3,218.1,429.5,218.1,430z"/>
			<linearGradient id="XMLID_32_" gradientUnits="userSpaceOnUse" x1="187.5517" y1="427.6789" x2="391.5012" y2="223.7294">
				<stop  offset="0" style="stop-color:#910D11"/>
				<stop  offset="0.5282" style="stop-color:#ED1C24"/>
				<stop  offset="0.9949" style="stop-color:#910D11"/>
			</linearGradient>
			<path id="XMLID_11_" class="st5" d="M263.2,435.4c-0.6-1-0.9-1.4-1.2-1.9c-9.3-12.4-15-26.1-15.7-41.7c-0.5-12,2-23.4,6.2-34.5
				c5.5-14.4,13.3-27.7,21.2-40.9c8.2-13.7,16.4-27.3,24.2-41.2c6.9-12.3,12.6-25.2,16.7-38.7c2.2-7.3,4-14.7,4.9-22.3
				c0.1-0.7,0.4-1.3,0.7-2.5c2.5,4.5,4.1,8.8,5.5,13.2c3.1,9.6,3.6,19.5,3.9,29.5c0.4,14.7-3,28.7-7.3,42.5
				c-5.4,17.4-12.1,34.4-19.2,51.2c-11.9,28.1-24.7,55.7-37.7,83.3C264.8,432.3,264.2,433.5,263.2,435.4z"/>
			<linearGradient id="XMLID_33_" gradientUnits="userSpaceOnUse" x1="228.2903" y1="468.4175" x2="432.2398" y2="264.468">
				<stop  offset="0" style="stop-color:#910D11"/>
				<stop  offset="0.5282" style="stop-color:#ED1C24"/>
				<stop  offset="0.9949" style="stop-color:#910D11"/>
			</linearGradient>
			<path id="XMLID_9_" class="st6" d="M324.1,433.4c-1.1-1.2-2-2.1-2.8-3c-2.4-2.9-4.9-5.7-7-8.9c-2.4-3.7-3.9-7.9-3.8-12.5
				c0.1-2.2,0.6-4.2,2.1-5.8c3.9-4.3,7.9-8.5,11.6-13c11.2-13.5,22.8-26.6,31.9-41.7c8-13.4,14.1-27.5,16.7-43
				c1.5-9.1,2.4-18.3,1.6-27.5c-0.6-6.9-1.2-13.8-1.8-20.6c-0.1-1-0.1-2-0.2-3.4c0.8,0.5,1.3,0.7,1.7,1.1
				c14,12.9,26.1,27.5,36.4,43.5c11.2,17.3,9.9,44.2-3.8,61c-5.6,6.9-11.9,12.8-19.1,17.9c-8.8,6.1-17.8,11.9-26.7,17.7
				c-8.2,5.4-16.6,10.7-23.6,17.7c-2.8,2.7-5.3,5.7-7.7,8.7c-2.4,2.9-4.1,6.4-4.9,10.1C324.6,432,324.4,432.5,324.1,433.4z"/>
		</g>
	</g>
	<path id="XMLID_15_" class="st2" d="M393.8,256.5c-9.1-10.9-21.2-19.6-35.8-26.7l1.8,23.5l10-7.8l17.5,13.3L393.8,256.5z"/>
</g>
<g id="XMLID_138_">
	<path id="XMLID_139_" class="st7" d="M236.7,463.2h8c0.8,0,1.4,0.2,1.8,0.5s0.6,0.8,0.6,1.3c0,0.5-0.2,0.9-0.5,1.3
		c-0.3,0.3-0.8,0.5-1.5,0.5h-11.2c-0.8,0-1.4-0.2-1.8-0.6c-0.4-0.4-0.6-0.9-0.6-1.5c0-0.4,0.1-0.9,0.4-1.5c0.3-0.6,0.6-1.1,0.9-1.4
		c1.4-1.4,2.6-2.6,3.7-3.6c1.1-1,1.9-1.7,2.3-2c0.8-0.6,1.5-1.2,2.1-1.8c0.6-0.6,1-1.2,1.3-1.8c0.3-0.6,0.4-1.2,0.4-1.8
		c0-0.7-0.2-1.2-0.5-1.7c-0.3-0.5-0.7-0.9-1.3-1.2c-0.5-0.3-1.1-0.4-1.7-0.4c-1.3,0-2.4,0.6-3.1,1.8c-0.1,0.2-0.3,0.6-0.5,1.3
		c-0.2,0.7-0.5,1.2-0.8,1.6c-0.3,0.4-0.7,0.5-1.3,0.5c-0.5,0-0.9-0.2-1.3-0.5c-0.3-0.3-0.5-0.8-0.5-1.4c0-0.7,0.2-1.4,0.5-2.2
		c0.3-0.8,0.8-1.5,1.4-2.1c0.6-0.6,1.4-1.1,2.4-1.5c1-0.4,2.1-0.6,3.4-0.6c1.6,0,2.9,0.2,4,0.7c0.7,0.3,1.3,0.8,1.9,1.3
		c0.5,0.6,1,1.2,1.3,2c0.3,0.7,0.4,1.5,0.4,2.3c0,1.3-0.3,2.4-0.9,3.4c-0.6,1-1.3,1.8-1.9,2.4c-0.7,0.6-1.7,1.5-3.3,2.8
		s-2.6,2.2-3.1,2.9C237.2,462.5,237,462.8,236.7,463.2z"/>
	<path id="XMLID_141_" class="st7" d="M265.4,455.8c0,1.7-0.1,3.1-0.3,4.3c-0.2,1.2-0.6,2.3-1.1,3.3c-0.7,1.2-1.6,2.1-2.7,2.8
		s-2.3,1-3.7,1c-1.5,0-2.9-0.4-4.2-1.3c-1.2-0.9-2.1-2.1-2.8-3.6c-0.3-0.8-0.5-1.8-0.7-2.8c-0.1-1-0.2-2.1-0.2-3.3
		c0-1.5,0.1-2.9,0.2-4.1c0.2-1.2,0.4-2.3,0.8-3.2c0.6-1.5,1.5-2.6,2.6-3.3s2.5-1.2,4.1-1.2c1,0,2,0.2,2.9,0.5s1.6,0.8,2.2,1.5
		s1.2,1.5,1.6,2.4C265,450.4,265.4,452.8,265.4,455.8z M261.2,455.5c0-1.9-0.1-3.4-0.3-4.6c-0.2-1.2-0.6-2.1-1.1-2.7
		c-0.5-0.6-1.3-0.9-2.2-0.9c-1.3,0-2.3,0.7-2.8,2s-0.8,3.4-0.8,6.3c0,1.9,0.1,3.5,0.3,4.7c0.2,1.2,0.6,2.1,1.1,2.8
		c0.5,0.6,1.2,0.9,2.1,0.9c0.9,0,1.7-0.3,2.2-1c0.5-0.7,0.9-1.6,1.1-2.8C261.1,459.1,261.2,457.5,261.2,455.5z"/>
	<path id="XMLID_144_" class="st7" d="M275.7,464.7v-13.9c-2.6,2-4.3,3-5.2,3c-0.4,0-0.8-0.2-1.1-0.5c-0.3-0.3-0.5-0.7-0.5-1.2
		c0-0.5,0.2-0.9,0.5-1.1c0.3-0.2,0.9-0.6,1.7-0.9c1.2-0.6,2.2-1.2,2.9-1.8c0.7-0.6,1.4-1.4,2-2.1c0.6-0.8,0.9-1.3,1.1-1.5
		c0.2-0.2,0.5-0.3,1-0.3c0.5,0,1,0.2,1.3,0.6c0.3,0.4,0.5,1,0.5,1.7v17.5c0,2-0.7,3.1-2.1,3.1c-0.6,0-1.1-0.2-1.5-0.6
		C275.8,466.1,275.7,465.5,275.7,464.7z"/>
	<path id="XMLID_146_" class="st7" d="M292.4,463.2h8c0.8,0,1.4,0.2,1.8,0.5c0.4,0.3,0.6,0.8,0.6,1.3c0,0.5-0.2,0.9-0.5,1.3
		c-0.3,0.3-0.8,0.5-1.5,0.5h-11.2c-0.8,0-1.4-0.2-1.8-0.6s-0.6-0.9-0.6-1.5c0-0.4,0.1-0.9,0.4-1.5c0.3-0.6,0.6-1.1,0.9-1.4
		c1.4-1.4,2.6-2.6,3.7-3.6c1.1-1,1.9-1.7,2.3-2c0.8-0.6,1.5-1.2,2.1-1.8c0.6-0.6,1-1.2,1.3-1.8c0.3-0.6,0.4-1.2,0.4-1.8
		c0-0.7-0.2-1.2-0.5-1.7c-0.3-0.5-0.7-0.9-1.3-1.2c-0.5-0.3-1.1-0.4-1.7-0.4c-1.3,0-2.4,0.6-3.1,1.8c-0.1,0.2-0.3,0.6-0.5,1.3
		c-0.2,0.7-0.5,1.2-0.8,1.6c-0.3,0.4-0.7,0.5-1.3,0.5c-0.5,0-0.9-0.2-1.3-0.5c-0.3-0.3-0.5-0.8-0.5-1.4c0-0.7,0.2-1.4,0.5-2.2
		c0.3-0.8,0.8-1.5,1.4-2.1c0.6-0.6,1.4-1.1,2.4-1.5c1-0.4,2.1-0.6,3.4-0.6c1.6,0,2.9,0.2,4,0.7c0.7,0.3,1.3,0.8,1.9,1.3
		c0.5,0.6,1,1.2,1.3,2s0.4,1.5,0.4,2.3c0,1.3-0.3,2.4-0.9,3.4c-0.6,1-1.3,1.8-1.9,2.4c-0.7,0.6-1.7,1.5-3.3,2.8
		c-1.5,1.3-2.6,2.2-3.1,2.9C292.9,462.5,292.6,462.8,292.4,463.2z"/>
</g>
<g id="XMLID_98_">
	<path id="XMLID_99_" class="st7" d="M78.6,264.8l-5.1,1.8l-0.4,16.3l5.1,2c2,0.8,3.3,1.5,4,2c0.7,0.5,1,1.4,1,2.6
		c0,1-0.4,1.9-1.2,2.7c-0.8,0.8-1.6,1.1-2.6,1.1c-0.5,0-1.1-0.1-1.7-0.3c-0.6-0.2-1.4-0.5-2.4-1l-25.8-10.9
		c-0.7-0.3-1.6-0.7-2.7-1.1c-1-0.4-1.9-0.9-2.6-1.4c-0.7-0.5-1.2-1.1-1.6-1.9c-0.4-0.8-0.6-1.7-0.6-2.8c0-1.1,0.3-2.1,0.7-2.8
		c0.4-0.7,1-1.3,1.7-1.8c0.7-0.4,1.4-0.8,2.2-1.1c0.8-0.3,1.8-0.7,3.1-1.1l26.1-9.8c2-0.8,3.4-1.1,4.3-1.1c0.9,0,1.8,0.4,2.5,1.2
		c0.8,0.8,1.1,1.7,1.1,2.8c0,0.6-0.1,1.2-0.4,1.6c-0.2,0.5-0.6,0.8-1,1.1c-0.4,0.3-1,0.6-1.8,1C79.9,264.2,79.2,264.5,78.6,264.8z
		 M67,280.6l0.3-12l-16.7,5.6L67,280.6z"/>
	<path id="XMLID_102_" class="st7" d="M83.5,225.2L58.7,226l21.9,11.9c1.7,0.9,2.8,1.6,3.5,2.1c0.7,0.5,1.3,1.1,1.7,2
		c0.4,0.9,0.5,1.9,0.2,3.1c-0.2,1-0.6,1.7-1.1,2.3c-0.5,0.5-1.1,0.9-1.9,1.2c-0.8,0.2-1.6,0.4-2.6,0.4c-1,0-1.9,0.1-2.7,0.1
		l-27.8,0.3c-1.6,0-2.8,0-3.6-0.2c-1-0.2-1.8-0.8-2.3-1.7s-0.7-1.8-0.4-2.9c0.3-1.4,1-2.3,2.1-2.6s2.5-0.4,4.3-0.4l24,0.2l-20-10.7
		c-1.5-0.8-2.7-1.5-3.5-2c-0.8-0.5-1.4-1.3-1.8-2.2c-0.4-0.9-0.5-2-0.2-3.3c0.3-1.3,0.9-2.3,1.7-2.9c0.8-0.6,1.6-0.9,2.5-1
		s2.2-0.2,4-0.3l22.7-0.8l-21.6-10.5c-1.1-0.5-2-1-2.6-1.4c-0.6-0.4-1.1-0.9-1.5-1.6c-0.4-0.7-0.5-1.5-0.2-2.5
		c0.2-1,0.8-1.8,1.6-2.4s1.8-0.7,2.8-0.5c0.7,0.2,1.8,0.6,3.3,1.4L86,214c1.7,0.9,2.9,1.5,3.6,2s1.4,1.2,1.8,2
		c0.5,0.8,0.5,1.9,0.2,3.2c-0.3,1.2-0.8,2.1-1.6,2.7c-0.8,0.6-1.6,0.9-2.4,1C86.9,225,85.5,225.1,83.5,225.2z"/>
	<path id="XMLID_104_" class="st7" d="M102.2,182.4l-5.4-0.4l-7,14.7l3.8,3.9c1.5,1.5,2.4,2.7,2.9,3.5s0.4,1.7-0.2,2.8
		c-0.4,0.9-1.2,1.6-2.2,2s-1.9,0.4-2.8,0c-0.5-0.2-1-0.6-1.4-1c-0.4-0.4-1.1-1-1.8-1.9L69,185.7c-0.6-0.6-1.2-1.3-2-2.1
		c-0.8-0.8-1.4-1.6-1.8-2.3c-0.4-0.7-0.7-1.5-0.7-2.4c-0.1-0.9,0.1-1.8,0.6-2.8c0.5-1,1.1-1.8,1.8-2.3c0.7-0.5,1.5-0.8,2.3-1
		c0.8-0.1,1.6-0.2,2.5-0.1s1.9,0.1,3.3,0.2l27.9,1.6c2.1,0.1,3.6,0.3,4.4,0.7c0.8,0.4,1.4,1.1,1.8,2.1c0.4,1,0.3,2-0.1,3
		c-0.3,0.6-0.6,1-1,1.3c-0.4,0.3-0.8,0.5-1.3,0.6c-0.5,0.1-1.2,0.2-2.1,0.1S102.8,182.4,102.2,182.4z M85.2,192.2l5.1-10.8
		l-17.5-1.6L85.2,192.2z"/>
	<path id="XMLID_107_" class="st7" d="M103.9,155.8l-1.7,2.3l10.4,7.5c1.4,1,2.2,2,2.4,3.1c0.2,1.1,0,2.1-0.7,3.1
		c-0.8,1-1.7,1.6-2.8,1.7c-1.1,0.1-2.3-0.3-3.6-1.3l-25-18.1c-1.4-1-2.2-2.1-2.4-3.2s0.2-2.4,1.3-3.8l7.7-10.7
		c1.1-1.5,2-2.7,2.9-3.7c0.9-1,1.8-1.7,2.8-2.3c1.2-0.7,2.4-1.2,3.8-1.4c1.4-0.2,2.7-0.1,4.1,0.2c1.4,0.4,2.6,1,3.8,1.8
		c2.4,1.8,3.9,3.8,4.3,6.2c0.5,2.4,0,5.2-1.4,8.4c1.5-0.7,3.2-1.2,5.2-1.4c2-0.2,4-0.2,5.9-0.1c2,0.2,3.7,0.4,5.1,0.7
		c1.4,0.3,2.4,0.6,2.8,0.9c0.4,0.3,0.8,0.8,1,1.3c0.2,0.6,0.3,1.2,0.2,1.8c-0.1,0.6-0.4,1.3-0.8,1.9c-0.5,0.7-1.2,1.2-1.9,1.5
		s-1.5,0.4-2.3,0.3c-0.8,0-1.9-0.1-3.4-0.2l-6.3-0.5c-2.3-0.2-4.1-0.3-5.5-0.1c-1.4,0.1-2.5,0.5-3.4,1
		C105.6,153.8,104.7,154.6,103.9,155.8z M92.9,142.1l-4.4,6.1l8.9,6.5l4.3-5.9c1.1-1.6,2-3,2.5-4.3c0.5-1.3,0.6-2.4,0.4-3.5
		c-0.2-1-0.9-2-2.1-2.8c-0.9-0.7-1.9-1-2.9-1c-1,0-2,0.2-2.9,0.8C95.8,138.5,94.6,139.9,92.9,142.1z"/>
	<path id="XMLID_110_" class="st7" d="M109.2,112.7l7.7-7.3c2-1.9,3.9-3.3,5.7-4.3c1.8-1,3.7-1.5,5.9-1.6c5.5-0.3,10.7,2.3,15.7,7.6
		c1.6,1.8,3,3.5,4.1,5.2c1.1,1.7,1.8,3.5,2.3,5.2c0.5,1.8,0.6,3.6,0.5,5.4c-0.1,1.4-0.4,2.8-1,4.1c-0.5,1.3-1.2,2.5-2.2,3.7
		c-0.9,1.2-2,2.4-3.4,3.7l-7.7,7.3c-1.1,1-2,1.6-2.9,1.8c-0.9,0.2-1.6,0.1-2.4-0.4c-0.7-0.4-1.5-1.1-2.4-2.1L109,119.7
		c-1.2-1.3-1.8-2.5-1.7-3.6C107.3,115,108,113.9,109.2,112.7z M115.9,115.2l18.6,19.8l4.5-4.2c1-0.9,1.7-1.7,2.2-2.3s1-1.3,1.4-2
		c0.4-0.8,0.6-1.6,0.7-2.4c0.4-3.5-1.3-7.3-5.2-11.4c-2.7-2.9-5.2-4.6-7.4-5.2c-2.2-0.6-4.1-0.5-5.8,0.3c-1.6,0.8-3.4,2.1-5.2,3.8
		L115.9,115.2z"/>
	<path id="XMLID_113_" class="st7" d="M167.6,68.4c3.7-1.9,7.2-2.8,10.7-2.7c3.4,0.1,6.5,1.2,9.3,3.2c2.8,2,5.2,4.9,7.1,8.6
		c1.4,2.7,2.4,5.4,2.8,8.1c0.4,2.6,0.3,5.2-0.3,7.6s-1.8,4.6-3.5,6.6c-1.7,2-4,3.7-6.8,5.2c-2.8,1.5-5.5,2.3-8.2,2.6
		c-2.7,0.3-5.2-0.1-7.5-0.9c-2.3-0.9-4.5-2.2-6.4-4.1s-3.6-4.2-5-6.9c-1.4-2.7-2.3-5.4-2.8-8.1c-0.4-2.7-0.3-5.2,0.4-7.6
		c0.6-2.4,1.8-4.5,3.5-6.5C162.7,71.5,164.9,69.8,167.6,68.4z M187.4,81.3c-1.4-2.6-3-4.6-4.8-6.1s-3.8-2.3-5.9-2.4
		c-2.1-0.2-4.1,0.3-6.1,1.3c-1.4,0.8-2.6,1.7-3.6,2.9c-0.9,1.2-1.6,2.5-1.9,4c-0.3,1.5-0.3,3.2,0,5.1c0.3,1.9,1,3.8,2.1,5.8
		c1.1,2,2.3,3.7,3.6,5.1c1.4,1.4,2.8,2.3,4.3,2.9c1.5,0.6,3,0.8,4.5,0.7c1.5-0.1,2.9-0.5,4.4-1.3c1.8-1,3.3-2.3,4.4-4
		c1.1-1.7,1.5-3.8,1.5-6.2C189.6,86.7,188.9,84.1,187.4,81.3z"/>
	<path id="XMLID_116_" class="st7" d="M220.5,55.6l-15.3,4.5l2.9,9.8l12.8-3.8c1.2-0.4,2.2-0.3,2.9,0c0.7,0.4,1.2,1,1.5,1.9
		c0.3,0.9,0.2,1.7-0.3,2.4c-0.4,0.7-1.2,1.2-2.4,1.6l-12.8,3.8l3.8,12.7c0.5,1.6,0.5,2.9,0,3.9c-0.5,1-1.3,1.7-2.4,2
		c-1.2,0.3-2.2,0.2-3.2-0.3c-1-0.6-1.7-1.7-2.1-3.2L197,61.2c-0.3-1.1-0.4-2.1-0.3-2.9c0.1-0.8,0.5-1.5,1.1-2c0.6-0.5,1.5-1,2.6-1.3
		l18.4-5.4c1.2-0.4,2.2-0.4,3,0c0.8,0.4,1.3,1,1.5,1.9c0.3,0.9,0.2,1.7-0.3,2.5C222.6,54.7,221.7,55.2,220.5,55.6z"/>
	<path id="XMLID_118_" class="st7" d="M273.7,49.7l-18.3,0.7l0.4,9.8l16.8-0.7c1.2-0.1,2.2,0.2,2.8,0.7c0.6,0.5,1,1.3,1,2.2
		c0,0.9-0.2,1.7-0.8,2.3c-0.6,0.6-1.5,0.9-2.8,1l-16.8,0.7l0.5,11.4l18.9-0.8c1.3-0.1,2.2,0.2,2.9,0.8c0.7,0.6,1,1.3,1.1,2.3
		c0,0.9-0.3,1.7-0.9,2.3c-0.6,0.6-1.6,1-2.8,1l-22,0.9c-1.8,0.1-3.1-0.3-3.9-1c-0.8-0.8-1.2-2-1.3-3.8l-1.2-30.1
		c0-1.2,0.1-2.1,0.4-2.9c0.3-0.8,0.8-1.3,1.6-1.7c0.7-0.4,1.7-0.6,2.8-0.6l21.4-0.9c1.3-0.1,2.3,0.2,2.9,0.7c0.7,0.5,1,1.3,1,2.2
		c0,0.9-0.2,1.7-0.9,2.3C276,49.3,275,49.6,273.7,49.7z"/>
	<path id="XMLID_120_" class="st7" d="M282.1,75.9l10.7-11.8l-5.9-12.6c-0.6-1.2-0.9-2.2-1.2-3.1c-0.2-0.9-0.3-1.6-0.2-2.4
		c0.1-0.8,0.5-1.4,1.3-1.9c0.8-0.5,1.6-0.7,2.6-0.6c1.1,0.2,1.9,0.6,2.5,1.3c0.5,0.7,1.2,2.1,2.1,4l4.6,10.5l7.7-8.8
		c0.6-0.7,1.2-1.4,1.6-1.9c0.4-0.5,0.9-1,1.3-1.3c0.4-0.3,0.8-0.6,1.3-0.7s1-0.2,1.5-0.1c1,0.1,1.8,0.6,2.4,1.2
		c0.6,0.7,0.8,1.5,0.7,2.3c-0.2,1.2-1.1,2.8-2.8,4.6l-9.4,10.6l6.7,14.1c0.6,1.2,1,2.3,1.3,3.1c0.2,0.8,0.3,1.5,0.2,2.2
		c-0.1,0.6-0.3,1.2-0.7,1.7c-0.4,0.5-0.9,0.8-1.5,1.1c-0.6,0.2-1.3,0.3-2,0.2c-0.8-0.1-1.4-0.3-1.9-0.7c-0.5-0.4-0.9-0.8-1.1-1.4
		c-0.3-0.5-0.7-1.5-1.4-3l-5.5-12l-9,10.3c-0.7,0.8-1.2,1.4-1.5,1.7c-0.3,0.3-0.6,0.6-1,0.9c-0.4,0.3-0.8,0.5-1.3,0.6
		c-0.5,0.1-1.1,0.2-1.7,0.1c-1-0.1-1.7-0.5-2.3-1.2c-0.6-0.7-0.8-1.6-0.6-2.7C279.6,79.2,280.5,77.6,282.1,75.9z"/>
	<path id="XMLID_122_" class="st7" d="M347.4,86.3c-0.4,1.2-1.1,2.4-2.2,3.6c-1.1,1.2-2.5,2.3-4.2,3.2c-1.7,0.9-3.7,1.5-6,1.7
		c-2.3,0.2-4.7-0.1-7.4-1c-2-0.7-3.8-1.4-5.3-2.4c-1.5-0.9-2.8-2-3.9-3.2s-2-2.7-2.7-4.4c-0.6-1.5-1-3.1-1.3-4.9
		c-0.2-1.7-0.2-3.5,0-5.3c0.2-1.8,0.6-3.6,1.2-5.5c1-3.1,2.3-5.7,4-7.8c1.7-2.1,3.6-3.8,5.9-5c2.2-1.2,4.6-1.9,7.1-2
		c2.5-0.2,5.1,0.2,7.6,1c3.1,1,5.6,2.5,7.6,4.5c2,2,3.4,4.1,4,6.4s0.8,4.2,0.2,5.8c-0.3,0.9-0.9,1.6-1.7,2s-1.7,0.6-2.6,0.3
		c-1-0.3-1.7-0.8-2-1.4c-0.3-0.6-0.6-1.6-0.9-3c-0.4-2.2-1.1-4-2.2-5.4s-2.6-2.4-4.6-3c-3.2-1-6.1-0.7-8.8,1.1
		c-2.7,1.8-4.7,4.9-6.2,9.3c-1,3-1.4,5.6-1.2,7.8c0.2,2.2,0.9,4.1,2.1,5.6c1.2,1.5,2.8,2.5,4.9,3.2c2.2,0.7,4.3,0.8,6.2,0.2
		s3.6-1.8,5.1-3.7c0.7-0.9,1.3-1.6,2-2.1c0.7-0.5,1.6-0.5,2.6-0.2c0.9,0.3,1.6,0.9,2,1.7S347.7,85.3,347.4,86.3z"/>
	<path id="XMLID_124_" class="st7" d="M386,83.4l-16-8.9l-4.8,8.6l14.7,8.2c1.1,0.6,1.8,1.3,2,2.1c0.3,0.8,0.2,1.6-0.3,2.4
		c-0.4,0.8-1.1,1.3-1.9,1.5c-0.8,0.2-1.8,0-2.9-0.6l-14.7-8.2l-5.6,9.9l16.5,9.3c1.1,0.6,1.8,1.4,2.1,2.2s0.2,1.7-0.3,2.5
		c-0.5,0.8-1.1,1.3-2,1.5c-0.9,0.2-1.8,0-3-0.6l-19.2-10.8c-1.5-0.9-2.5-1.8-2.8-2.9c-0.3-1.1,0-2.4,0.8-3.9l14.7-26.3
		c0.6-1,1.2-1.8,1.9-2.2s1.4-0.7,2.2-0.6s1.7,0.4,2.7,0.9L389.1,78c1.1,0.6,1.8,1.4,2.1,2.2c0.3,0.8,0.2,1.6-0.3,2.4
		c-0.5,0.8-1.1,1.3-1.9,1.5S387.2,84,386,83.4z"/>
	<path id="XMLID_126_" class="st7" d="M404.5,94.3l-18.4,22.6l12.8,10.4c1,0.8,1.6,1.7,1.7,2.6c0.1,0.9-0.1,1.8-0.7,2.5
		c-0.6,0.8-1.4,1.2-2.3,1.2c-0.9,0-1.9-0.4-2.9-1.2l-15.2-12.4c-1.4-1.1-2.1-2.2-2.2-3.3c-0.1-1.1,0.4-2.3,1.5-3.7l19.5-24
		c1-1.3,2.1-2,3.2-2.2c1.1-0.2,2.1,0.1,3,0.9c0.9,0.8,1.5,1.7,1.5,2.8C406,91.8,405.5,93,404.5,94.3z"/>
	<path id="XMLID_128_" class="st7" d="M431.2,118.8l-21.8,19.4l11,12.3c0.9,1,1.3,1.9,1.3,2.9c0,0.9-0.4,1.7-1.1,2.4
		c-0.7,0.7-1.6,0.9-2.5,0.8c-0.9-0.1-1.8-0.7-2.7-1.7l-13.1-14.6c-1.2-1.3-1.7-2.5-1.7-3.6c0.1-1.1,0.8-2.2,2.1-3.4l23-20.6
		c1.2-1.1,2.4-1.6,3.5-1.6s2.1,0.5,2.9,1.4c0.8,0.9,1.2,1.9,1.1,3C433.1,116.6,432.5,117.7,431.2,118.8z"/>
	<path id="XMLID_130_" class="st7" d="M462,163.9l-9.8-15.5l-8.3,5.3l9,14.2c0.7,1,0.9,2,0.8,2.8s-0.6,1.5-1.4,2
		c-0.8,0.5-1.6,0.6-2.4,0.4c-0.8-0.2-1.5-0.8-2.2-1.9l-9-14.2l-9.6,6.1l10.1,16c0.7,1.1,0.9,2,0.8,2.9c-0.2,0.9-0.6,1.6-1.5,2.1
		c-0.8,0.5-1.6,0.6-2.5,0.4c-0.8-0.2-1.6-0.9-2.3-2l-11.8-18.6c-0.9-1.5-1.3-2.8-1-3.9c0.2-1.1,1.1-2.1,2.6-3l25.5-16.1
		c1-0.6,1.9-1,2.7-1.1c0.8-0.1,1.6,0.1,2.2,0.5c0.7,0.4,1.3,1.1,1.9,2.1l11.5,18.1c0.7,1.1,1,2.1,0.8,2.9c-0.1,0.8-0.6,1.5-1.4,2
		c-0.8,0.5-1.6,0.6-2.4,0.4C463.4,165.7,462.7,165,462,163.9z"/>
	<path id="XMLID_132_" class="st7" d="M474.4,184.7L458.3,208l22.1-8.9c1.4-0.6,2.6-0.7,3.6-0.4c1,0.3,1.7,1,2.1,2.1
		c0.4,1.1,0.4,2.1,0,3s-1.4,1.7-2.9,2.2L454,217.8c-3.3,1.3-5.4,0.6-6.5-2.1c-0.3-0.7-0.4-1.3-0.4-1.9c0-0.6,0.1-1.3,0.3-1.9
		c0.2-0.6,0.5-1.3,1-1.9s0.8-1.3,1.2-1.9l16-22.8l-21.8,8.8c-1.4,0.6-2.6,0.7-3.6,0.3s-1.7-1.1-2.1-2.1c-0.4-1.1-0.4-2.1,0.1-3
		c0.5-0.9,1.4-1.7,2.8-2.3l28.7-11.5c1.2-0.5,2.2-0.7,3-0.7c0.9,0,1.7,0.3,2.5,0.8s1.3,1.3,1.7,2.1c0.3,0.7,0.4,1.3,0.4,1.9
		c0,0.6-0.2,1.1-0.4,1.6c-0.2,0.5-0.6,1.1-1,1.7C475.3,183.4,474.9,184.1,474.4,184.7z"/>
	<path id="XMLID_134_" class="st7" d="M470.1,255.6c-1.3,0.2-2.7,0.2-4.2-0.1c-1.6-0.3-3.2-1-4.9-2.1c-1.7-1-3.1-2.5-4.4-4.4
		c-1.3-1.9-2.2-4.2-2.7-6.9c-0.4-2.1-0.6-4-0.5-5.8c0.1-1.8,0.4-3.4,0.9-5c0.6-1.5,1.4-3,2.5-4.5c1-1.3,2.2-2.4,3.6-3.5
		c1.4-1,2.9-1.9,4.6-2.6c1.7-0.7,3.5-1.2,5.4-1.6c3.2-0.6,6.1-0.7,8.8-0.3c2.7,0.4,5.1,1.3,7.2,2.7s3.9,3.1,5.2,5.2
		c1.4,2.1,2.3,4.5,2.8,7.1c0.6,3.2,0.5,6.1-0.2,8.9c-0.8,2.7-2,4.9-3.6,6.6c-1.6,1.7-3.2,2.7-4.9,3c-0.9,0.2-1.8,0-2.6-0.5
		c-0.8-0.5-1.3-1.2-1.5-2.1c-0.2-1-0.1-1.8,0.3-2.4s1.1-1.3,2.2-2.2c1.7-1.4,3-2.9,3.7-4.5c0.7-1.6,0.8-3.4,0.4-5.5
		c-0.6-3.3-2.4-5.6-5.3-7.1c-2.9-1.5-6.6-1.7-11.2-0.8c-3.1,0.6-5.5,1.5-7.4,2.8c-1.9,1.3-3.1,2.8-3.8,4.5c-0.7,1.8-0.8,3.7-0.4,5.8
		c0.4,2.3,1.4,4.1,2.8,5.5c1.4,1.4,3.3,2.2,5.7,2.6c1.1,0.1,2,0.4,2.8,0.8c0.8,0.4,1.2,1.1,1.5,2.2c0.2,0.9,0,1.8-0.5,2.6
		C471.8,254.9,471.1,255.4,470.1,255.6z"/>
	<path id="XMLID_136_" class="st7" d="M492,287.6l-0.3-18.3l-9.8,0.2l0.3,16.8c0,1.2-0.2,2.2-0.8,2.8c-0.5,0.6-1.3,0.9-2.2,1
		c-0.9,0-1.7-0.3-2.2-0.9c-0.6-0.6-0.9-1.5-0.9-2.8l-0.3-16.8l-11.4,0.2l0.3,18.9c0,1.3-0.3,2.2-0.8,2.9c-0.6,0.7-1.4,1-2.3,1
		c-0.9,0-1.7-0.3-2.3-0.9c-0.6-0.6-0.9-1.6-0.9-2.9l-0.4-22.1c0-1.8,0.3-3,1.1-3.8c0.8-0.8,2-1.2,3.8-1.2l30.1-0.6
		c1.2,0,2.1,0.1,2.9,0.5c0.7,0.3,1.3,0.9,1.6,1.6s0.5,1.7,0.6,2.8l0.4,21.4c0,1.3-0.2,2.3-0.8,2.9c-0.6,0.6-1.3,1-2.2,1
		c-0.9,0-1.7-0.3-2.3-0.9S492.1,288.9,492,287.6z"/>
</g>
<g id="XMLID_2_">
	<path id="XMLID_13_" class="st8" d="M87.5,365.8l-7.3,11.5l10.5-4.7c0.7-0.3,1.3-0.4,1.7-0.3c0.5,0.1,0.8,0.5,1,1
		c0.2,0.5,0.2,1,0,1.4c-0.2,0.4-0.7,0.8-1.3,1.1l-13.9,6.2c-1.5,0.7-2.6,0.4-3.2-0.9c-0.1-0.3-0.2-0.6-0.3-0.9c0-0.3,0-0.6,0.1-0.9
		s0.2-0.6,0.4-0.9c0.2-0.3,0.4-0.6,0.6-0.9l7.3-11.3l-10.3,4.6c-0.7,0.3-1.3,0.4-1.7,0.2c-0.5-0.2-0.8-0.5-1.1-1
		c-0.2-0.5-0.2-1,0-1.4c0.2-0.5,0.6-0.8,1.3-1.1l13.6-6.1c0.6-0.3,1.1-0.4,1.4-0.4c0.4,0,0.8,0.1,1.2,0.4s0.7,0.6,0.9,1
		c0.1,0.3,0.2,0.6,0.2,0.9c0,0.3-0.1,0.5-0.2,0.8c-0.1,0.3-0.2,0.5-0.4,0.8S87.7,365.5,87.5,365.8z"/>
	<path id="XMLID_17_" class="st8" d="M86.4,397.1l1.7-2l-3.9-6.8l-2.6,0.4c-1,0.2-1.7,0.2-2.2,0.2s-0.8-0.3-1.1-0.8
		c-0.2-0.4-0.3-0.9-0.2-1.4s0.4-0.9,0.8-1.1c0.2-0.1,0.5-0.2,0.8-0.3c0.3-0.1,0.7-0.1,1.2-0.2l13.4-1.8c0.4-0.1,0.8-0.1,1.4-0.2
		c0.5-0.1,1-0.1,1.4-0.1c0.4,0,0.8,0.2,1.1,0.4s0.7,0.6,0.9,1c0.3,0.5,0.4,0.9,0.4,1.3s-0.1,0.8-0.3,1.2c-0.2,0.4-0.4,0.7-0.6,1
		c-0.3,0.3-0.6,0.7-1,1.2l-8.4,10.5c-0.6,0.8-1.1,1.3-1.5,1.5c-0.4,0.2-0.8,0.3-1.3,0.1s-0.9-0.4-1.2-0.9c-0.2-0.3-0.2-0.5-0.2-0.8
		c0-0.2,0-0.5,0.1-0.7c0.1-0.2,0.3-0.5,0.5-0.8S86.2,397.3,86.4,397.1z M87.3,387.7l2.8,5l5.5-6.4L87.3,387.7z"/>
	<path id="XMLID_20_" class="st8" d="M107.7,404.4l-2.4-3.6l-11.7,7.7c-0.7,0.4-1.3,0.6-1.8,0.5c-0.5-0.1-0.9-0.4-1.3-0.8
		c-0.3-0.5-0.4-1-0.3-1.5c0.1-0.5,0.5-1,1.2-1.4l11.7-7.7l-2.4-3.6c-0.4-0.6-0.5-1.1-0.5-1.5s0.3-0.8,0.7-1c0.4-0.3,0.8-0.4,1.3-0.2
		s0.8,0.5,1.2,1l6.9,10.4c0.4,0.6,0.5,1.1,0.5,1.5c-0.1,0.4-0.3,0.8-0.7,1.1c-0.4,0.3-0.8,0.3-1.2,0.2
		C108.4,405.3,108,404.9,107.7,404.4z"/>
	<path id="XMLID_22_" class="st8" d="M98.9,416.1l12.2-9.1c0.6-0.5,1.2-0.7,1.7-0.6c0.5,0.1,1,0.3,1.3,0.8c0.4,0.5,0.5,1,0.4,1.5
		s-0.5,1-1.1,1.5l-12.2,9.1c-0.6,0.5-1.2,0.7-1.8,0.6s-1-0.3-1.3-0.8c-0.3-0.5-0.5-0.9-0.4-1.5C97.9,417,98.3,416.5,98.9,416.1z"/>
	<path id="XMLID_40_" class="st8" d="M123,418.1c1.3,1.5,2.1,3.1,2.4,4.7c0.3,1.6,0.2,3.2-0.5,4.7s-1.7,3-3.3,4.3
		c-1.1,1-2.3,1.7-3.5,2.2c-1.2,0.5-2.4,0.7-3.6,0.7s-2.4-0.3-3.5-0.9c-1.1-0.6-2.2-1.4-3.2-2.6c-1-1.1-1.7-2.3-2.1-3.6
		c-0.4-1.2-0.5-2.4-0.4-3.6s0.6-2.3,1.2-3.5c0.7-1.1,1.6-2.2,2.7-3.1c1.1-1,2.3-1.7,3.5-2.2c1.2-0.5,2.4-0.7,3.6-0.7
		c1.2,0,2.3,0.4,3.4,0.9C121,416.2,122.1,417,123,418.1z M119.1,428.8c1.1-0.9,1.9-1.9,2.3-2.9c0.5-1,0.7-2,0.5-3
		c-0.2-1-0.6-1.9-1.3-2.7c-0.5-0.6-1.1-1-1.8-1.4c-0.7-0.3-1.4-0.5-2.1-0.5c-0.7,0-1.5,0.2-2.4,0.5c-0.8,0.4-1.7,0.9-2.5,1.6
		c-0.8,0.7-1.5,1.5-2,2.3s-0.8,1.6-0.9,2.3s-0.1,1.5,0.1,2.2c0.2,0.7,0.6,1.3,1.1,1.9c0.7,0.8,1.4,1.3,2.4,1.6
		c0.9,0.3,1.9,0.3,3.1,0S118,429.8,119.1,428.8z"/>
	<path id="XMLID_43_" class="st8" d="M133,432.2l-2.4,13.4l7.9-8.3c0.5-0.5,1-0.8,1.5-0.9c0.5,0,0.9,0.1,1.3,0.5
		c0.4,0.4,0.6,0.8,0.6,1.3c0,0.5-0.3,1-0.8,1.6l-10.5,11c-1.2,1.2-2.3,1.4-3.3,0.4c-0.3-0.2-0.4-0.5-0.6-0.8
		c-0.1-0.3-0.2-0.6-0.2-0.9c0-0.3,0-0.7,0-1c0-0.4,0.1-0.7,0.2-1.1l2.4-13.2l-7.8,8.2c-0.5,0.5-1,0.8-1.5,0.9c-0.5,0-1-0.1-1.3-0.5
		c-0.4-0.4-0.6-0.8-0.6-1.3c0-0.5,0.3-1,0.8-1.6l10.3-10.8c0.4-0.5,0.8-0.8,1.2-0.9c0.4-0.2,0.8-0.2,1.3-0.1
		c0.5,0.1,0.8,0.3,1.2,0.6c0.3,0.2,0.4,0.5,0.5,0.7c0.1,0.3,0.2,0.5,0.2,0.8c0,0.3,0,0.6-0.1,0.9C133.2,431.5,133.1,431.9,133,432.2
		z"/>
	<path id="XMLID_45_" class="st8" d="M143.9,461.6l0.8-2.5l-6.2-4.9l-2.3,1.4c-0.9,0.5-1.5,0.9-1.9,1c-0.4,0.1-0.8,0-1.3-0.4
		c-0.4-0.3-0.6-0.7-0.7-1.2s0-1,0.3-1.3c0.2-0.2,0.4-0.4,0.6-0.6c0.2-0.2,0.6-0.4,1.1-0.7l11.7-6.8c0.3-0.2,0.7-0.4,1.2-0.7
		c0.5-0.3,0.9-0.5,1.3-0.6c0.4-0.1,0.8-0.2,1.2-0.1c0.4,0.1,0.8,0.3,1.3,0.6c0.4,0.3,0.7,0.7,0.9,1.1s0.2,0.8,0.2,1.2
		c0,0.4-0.1,0.8-0.2,1.2c-0.1,0.4-0.3,0.9-0.5,1.5l-3.8,12.9c-0.3,1-0.5,1.7-0.8,2c-0.3,0.4-0.7,0.6-1.2,0.6c-0.5,0.1-1-0.1-1.4-0.4
		c-0.2-0.2-0.4-0.4-0.5-0.6c-0.1-0.2-0.2-0.5-0.2-0.7c0-0.2,0.1-0.6,0.2-1C143.7,462.2,143.8,461.9,143.9,461.6z M141.1,452.5
		l4.5,3.6l2.7-8.1L141.1,452.5z"/>
	<path id="XMLID_48_" class="st8" d="M161.6,455.6l-7.7,11.7l6.6,4.4c0.5,0.3,0.8,0.7,1,1.2c0.1,0.4,0,0.9-0.2,1.2
		c-0.3,0.4-0.6,0.6-1.1,0.7c-0.4,0.1-0.9-0.1-1.5-0.4l-7.9-5.2c-0.7-0.5-1.1-1-1.2-1.5c-0.1-0.5,0.1-1.1,0.5-1.8l8.2-12.4
		c0.4-0.7,0.9-1.1,1.4-1.2c0.5-0.1,1,0,1.5,0.3c0.5,0.3,0.8,0.8,0.9,1.3C162.2,454.4,162.1,455,161.6,455.6z"/>
	<path id="XMLID_50_" class="st8" d="M176.9,484.4l-5.3-2.6c-0.8-0.4-1.2-0.8-1.4-1.3c-0.2-0.5,0-1.1,0.3-1.9l6.5-13
		c0.4-0.8,0.8-1.2,1.3-1.4s1.1-0.1,1.9,0.3l5.6,2.8c0.8,0.4,1.5,0.8,2.1,1.2s1,0.9,1.3,1.4c0.3,0.4,0.5,0.9,0.6,1.5
		c0.1,0.5,0.2,1.1,0.1,1.6c-0.1,0.5-0.2,1.1-0.5,1.6c-0.9,1.7-2.4,2.6-4.5,2.5c1.9,1.9,2.3,3.8,1.3,5.9c-0.5,1-1.2,1.7-2,2.2
		s-1.8,0.8-2.9,0.7c-0.6,0-1.3-0.2-2-0.4C178.6,485.2,177.8,484.9,176.9,484.4z M180.4,476.6l-3.6-1.8l-2.5,5l3.8,1.9
		c2.4,1.2,4,0.9,4.8-0.8c0.4-0.9,0.4-1.7,0-2.4C182.5,477.9,181.6,477.2,180.4,476.6z M180.3,467.8l-2.2,4.5l3.2,1.6
		c0.9,0.4,1.6,0.7,2.1,0.8s1.1-0.1,1.6-0.4c0.4-0.2,0.6-0.6,0.8-1c0.4-0.9,0.4-1.6-0.1-2.2c-0.5-0.6-1.4-1.2-2.6-1.8L180.3,467.8z"
		/>
	<path id="XMLID_54_" class="st8" d="M199.1,491.6l0-2.6l-7.3-2.9l-1.8,2c-0.7,0.8-1.2,1.3-1.6,1.5s-0.8,0.2-1.4,0
		c-0.5-0.2-0.8-0.5-1-1c-0.2-0.5-0.2-0.9-0.1-1.3c0.1-0.2,0.2-0.5,0.4-0.7c0.2-0.2,0.5-0.5,0.8-0.9l9.2-9.9c0.3-0.3,0.6-0.6,0.9-1
		c0.4-0.4,0.7-0.7,1-0.9c0.3-0.2,0.7-0.4,1.1-0.4c0.4-0.1,0.9,0,1.4,0.2c0.5,0.2,0.9,0.5,1.2,0.8c0.3,0.3,0.4,0.7,0.5,1.1
		c0.1,0.4,0.1,0.8,0.1,1.2c0,0.4,0,0.9,0,1.6l0.2,13.5c0,1,0,1.7-0.2,2.1c-0.2,0.4-0.5,0.7-1,0.9c-0.5,0.2-1,0.2-1.5,0
		c-0.3-0.1-0.5-0.3-0.7-0.4c-0.2-0.2-0.3-0.4-0.4-0.6c-0.1-0.2-0.1-0.6-0.1-1S199.1,492,199.1,491.6z M193.9,483.8l5.4,2.1l0.2-8.5
		L193.9,483.8z"/>
	<path id="XMLID_57_" class="st8" d="M213.2,489.8l-1.3-0.4l-1.7,6c-0.2,0.8-0.6,1.3-1,1.6c-0.5,0.3-1,0.3-1.5,0.2
		c-0.6-0.2-1-0.5-1.2-1c-0.2-0.5-0.2-1.1,0-1.9l4-14.3c0.2-0.8,0.6-1.3,1-1.6c0.5-0.3,1.1-0.3,1.9,0l6.1,1.7
		c0.8,0.2,1.6,0.5,2.1,0.7c0.6,0.2,1.1,0.5,1.5,0.9c0.5,0.4,0.9,0.9,1.3,1.5c0.3,0.6,0.5,1.2,0.6,1.9c0.1,0.7,0,1.3-0.2,2
		c-0.4,1.4-1.1,2.4-2.1,3c-1,0.6-2.4,0.9-4.1,0.8c0.6,0.5,1.1,1.2,1.5,2.1c0.4,0.9,0.7,1.8,1,2.7c0.3,0.9,0.4,1.7,0.5,2.4
		s0.1,1.2,0,1.4c-0.1,0.2-0.2,0.5-0.4,0.7c-0.2,0.2-0.5,0.3-0.8,0.4c-0.3,0.1-0.6,0-1-0.1c-0.4-0.1-0.8-0.3-1-0.6
		c-0.2-0.3-0.4-0.6-0.5-1c-0.1-0.4-0.3-0.9-0.5-1.6l-0.8-2.9c-0.3-1.1-0.6-1.9-0.9-2.5c-0.3-0.6-0.6-1.1-1-1.4
		C214.4,490.3,213.9,490,213.2,489.8z M217.6,482.6l-3.5-1l-1.4,5.1l3.4,1c0.9,0.3,1.7,0.4,2.3,0.4c0.7,0,1.2-0.1,1.6-0.4
		c0.4-0.3,0.7-0.8,0.9-1.4c0.1-0.5,0.1-1,0-1.5c-0.2-0.5-0.4-0.9-0.8-1.2C219.7,483.3,218.9,483,217.6,482.6z"/>
	<path id="XMLID_60_" class="st8" d="M233.7,503.1l-5.8-1c-0.8-0.2-1.4-0.4-1.7-0.9c-0.3-0.4-0.4-1.1-0.2-1.9l2.6-14.3
		c0.2-0.8,0.4-1.4,0.9-1.7s1.1-0.4,1.9-0.2l6.2,1.1c0.9,0.2,1.7,0.4,2.3,0.6c0.6,0.2,1.2,0.6,1.7,1c0.4,0.3,0.7,0.8,1,1.2
		c0.3,0.5,0.5,1,0.5,1.5c0.1,0.5,0.1,1.1,0,1.6c-0.3,1.9-1.5,3.1-3.6,3.7c2.4,1.2,3.3,3,2.9,5.3c-0.2,1.1-0.6,2-1.3,2.7
		c-0.7,0.8-1.5,1.3-2.5,1.5c-0.6,0.1-1.3,0.2-2.1,0.2C235.6,503.4,234.7,503.3,233.7,503.1z M234.9,494.6l-4-0.7l-1,5.6l4.1,0.7
		c2.6,0.5,4.1-0.2,4.4-2.1c0.2-1,0-1.7-0.6-2.3C237.2,495.2,236.3,494.8,234.9,494.6z M232.3,486.2l-0.9,4.9l3.5,0.6
		c1,0.2,1.7,0.2,2.3,0.1c0.6-0.1,1-0.4,1.4-0.8c0.3-0.3,0.5-0.7,0.5-1.2c0.2-1-0.1-1.7-0.7-2.1c-0.6-0.4-1.6-0.8-3-1L232.3,486.2z"
		/>
	<path id="XMLID_64_" class="st8" d="M259.7,489.8l-8.8-0.7l-0.4,4.7l8.1,0.7c0.6,0.1,1,0.2,1.3,0.5c0.3,0.3,0.4,0.7,0.4,1.1
		c0,0.4-0.2,0.8-0.5,1s-0.8,0.4-1.4,0.3l-8.1-0.7l-0.5,5.5l9.1,0.8c0.6,0.1,1.1,0.2,1.3,0.5s0.4,0.7,0.4,1.2c0,0.5-0.2,0.8-0.6,1.1
		c-0.3,0.3-0.8,0.4-1.4,0.3l-10.6-0.9c-0.8-0.1-1.4-0.3-1.8-0.7c-0.3-0.4-0.5-1-0.4-1.9l1.2-14.5c0-0.6,0.2-1,0.4-1.4
		c0.2-0.3,0.5-0.6,0.8-0.7c0.4-0.1,0.8-0.2,1.4-0.1l10.3,0.9c0.6,0.1,1.1,0.2,1.4,0.5c0.3,0.3,0.4,0.7,0.4,1.1
		c0,0.5-0.2,0.8-0.5,1.1C260.8,489.7,260.3,489.8,259.7,489.8z"/>
	<path id="XMLID_66_" class="st8" d="M281,500c0,0.6-0.1,1.3-0.4,2c-0.3,0.7-0.8,1.4-1.4,2.1c-0.6,0.7-1.5,1.3-2.5,1.7
		c-1,0.4-2.2,0.7-3.5,0.7c-1,0-1.9-0.1-2.8-0.2c-0.8-0.2-1.6-0.5-2.3-0.9c-0.7-0.4-1.3-0.9-1.9-1.6c-0.5-0.6-1-1.3-1.3-2
		s-0.7-1.5-0.9-2.4c-0.2-0.8-0.3-1.8-0.3-2.7c0-1.6,0.2-3,0.6-4.2c0.4-1.2,1.1-2.3,1.9-3.2s1.8-1.6,2.9-2c1.1-0.5,2.3-0.7,3.6-0.7
		c1.6,0,3,0.3,4.2,0.9c1.2,0.6,2.2,1.4,2.8,2.3c0.7,0.9,1,1.8,1,2.6c0,0.4-0.1,0.8-0.5,1.2c-0.3,0.3-0.7,0.5-1.1,0.5
		c-0.5,0-0.9-0.1-1.1-0.3c-0.3-0.2-0.5-0.6-0.9-1.2c-0.5-0.9-1.1-1.7-1.8-2.1c-0.7-0.5-1.6-0.7-2.6-0.7c-1.6,0-2.9,0.7-3.8,1.9
		c-0.9,1.2-1.4,3-1.3,5.2c0,1.5,0.3,2.7,0.7,3.7c0.4,1,1,1.7,1.8,2.2c0.8,0.5,1.7,0.7,2.7,0.7c1.1,0,2.1-0.3,2.8-0.9
		s1.3-1.4,1.7-2.5c0.2-0.5,0.4-0.9,0.6-1.3c0.2-0.3,0.6-0.5,1.2-0.5c0.5,0,0.9,0.1,1.2,0.5C280.8,499.2,281,499.6,281,500z"/>
	<path id="XMLID_68_" class="st8" d="M284.7,498l-1-9.2c-0.1-0.8,0-1.4,0.3-1.8c0.3-0.4,0.8-0.7,1.3-0.7c0.6-0.1,1.1,0.1,1.5,0.4
		s0.6,0.9,0.7,1.7l1,9.4c0.1,1.1,0.3,2,0.7,2.7s0.8,1.2,1.5,1.5c0.7,0.3,1.5,0.4,2.6,0.3c1.5-0.2,2.5-0.7,3.1-1.6s0.7-2.1,0.5-3.8
		l-1-9.5c-0.1-0.8,0-1.4,0.3-1.8c0.3-0.4,0.8-0.7,1.3-0.7s1.1,0.1,1.5,0.4c0.4,0.3,0.7,0.9,0.7,1.7l1,9.2c0.2,1.5,0.2,2.8,0,3.8
		c-0.2,1-0.6,2-1.4,2.8c-0.6,0.7-1.4,1.3-2.3,1.7s-2,0.7-3.2,0.8c-1.5,0.2-2.8,0.1-3.9-0.1c-1.1-0.2-2-0.6-2.8-1.2s-1.3-1.4-1.8-2.4
		C285.1,500.7,284.8,499.4,284.7,498z"/>
	<path id="XMLID_70_" class="st8" d="M315.9,484.7l-8.6,1.8l1,4.6l7.9-1.7c0.6-0.1,1-0.1,1.4,0.1c0.3,0.2,0.6,0.5,0.6,0.9
		c0.1,0.4,0,0.8-0.2,1.1c-0.2,0.3-0.6,0.6-1.2,0.7l-7.9,1.7l1.1,5.4l8.9-1.9c0.6-0.1,1.1-0.1,1.4,0.1c0.4,0.2,0.6,0.6,0.7,1
		c0.1,0.4,0,0.8-0.2,1.2c-0.2,0.3-0.7,0.6-1.3,0.7l-10.4,2.2c-0.8,0.2-1.5,0.1-1.9-0.2c-0.4-0.3-0.8-0.9-0.9-1.7l-3-14.2
		c-0.1-0.5-0.1-1,0-1.4c0.1-0.4,0.3-0.7,0.6-0.9c0.3-0.2,0.7-0.4,1.3-0.5l10.1-2.1c0.6-0.1,1.1-0.1,1.4,0.1c0.4,0.2,0.6,0.5,0.7,1
		c0.1,0.4,0,0.8-0.2,1.2S316.5,484.6,315.9,484.7z"/>
	<path id="XMLID_72_" class="st8" d="M343.1,491.1l-1.7-2l-7.4,2.6l-0.1,2.6c0,1-0.1,1.7-0.2,2.2c-0.1,0.4-0.5,0.7-1,0.9
		c-0.5,0.2-0.9,0.1-1.4-0.1c-0.5-0.2-0.8-0.5-0.9-1c-0.1-0.3-0.1-0.5-0.1-0.8c0-0.3,0-0.7,0-1.3l0.6-13.5c0-0.4,0-0.9,0.1-1.4
		s0.1-1,0.2-1.4c0.1-0.4,0.3-0.7,0.6-1.1s0.7-0.6,1.2-0.7c0.5-0.2,1-0.2,1.4-0.2s0.8,0.2,1.1,0.5c0.3,0.2,0.6,0.5,0.9,0.8
		c0.3,0.3,0.6,0.7,1,1.2l8.8,10.1c0.7,0.8,1.1,1.4,1.2,1.8c0.1,0.4,0.1,0.9-0.1,1.3c-0.2,0.5-0.6,0.8-1.1,1
		c-0.3,0.1-0.6,0.1-0.8,0.1c-0.2,0-0.5-0.1-0.7-0.2s-0.4-0.4-0.7-0.7S343.3,491.4,343.1,491.1z M334,488.6l5.5-1.9l-5.4-6.6
		L334,488.6z"/>
	<path id="XMLID_75_" class="st8" d="M362.2,479c0.5,1.1,0.6,2.1,0.5,3.2c-0.2,1.1-0.7,2.1-1.5,3.1c-0.8,1-2,1.8-3.4,2.4
		c-1.7,0.8-3.3,1.1-4.7,1c-1-0.1-2-0.4-2.8-1c-0.9-0.6-1.5-1.2-1.8-2c-0.2-0.4-0.2-0.9-0.1-1.3c0.2-0.4,0.5-0.8,0.9-1
		c0.4-0.2,0.7-0.2,1.1-0.1c0.4,0.1,0.8,0.4,1.2,0.8c0.5,0.5,0.9,0.8,1.4,1.1c0.4,0.3,0.9,0.4,1.5,0.4c0.6,0,1.3-0.1,2-0.5
		c1.1-0.5,1.8-1.1,2.2-1.9c0.4-0.8,0.5-1.6,0.2-2.3c-0.3-0.6-0.7-1-1.2-1.2c-0.5-0.2-1.1-0.3-1.8-0.2c-0.7,0.1-1.5,0.2-2.5,0.4
		c-1.4,0.3-2.6,0.4-3.6,0.4s-2-0.2-2.8-0.7s-1.4-1.2-1.9-2.2c-0.4-1-0.6-1.9-0.4-2.9s0.7-1.9,1.5-2.8c0.8-0.9,1.9-1.6,3.3-2.2
		c1.1-0.5,2.1-0.8,3-0.9s1.7,0,2.4,0.2c0.7,0.2,1.3,0.5,1.8,0.9c0.5,0.4,0.8,0.8,1,1.3c0.2,0.4,0.2,0.9,0.1,1.4
		c-0.1,0.5-0.4,0.8-0.9,1c-0.4,0.2-0.8,0.2-1.1,0.1c-0.3-0.1-0.7-0.3-1.1-0.7c-0.6-0.5-1.2-0.9-1.9-1c-0.6-0.2-1.4,0-2.4,0.4
		c-0.9,0.4-1.6,1-2,1.6c-0.4,0.7-0.4,1.3-0.2,1.8c0.2,0.4,0.4,0.6,0.7,0.8s0.7,0.3,1.1,0.3s0.8,0,1.2,0c0.4-0.1,1-0.2,1.9-0.3
		c1.1-0.2,2.1-0.4,3-0.5c0.9-0.1,1.8-0.1,2.5,0.1c0.7,0.1,1.4,0.5,2,0.9C361.3,477.4,361.8,478.1,362.2,479z"/>
	<path id="XMLID_77_" class="st8" d="M378.3,470.1c0.6,1,0.8,2.1,0.8,3.2c-0.1,1.1-0.5,2.2-1.2,3.2c-0.8,1-1.8,1.9-3.2,2.7
		c-1.7,0.9-3.2,1.4-4.6,1.4c-1,0-2-0.3-2.9-0.8s-1.6-1.1-2-1.8c-0.2-0.4-0.3-0.8-0.2-1.3c0.1-0.5,0.4-0.8,0.8-1.1
		c0.4-0.2,0.7-0.3,1.1-0.2c0.4,0.1,0.8,0.3,1.2,0.7c0.5,0.4,1,0.7,1.5,1c0.5,0.2,1,0.3,1.6,0.3c0.6,0,1.2-0.2,2-0.7
		c1-0.6,1.7-1.3,2.1-2.1c0.4-0.8,0.3-1.6,0-2.3c-0.3-0.6-0.7-0.9-1.3-1.1s-1.1-0.2-1.8-0.1s-1.5,0.3-2.5,0.6
		c-1.4,0.4-2.6,0.6-3.6,0.7c-1,0.1-2-0.1-2.8-0.5c-0.8-0.4-1.5-1.1-2.1-2c-0.5-0.9-0.7-1.9-0.6-2.9s0.5-2,1.3-2.9s1.8-1.8,3-2.5
		c1-0.6,2-1,2.9-1.1c0.9-0.2,1.7-0.2,2.5,0s1.4,0.4,1.8,0.7c0.5,0.3,0.9,0.7,1.1,1.2c0.2,0.4,0.3,0.9,0.2,1.3
		c-0.1,0.5-0.4,0.9-0.8,1.1c-0.4,0.2-0.7,0.3-1.1,0.2c-0.3-0.1-0.7-0.3-1.2-0.6c-0.7-0.5-1.3-0.8-1.9-0.9c-0.6-0.1-1.4,0.1-2.4,0.6
		c-0.9,0.5-1.5,1.1-1.8,1.8c-0.3,0.7-0.3,1.3,0,1.9c0.2,0.3,0.4,0.6,0.8,0.7c0.3,0.1,0.7,0.2,1.1,0.2s0.8-0.1,1.2-0.1
		c0.4-0.1,1-0.2,1.9-0.5c1.1-0.3,2.1-0.6,3-0.7c0.9-0.2,1.8-0.2,2.5-0.1c0.8,0.1,1.5,0.3,2.1,0.7
		C377.2,468.6,377.8,469.2,378.3,470.1z"/>
	<path id="XMLID_79_" class="st8" d="M380.5,451.9c1.6-1.1,3.3-1.8,4.9-2c1.6-0.2,3.2,0.2,4.7,1c1.5,0.8,2.8,2,3.9,3.7
		c0.9,1.2,1.5,2.5,1.8,3.7c0.4,1.2,0.5,2.4,0.3,3.6c-0.1,1.2-0.6,2.3-1.3,3.4c-0.7,1.1-1.7,2-2.9,2.9c-1.2,0.9-2.5,1.4-3.7,1.7
		c-1.3,0.3-2.5,0.3-3.6,0s-2.3-0.8-3.3-1.6s-2-1.8-2.8-3c-0.9-1.2-1.5-2.5-1.8-3.7c-0.4-1.3-0.5-2.5-0.3-3.7
		c0.2-1.2,0.6-2.3,1.3-3.3C378.3,453.7,379.2,452.7,380.5,451.9z M390.7,456.8c-0.8-1.2-1.7-2-2.7-2.6c-1-0.6-2-0.9-3-0.8
		s-2,0.4-2.9,1c-0.6,0.4-1.2,1-1.5,1.6c-0.4,0.6-0.6,1.3-0.7,2c-0.1,0.7,0,1.5,0.3,2.4c0.3,0.9,0.7,1.8,1.3,2.7
		c0.6,0.9,1.3,1.6,2,2.2s1.5,0.9,2.2,1.1s1.5,0.2,2.2,0.1c0.7-0.1,1.4-0.4,2-0.9c0.8-0.6,1.4-1.3,1.8-2.2s0.5-1.9,0.3-3
		C392.1,459.3,391.6,458.1,390.7,456.8z"/>
	<path id="XMLID_82_" class="st8" d="M411.4,444.5c0.4,0.5,0.7,1.1,1,1.8c0.2,0.7,0.3,1.6,0.3,2.5s-0.3,1.9-0.8,2.9
		c-0.5,1-1.2,1.9-2.3,2.8c-0.8,0.7-1.5,1.2-2.3,1.6s-1.5,0.7-2.3,0.8s-1.6,0.1-2.5,0c-0.8-0.1-1.6-0.4-2.3-0.7
		c-0.8-0.3-1.5-0.8-2.2-1.3s-1.3-1.2-2-1.9c-1-1.2-1.7-2.4-2.2-3.6c-0.5-1.2-0.6-2.5-0.6-3.7c0.1-1.2,0.4-2.4,1-3.4
		c0.6-1.1,1.3-2,2.3-2.9c1.2-1,2.4-1.7,3.8-2c1.3-0.3,2.5-0.3,3.6-0.1c1.1,0.3,1.9,0.7,2.4,1.3c0.3,0.3,0.4,0.7,0.4,1.2
		c0,0.5-0.2,0.8-0.5,1.1c-0.4,0.3-0.7,0.5-1.1,0.5c-0.3,0-0.8-0.1-1.4-0.4c-1-0.4-1.9-0.5-2.8-0.5c-0.8,0.1-1.6,0.5-2.4,1.1
		c-1.2,1-1.8,2.3-1.7,3.9c0.1,1.5,0.8,3.2,2.3,4.9c1,1.1,2,2,2.9,2.4c1,0.5,1.9,0.7,2.8,0.5c0.9-0.1,1.8-0.5,2.5-1.2
		c0.9-0.7,1.4-1.6,1.6-2.5s0.1-1.9-0.3-3c-0.2-0.5-0.3-0.9-0.3-1.3c0-0.4,0.2-0.8,0.6-1.1c0.4-0.3,0.8-0.4,1.2-0.4
		C410.7,443.9,411.1,444.1,411.4,444.5z"/>
	<path id="XMLID_84_" class="st8" d="M417,444.5l-10.7-10.9c-0.6-0.6-0.8-1.1-0.9-1.6c0-0.5,0.2-1,0.6-1.4c0.4-0.4,0.9-0.6,1.4-0.6
		c0.5,0,1.1,0.3,1.6,0.9l10.7,10.9c0.6,0.6,0.8,1.1,0.9,1.7c0,0.5-0.2,1-0.6,1.4c-0.4,0.4-0.9,0.6-1.4,0.5
		C418.1,445.4,417.6,445.1,417,444.5z"/>
	<path id="XMLID_86_" class="st8" d="M431.5,429.1l-2.4-0.9l-5.2,5.9l1.2,2.3c0.5,0.9,0.8,1.6,0.8,2c0.1,0.4-0.1,0.8-0.5,1.3
		c-0.3,0.4-0.8,0.6-1.3,0.6c-0.5,0-1-0.1-1.3-0.4c-0.2-0.2-0.4-0.4-0.5-0.6c-0.2-0.3-0.3-0.6-0.6-1.1l-6.1-12.1
		c-0.2-0.3-0.4-0.8-0.6-1.2c-0.2-0.5-0.4-0.9-0.5-1.3c-0.1-0.4-0.1-0.8,0-1.2c0.1-0.4,0.3-0.8,0.7-1.2c0.4-0.4,0.7-0.7,1.1-0.8
		s0.8-0.2,1.2-0.1s0.8,0.1,1.2,0.3c0.4,0.1,0.9,0.3,1.5,0.6l12.7,4.6c1,0.3,1.6,0.7,1.9,0.9c0.3,0.3,0.5,0.7,0.5,1.2
		c0,0.5-0.1,1-0.5,1.4c-0.2,0.2-0.4,0.4-0.7,0.5c-0.2,0.1-0.5,0.1-0.7,0.1s-0.6-0.1-1-0.2C432.1,429.3,431.8,429.2,431.5,429.1z
		 M422.3,431.3l3.9-4.3l-7.9-3.1L422.3,431.3z"/>
	<path id="XMLID_89_" class="st8" d="M431.5,406.7l-2.6,3.4l11.1,8.6c0.6,0.5,1,1,1.1,1.5c0.1,0.5,0,1-0.4,1.5
		c-0.4,0.5-0.8,0.7-1.3,0.8c-0.5,0-1.1-0.2-1.8-0.7l-11.1-8.6l-2.6,3.4c-0.4,0.5-0.8,0.8-1.3,0.9c-0.4,0.1-0.8,0-1.2-0.3
		c-0.4-0.3-0.6-0.7-0.6-1.1c0-0.4,0.2-0.9,0.6-1.4l7.6-9.9c0.4-0.5,0.8-0.8,1.3-0.9c0.4-0.1,0.8,0,1.2,0.3s0.6,0.7,0.6,1.1
		S431.9,406.1,431.5,406.7z"/>
	<path id="XMLID_91_" class="st8" d="M445.4,411.2l-12.6-8.6c-0.7-0.4-1-0.9-1.2-1.5c-0.1-0.5,0-1,0.3-1.5c0.3-0.5,0.8-0.8,1.3-0.9
		c0.5-0.1,1.1,0.1,1.8,0.6l12.6,8.6c0.7,0.5,1.1,0.9,1.2,1.5s0,1-0.3,1.5c-0.3,0.5-0.7,0.7-1.3,0.8
		C446.7,411.8,446.1,411.6,445.4,411.2z"/>
	<path id="XMLID_93_" class="st8" d="M439.6,387.7c1-1.7,2.2-3,3.7-3.8c1.4-0.8,3-1.2,4.6-1.1c1.7,0.1,3.4,0.7,5.1,1.7
		c1.3,0.8,2.4,1.6,3.2,2.6c0.8,1,1.5,2,1.8,3.2c0.4,1.2,0.5,2.4,0.3,3.6c-0.2,1.3-0.7,2.5-1.4,3.9c-0.8,1.3-1.7,2.3-2.7,3.1
		c-1,0.8-2.1,1.3-3.3,1.5c-1.2,0.2-2.4,0.2-3.7-0.1c-1.3-0.3-2.5-0.8-3.8-1.5c-1.3-0.8-2.3-1.6-3.2-2.6c-0.9-1-1.5-2.1-1.8-3.2
		s-0.4-2.3-0.2-3.6S438.8,388.9,439.6,387.7z M451,387.9c-1.2-0.7-2.4-1.1-3.5-1.3c-1.1-0.1-2.1,0-3,0.5c-0.9,0.5-1.6,1.2-2.2,2.1
		c-0.4,0.7-0.6,1.4-0.7,2.1c-0.1,0.7,0,1.4,0.2,2.1c0.2,0.7,0.7,1.4,1.3,2.1c0.6,0.7,1.4,1.3,2.3,1.8c0.9,0.6,1.9,0.9,2.8,1.1
		c0.9,0.2,1.7,0.2,2.5,0.1c0.8-0.1,1.4-0.4,2-0.8c0.6-0.4,1.1-1,1.5-1.6c0.5-0.9,0.8-1.8,0.7-2.8s-0.3-1.9-1-2.9
		C453.3,389.5,452.3,388.7,451,387.9z"/>
	<path id="XMLID_96_" class="st8" d="M449.7,373.6l13.5-2l-10.4-4.8c-0.7-0.3-1.1-0.7-1.3-1.1c-0.2-0.4-0.2-0.9,0-1.4
		c0.2-0.5,0.6-0.8,1.1-1s1.1,0,1.7,0.3l13.8,6.4c1.5,0.7,2,1.7,1.4,3c-0.1,0.3-0.3,0.6-0.5,0.8c-0.2,0.2-0.5,0.4-0.8,0.5
		s-0.6,0.2-1,0.3c-0.4,0.1-0.7,0.1-1.1,0.2l-13.3,1.9l10.3,4.8c0.7,0.3,1.1,0.7,1.3,1.2c0.2,0.5,0.2,0.9,0,1.4
		c-0.2,0.5-0.6,0.8-1.1,1c-0.5,0.1-1.1,0.1-1.7-0.2l-13.5-6.3c-0.6-0.3-1-0.5-1.3-0.8c-0.3-0.3-0.5-0.7-0.5-1.2s0-0.9,0.2-1.3
		c0.1-0.3,0.3-0.6,0.5-0.7c0.2-0.2,0.4-0.3,0.7-0.4s0.6-0.2,0.9-0.2S449.4,373.7,449.7,373.6z"/>
</g>
<circle id="XMLID_10_" class="st7" cx="75.7" cy="329.2" r="8.6"/>
<circle id="XMLID_14_" class="st7" cx="462.9" cy="329.5" r="8.6"/>
<g id="XMLID_3_">
</g>
<g id="XMLID_24_">
</g>
<g id="XMLID_25_">
</g>
<g id="XMLID_26_">
</g>
<g id="XMLID_27_">
</g>
<g id="XMLID_28_">
</g>
</svg>
