<?xml version="1.0" encoding="utf-8"?>
<!-- Generator: Adobe Illustrator 19.0.0, SVG Export Plug-In . SVG Version: 6.00 Build 0)  -->
<svg version="1.1" id="Layer_1" xmlns="http://www.w3.org/2000/svg" xmlns:xlink="http://www.w3.org/1999/xlink" x="0px" y="0px"
	 viewBox="0 0 566.9 313.2" style="enable-background:new 0 0 566.9 313.2;" xml:space="preserve">
<style type="text/css">
	.st0{fill:#FDD980;}
	.st1{fill:#CD352A;}
</style>
<ellipse id="XMLID_19_" transform="matrix(0.9905 0.1377 -0.1377 0.9905 24.6284 -37.5787)" class="st0" cx="284" cy="159.3" rx="186.5" ry="130.8"/>
<g id="XMLID_17_">
	<path id="XMLID_240_" class="st1" d="M286,151.7c1.2-0.2,2.1-0.3,2.9-0.6c5-1.6,10.1-3.3,15.1-5c0.7-0.2,1.3-0.5,2-0.6
		c4.1-0.6,7.9-1.7,11.4-4.2c1.4-1,3.6-1.1,5.4-1.2c9.2-0.4,18.4-1,27.5-0.8c8.9,0.2,16.3,4.1,22.3,11.3c0.5-0.8,0.9-1.5,1.4-2.2
		c1.4-2.5,2.6-5,4.2-7.4c2.2-3.2,5.3-5.5,9.3-5.7c8.9-0.5,17.9-1.2,26.8-1.3c6.3-0.1,12.3,2.1,17.7,5.5c4.2,2.6,7.3,6,8,11.1
		c0.1,0.4,0.4,0.8,0.6,1.2c2.8-4.1,5.3-8.2,8.2-12c3.8-4.9,7.6-9.9,12.7-13.7c5.4-4.1,11.5-5.4,18-4.6c5.5,0.7,7.7,2.7,9,8
		c0.2,0.8,0.3,1.6,0.6,2.8c0.6-0.6,1-0.8,1.1-1.1c1.8-5.7,3.9-11.4,5.2-17.2c1.2-5.6,0.3-11.3-1.9-16.7c-0.8-2-1.4-4.3-1.5-6.5
		c-0.3-3.2,1.4-5.4,4.5-5.6c3.3-0.2,6.6,0,9.8,0.4c2.7,0.4,3.5,2,2.6,4.6c-0.4,1.3-1.3,2.5-1.9,3.8c-1.3,2.7-2.7,5.2-3.7,8
		c-2.7,7.8-5.3,15.6-7.6,23.6c-2.1,7.2-3.9,14.6-5.8,22.1c1.4,1,2.7,1.9,4.2,3.1c-1.4,1.3-2.8,2.3-3.9,3.6
		c-3.4,3.9-5.8,8.3-7.5,13.1c-1.6,4.4-1.2,8.6,1.1,12.6c0.9,1.5,1.8,3,2.7,4.5c1.1,1.9,2.4,3.8,3.4,5.8c0.8,1.6,1.5,3.4,0.1,5
		c-1.4,1.7-3.4,2.2-5.5,1.8c-3.9-0.7-6.4-3.2-7.5-6.8c-0.9-3-1.2-6.2-1.3-9.4c0-4.1,0.5-8.2,0.9-13.1c-2.9,3.4-5.2,6.3-7.8,9
		c-1.6,1.7-3.3,3.5-5.3,4.6c-4.5,2.4-9,4.8-13.8,6.3c-9.6,2.9-17.5-3-18.2-13c0-0.6-0.1-1.1-0.1-2.2c-2.2,1.9-4.2,3.5-6.2,5.1
		c-8,6.3-16.7,11.1-26.8,12.9c-4.6,0.8-9.2,0.6-13.6-0.9c-8.1-2.7-12.6-8.4-13.3-16.9c-0.1-1.1-0.2-2.1-0.4-3.5
		c-0.5,0.4-1,0.6-1.1,0.9c-6.8,11.6-17.5,18.2-29.5,23.1c-5.3,2.2-10.6,2.9-16.3,2.6c-9.1-0.5-16.3-6.2-18.3-15
		c-1.2-5.5-2.7-11.1-1.7-16.8c0.5-3,1.5-5.9,2.3-9.1c-3,0.8-5.9,1.7-8.9,2.5c-2.8,0.7-5.7,1.3-8.6,2.1c-5.1,1.3-8.5,4.6-10.1,9.5
		c-1.3,4-2.4,8.1-3.4,12.2c-2.6,10.7-5.2,21.3-7.4,32.1c-1.5,7.1-2.2,14.4-3.4,21.7c-0.7,4.3-1.6,8.6-2.7,12.8
		c-2.3,9.5-3.5,19.2-4.3,29c-0.3,3.6-1.1,7.2-1.6,10.8c-0.1,0.9-0.3,1.8-0.5,3.1c2.8,0.3,5.5,0.8,8.1,0.9c8.5,0.3,17,0.9,25.5,0.7
		c16.2-0.2,32.2-2.2,48.1-5.3c16.8-3.3,33.3-7.6,49.5-13.5c9.9-3.6,19.1-8.7,28.2-13.9c6.9-3.9,13.6-8.1,20.3-12.2
		c1.6-1,2.9-2.4,4.2-3.7c2.2-2.5,6.2-3.2,8.6-1.3c0.7,0.5,1.4,1.6,1.3,2.3c-0.1,0.7-1.1,1.4-1.9,1.8c-2.1,1.2-4.6,1.8-6.5,3.3
		c-13.9,10.8-29.5,18.5-45.8,25c-20.4,8.1-41.4,13.8-63,17.6c-19,3.3-38.2,4.4-57.5,3.7c-5.7-0.2-11.3-0.7-16.9-1.3
		c-2.5-0.2-4.4-0.1-6.3,2c-2.4,2.7-5.9,3-9.1,1.1c-1.7-1-3.5-2.2-4.7-3.7c-1.5-1.9-3.4-2.7-5.7-3.1c-17.9-3.5-35.2-8.9-51.9-16.2
		c-19.4-8.4-37.3-19.3-53.4-33c-14.8-12.6-27-27.3-36.4-44.4c-3.5-6.3-7.1-12.6-9.9-19.2c-3.6-8.5-4.7-17.4-2.5-26.7
		c1-4.3,1-8.8,1.5-13.7c1.2,0.1,2.7,0.2,4.4,0.4c-0.2,2.1-0.3,3.8-0.6,5.5c-2.1,15.5,1.3,30.1,7.9,44c10.5,22.3,26.4,40,46,54.7
		c13.4,10,27.1,19.3,42,26.8c16.5,8.2,33.7,14.1,51.8,17.6c0.7,0.1,1.4,0.1,2.3,0.2c0-3.2-0.1-6.2,0-9.2c0.1-4.2,1.9-7.8,4.2-11.1
		c2.7-3.8,5.5-7.7,8.8-11c4.9-5,7.5-11.1,9.6-17.5c3-9.2,4.3-18.8,6.1-28.3c2.8-14.5,6.1-28.9,9.2-43.3c0.2-0.8,0.3-1.6,0.5-2.9
		c-1.3,0.4-2.2,0.7-3.1,1.1c-6.8,2.5-13.2,5.6-19.5,9.2c-2.7,1.6-5.8,2.2-8.8,0.7c-0.8-0.4-1.7-0.9-2.4-1.4
		c-4.7-3.4-4.6-7.1,0.5-9.7c3.1-1.6,6.7-2.2,10.1-3c6.8-1.6,13.6-3,20.3-4.6c6.3-1.5,9.5-5.6,10.8-12.1c2.3-12.3,5-24.5,9.7-36.1
		c4.9-12,9.7-24.1,14.8-36c2.1-4.9,4.7-9.5,7.1-14.2c3.1-6.2,8.3-9,15.2-9c6.8,0,11.7,3.2,15,9c2.2,4,3.3,8.3,3.7,12.8
		c0.5,6.2,0,12.2-2.1,18.1c-3.1,8.7-5.6,17.5-8.9,26.1c-1.9,4.9-4.9,9.4-7.6,14c-1.4,2.3-2.4,2.4-4.6,0.8c-1.3-1-2.6-2.1-3.6-3.4
		c-2.5-3.2-2.4-5.7,0.2-9c4-5.1,7.9-10.3,11.9-15.4c5.1-6.5,6.3-14.2,6.4-22c0-4.6-2.3-8.7-5.7-11.9c-3.5-3.3-7.2-2.8-10.4,1
		c-4,4.8-6.4,10.4-8.9,16c-3.8,8.5-6.6,17.4-8.2,26.6c-1.1,6.3-4.9,11.1-8.7,16c-5,6.4-7.8,13.7-9,21.6
		C286,149.9,286,150.6,286,151.7z M330.6,184.2c2.6-0.7,5.4-1,7.7-2.1c5.5-2.7,10.9-5.7,16.1-8.8c2.3-1.4,4.3-3.4,5.9-5.5
		c3.1-3.9,2.9-7.7-1.4-11.5c-2.2-2-5.1-3.5-8-4.3c-4.1-1.1-8.3-1.7-12.5-1.9c-4.4-0.2-9,0.5-11.8,4.4c-2.9,4.1-5.8,8.4-7.6,13.1
		C315.7,176,321.4,183.6,330.6,184.2z M384.4,166.5c0.2,7,3.9,11.5,10.8,12.2c2.6,0.3,5.5,0,7.9-0.9c7.3-2.5,13.7-6.8,20-11.2
		c1.4-1,2.5-2.5,3.6-3.9c2.9-4.1,2.3-8.5-1.5-11.7c-2.8-2.4-6.1-4.1-9.8-4.7c-3.3-0.5-6.5-1-9.8-1.3c-5.3-0.4-10.3,0.7-13.4,5.4
		c-2.5,3.7-4.6,7.6-6.7,11.6C384.8,163.3,384.8,165,384.4,166.5z M486.1,140.6c-3.5-0.3-6.9-0.1-10-0.9c-6.1-1.6-11.1,0-15.7,3.8
		c-5.5,4.5-9.3,10.3-12.5,16.5c-1.8,3.6-2.3,7.4-0.3,11.2c1.1,2.2,2.8,3.7,5.3,3.2c2.1-0.4,4.4-0.9,6.2-2.1c3.4-2.2,6.5-5.1,9.9-7.5
		C477.7,158.9,482.6,150.2,486.1,140.6z"/>
	<path id="XMLID_239_" class="st1" d="M105.2,83.8c1.5-1.8,2.6-3,3.6-4.2c18.8-22,42.3-37,69-47.3c8.5-3.3,17.4-5.3,26.4-6.5
		c12.9-1.7,25.5-4.8,38-8.1c8.9-2.4,18-3.6,27.3-3.7c14-0.2,28.1-0.9,42.1-1.3c9.8-0.3,19.5,0.3,29.1,2.9c7.2,1.9,14.5,3.3,21.7,5.1
		c5.1,1.3,10,3.1,14.6,5.9c3.4,2.1,7.3,3.2,11,4.7c4.6,1.8,9.3,3.4,13.8,5.5c3.7,1.7,6.6,4.7,8.1,8.6c2,5.4,6,8.9,10.3,12.3
		c3.9,3.2,7.8,6.5,11.8,9.6c0.9,0.7,2.3,1.1,3.5,1.2c4,0.5,8,1.1,11.3,3.6c3.1,2.3,4.2,5.7,2.8,9c-0.3,0.6-0.6,1.3-1.2,1.7
		c-2.5,2-9.8,0.3-10.9-2.7c-2.2-5.9-6.4-10-11.5-13.5c-3.6-2.5-7-5.2-10.6-7.7c-2.1-1.5-4.4-2.8-6.5-4.2c-1.8-1.2-3.7-2.2-5.1-3.8
		c-3.1-3.5-6.9-6-10.8-8.6c-5.1-3.4-10.3-6.6-15.2-10.3c-4.7-3.6-9.9-5-15.7-5.5c-9.7-0.9-19.5-2.1-29.1-3.7
		c-7.4-1.2-14.7-3.4-22.1-5c-5.2-1.1-10.5-1.3-15.8-0.9c-9.1,0.7-18.2,0.9-27.2,1.8c-10.4,1-20.9,2.2-31.3,3.6
		c-13,1.8-25.7,5-38.2,8.8C179.3,37,161.2,45,144.3,55.9C132.7,63.3,122,71.8,112.7,82C110.8,84.1,108.5,84.2,105.2,83.8z"/>
</g>
<g id="XMLID_230_">
	<path id="XMLID_458_" class="st1" d="M56.1,124.4c-0.1,0.4-0.2,0.9-0.2,1.3c0,1.5,0,2.9,0,4.4c0,2.7,0,5.4,0,8.1c0,2,0,2-2,2.1
		c-0.6,0-1.3,0-1.9,0c-0.5,0-0.8-0.3-0.8-0.8c-0.1-0.7-0.2-1.4-0.2-2.1c0-12.7,0-25.5,0-38.2c0-0.8,0.1-1.5,0.2-2.3
		c0-0.5,0.3-0.7,0.7-0.7c1.1,0,2.2,0,3.2,0.1c0.4,0,0.6,0.2,0.6,0.6c0,0.4,0.1,0.8,0.2,1.1c0,1,0,2.1,0.1,3.1c0,0.2,0.1,0.5,0.1,0.7
		c0.6-0.1,0.9-0.4,1.2-0.8c2.7-3.4,6.2-5.3,10.5-5.7c1.7-0.2,3.4,0.1,5.1,0.5c5,1.3,8.5,4.4,10.6,9.1c0.8,1.6,1.1,3.4,1.3,5.1
		c0.3,2.5,0.3,5-0.3,7.5c-0.9,4.3-3.2,7.8-6.9,10.3c-2,1.4-4.4,2.3-6.9,2.6c-2.8,0.4-5.4,0-7.9-1c-2.2-0.9-4-2.4-5.6-4.2
		c-0.3-0.3-0.6-0.6-1-0.9C56.3,124.4,56.2,124.4,56.1,124.4z M55.7,113c-0.1,1.4,0.1,3,0.7,4.5c1.3,3.6,3.6,6.3,7.2,7.8
		c3.5,1.5,7,1.2,10.3-0.5c3.7-2,5.5-5.3,6.1-9.3c0.4-2.3,0.2-4.5-0.4-6.7c-1.3-4.5-4.1-7.5-8.6-8.7c-4.5-1.2-8.5,0.2-11.7,3.5
		C56.8,106.1,55.6,109.2,55.7,113z"/>
	<path id="XMLID_455_" class="st1" d="M202.4,129.7c-1.4,0.5-2.7,0.3-4,0.3c-0.5,0-0.7-0.3-0.7-1c0-0.8,0-1.6-0.1-2.4
		c0-0.2-0.1-0.5-0.1-0.8c-0.7,0.2-1.2,0.5-1.6,0.9c-2.2,2.2-5,3.4-8,3.8c-4.3,0.5-8.4-0.1-11.9-3.1c-1.9-1.6-3-3.6-3.2-6
		c-0.3-2.9,0.2-5.6,2-7.9c1.4-1.8,3.2-2.9,5.3-3.6c2.6-0.9,5.4-1.2,8.1-1c1.9,0.1,3.8,0.3,5.6,0.4c0.9,0.1,1.8,0.4,2.7,0.5
		c0.9,0.1,1.2,0,1.1-1c-0.2-2.1-0.6-4.1-2-5.7c-1.3-1.5-2.9-2.4-4.8-2.7c-2.5-0.5-5-0.4-7.5,0.1c-1.5,0.3-2.9,0.8-4.4,1.3
		c-1.2,0.4-1.6,0.3-2.1-0.9c-0.3-0.6-0.5-1.3-0.5-2c0-0.5,0.2-0.9,0.7-1.1c0.6-0.3,1.2-0.6,1.8-0.8c2.6-1,5.3-1.5,8.1-1.7
		c2.6-0.2,5.2,0.1,7.6,1c3.3,1.1,5.8,3.3,7.2,6.6c0.6,1.6,1,3.2,1,4.9c0,6.9,0,13.8,0,20.7C202.6,128.9,202.5,129.3,202.4,129.7z
		 M197.6,116.9c0-0.5,0-0.8,0-1.1c0-1.3-0.1-1.4-1.4-1.8c-0.2-0.1-0.5-0.2-0.7-0.2c-1.5-0.3-3-0.6-4.5-0.7c-2.9-0.2-5.7-0.3-8.5,0.7
		c-2.7,1-4.4,3-4.6,5.9c-0.1,2.1,0.7,3.8,2.4,5.1c1.6,1.2,3.6,1.7,5.6,1.9c2.1,0.1,4.1-0.3,6-1.1c1.4-0.5,2.6-1.4,3.6-2.5
		C196.9,121.1,197.8,119.1,197.6,116.9z"/>
	<path id="XMLID_452_" class="st1" d="M107.6,114.8c-3.8,0-7.6,0-11.4,0c-0.3,0-0.6,0-0.9,0c-0.8,0.1-1.1,0.3-0.9,1.2
		c0.2,0.9,0.4,1.8,0.8,2.7c1.2,3,3.2,5.3,6.3,6.5c1.9,0.8,3.9,1,5.9,0.9c3-0.2,5.6-1.3,7.9-3.2c2-1.7,2.4-1,3.7,0.2
		c0.8,0.7,0.8,1.6,0,2.4c-1.7,1.7-3.6,3-5.8,3.9c-2,0.8-4,1.2-6.1,1.2c-1.7,0-3.3,0-5-0.5c-2.3-0.7-4.5-1.6-6.4-3.1
		c-2.8-2.2-4.7-5.1-5.7-8.6c-0.6-2.1-0.9-4.3-0.7-6.5c0.2-3.3,1-6.3,2.7-9.1c2-3.2,4.7-5.6,8.4-6.8c4.1-1.3,8.1-1.1,12,0.6
		c2.4,1,4.2,2.7,5.7,4.8c1.8,2.7,2.8,5.7,3.2,8.9c0.1,1.2,0.1,2.3,0,3.4c-0.1,0.7-0.2,0.8-0.9,1c-0.2,0-0.5,0-0.7,0
		C115.6,114.9,111.6,114.9,107.6,114.8C107.6,114.9,107.6,114.9,107.6,114.8z M110.4,110.8C110.4,110.8,110.4,110.8,110.4,110.8
		c1.5,0,3,0,4.5-0.1c1,0,1.2-0.4,1.1-1.3c0-0.3-0.2-0.6-0.2-0.9c-0.1-0.4-0.3-0.8-0.4-1.2c-0.6-2.1-1.7-3.9-3.3-5.4
		c-2.3-2.1-5-2.9-8.1-2.5c-2,0.3-3.8,1-5.3,2.4c-1.6,1.4-2.8,3.2-3.6,5.2c-0.3,0.8-0.5,1.6-0.7,2.4c-0.2,0.9,0.1,1.4,1.1,1.4
		c0.4,0,0.8,0,1.3,0C101.3,110.9,105.8,110.9,110.4,110.8z"/>
	<path id="XMLID_451_" class="st1" d="M261.9,123.5c0.3-0.5,0.5-0.8,0.6-1.1c1.1-2.6,2.1-5.2,3.1-7.9c1.7-4.4,3.4-8.9,5.1-13.3
		c0.5-1.4,1.1-2.8,1.6-4.2c0.2-0.6,0.6-0.9,1.2-0.9c1.2,0,2.3,0,3.5,0c0.7,0,0.8,0.2,0.7,0.9c-0.1,0.4-0.2,0.8-0.4,1.2
		c-1.4,3.4-2.7,6.7-4.1,10.1c-1.9,4.7-3.8,9.4-5.7,14c-1.3,3.1-2.4,6.3-3.8,9.3c-0.8,1.8-1.9,3.5-3,5.2c-0.8,1.3-2,2.2-3.3,2.9
		c-0.8,0.4-1.8,0.6-2.7,0.8c-2.7,0.5-5.3,0.2-7.8-0.8c-1-0.4-1.2-0.7-1-1.7c0.1-0.6,0.4-1.3,0.6-1.9c0.3-0.7,0.7-0.9,1.5-0.7
		c1,0.2,1.9,0.4,2.8,0.7c2.6,0.6,5.4-0.8,6.7-2.9c0.5-0.8,0.9-1.6,1.3-2.4c0.3-0.7,0.3-1.3-0.1-2c-1.6-3.4-3.1-6.9-4.7-10.3
		c-1.7-3.7-3.3-7.3-5-11c-1-2.2-1.9-4.4-2.9-6.6c-0.5-1.1-1-2.1-1.4-3.1c-0.1-0.3-0.3-0.6-0.3-0.9c-0.1-0.6,0-0.8,0.6-0.8
		c1.1,0,2.2,0,3.2,0c0.9,0,1.5,0.4,1.8,1.3c0.7,1.7,1.4,3.4,2.2,5.1c1.1,2.4,2.2,4.8,3.2,7.2c1.7,4,3.5,8,5.2,12
		C261,122.1,261.3,122.8,261.9,123.5z"/>
	<path id="XMLID_450_" class="st1" d="M142.4,130.6c-3.6,0.2-6.8-0.8-9.6-2.6c-2.1-1.3-3.9-3.1-5.2-5.3c-1.1-1.9-2.1-3.8-2.4-6
		c-0.9-5.6,0.1-10.8,3.8-15.3c1.8-2.2,3.9-3.8,6.4-4.9c1.8-0.8,3.7-1.1,5.6-1.3c2.6-0.2,5.1,0.1,7.5,0.9c2.6,0.9,4.8,2.3,6.7,4.4
		c0.5,0.5,0.5,0.9,0,1.5c-0.7,0.7-1.4,1.4-2.1,2.1c-0.3,0.3-0.7,0.3-1,0c-0.5-0.4-1.1-0.8-1.5-1.3c-1.8-1.6-4-2.6-6.3-3
		c-3.1-0.6-6,0.1-8.5,1.9c-3.6,2.6-5.4,6.1-5.5,10.6c0,1.9,0,3.7,0.7,5.5c1.8,4.6,5,7.4,9.9,8.2c3,0.5,5.8-0.3,8.4-1.9
		c1-0.6,1.9-1.3,2.8-2c1-0.7,1.4-0.7,2.3,0.1c0.3,0.3,0.7,0.7,1,1.1c0.5,0.6,0.5,0.9,0.1,1.5c-0.1,0.1-0.2,0.3-0.3,0.4
		c-1.9,2.1-4.2,3.7-6.9,4.6C146.2,130.4,144.2,130.8,142.4,130.6z"/>
	<path id="XMLID_449_" class="st1" d="M41.6,102.5c-1.3-0.6-2.4-1.1-3.6-1.6c-1.7-0.8-3.6-1.3-5.5-1.4c-1.8-0.1-3.5,0.1-5.1,1
		c-1,0.6-1.9,1.4-2.3,2.6c-0.5,1.6-0.2,3.1,1.2,4.2c0.5,0.4,1,0.7,1.6,1c1.8,1,3.8,1.6,5.8,2.2c2.6,0.7,5.1,1.6,7.4,3.2
		c2.1,1.4,3.3,3.4,3.4,6c0.1,2.1-0.3,4-1.4,5.8c-0.9,1.3-2,2.4-3.3,3.1c-1.8,1-3.7,1.6-5.8,1.7c-3.2,0.3-6.2-0.4-9.2-1.4
		c-1.7-0.6-3.2-1.3-4.7-2.3c-0.3-0.2-0.5-0.3-0.8-0.6c-0.3-0.3-0.5-0.7-0.2-1.1c0.5-0.8,1.1-1.6,1.7-2.4c0.3-0.3,0.6-0.2,0.9,0
		c1.6,1.1,3.3,1.9,5.1,2.7c2.5,1,5.1,1.2,7.7,1c1.4-0.1,2.6-0.8,3.7-1.7c0.9-0.8,1.5-1.8,1.7-3c0.3-1.7-0.5-3.1-1.8-4.1
		c-1.1-0.9-2.4-1.5-3.8-1.9c-2.2-0.7-4.5-1.3-6.7-2c-1.6-0.6-3.2-1.2-4.5-2.4c-2.6-2.4-3.4-5.3-2.5-8.6c0.9-3.4,3.3-5.3,6.5-6.4
		c3.7-1.2,7.3-0.8,10.9,0.3c1.5,0.4,2.9,1.1,4.2,1.8c1.4,0.7,1.4,1,0.7,2.4c-0.2,0.4-0.5,0.8-0.8,1.2C42,102,41.8,102.2,41.6,102.5z
		"/>
	<path id="XMLID_448_" class="st1" d="M225.8,111.4c0-3,0-5.9,0-8.9c0-1.9,0-1.9-1.9-2.1c-0.5,0-1,0-1.5,0c-1-0.1-1.3-0.3-1.4-1.3
		c-0.1-0.7,0-1.5,0.1-2.2c0-0.5,0.3-0.8,0.9-0.8c0.9,0,1.7-0.1,2.6-0.2c1-0.1,1.1-0.2,1.1-1.1c0.1-2.1,0-4.2,0.1-6.3
		c0-0.7,0.1-1.4,0.2-2.1c0-0.4,0.3-0.5,0.6-0.6c1.1-0.3,2.3-0.1,3.4,0c0.5,0.1,0.7,0.4,0.7,0.9c0,0.9,0.1,1.7,0.2,2.6
		c0,1.6,0,3.2,0,4.8c0,0.3,0,0.6,0,0.9c0.1,0.7,0.4,0.9,1.1,0.9c2.3,0,4.6,0,6.9,0.1c0.3,0,0.7,0,1,0c1.7,0.1,1.7,0.1,1.7,1.8
		c0,0.5-0.1,1-0.1,1.5c0,0.6-0.3,0.8-0.8,0.9c-0.3,0.1-0.6,0.1-0.9,0.1c-2.3,0-4.5,0-6.8,0c-2.1,0-2.2,0.1-2.2,2.2
		c0,5.7,0,11.5,0,17.2c0,1.3,0.1,2.5,0.8,3.7c0.5,1,1.3,1.7,2.4,2.1c1.9,0.6,3.8,0.4,5.7,0c1.8-0.5,1.9-0.4,1.9,1.5
		c0,1.8-0.8,2.8-2.6,3.1c-2.3,0.5-4.5,0.6-6.7,0.1c-2.7-0.5-4.5-2.1-5.7-4.6c-0.8-1.7-0.8-3.5-0.8-5.3
		C225.8,117.3,225.8,114.3,225.8,111.4C225.8,111.4,225.8,111.4,225.8,111.4z"/>
	<path id="XMLID_447_" class="st1" d="M215.6,129.7c-1.7,0.4-3.3,0.4-4.9,0c-0.1-0.9-0.2-1.7-0.2-2.4c0-14.2,0-28.4,0-42.6
		c0-0.7,0.1-1.4,0.2-2.1c0-0.4,0.2-0.5,0.6-0.6c1.2-0.3,2.3,0,3.4,0c0.4,0,0.6,0.3,0.7,0.7c0.1,0.5,0.2,1,0.2,1.5
		c0,6.7,0,13.4,0.1,20.1c0,7.6,0,15.2,0,22.8C215.7,128,215.6,128.8,215.6,129.7z"/>
	<path id="XMLID_446_" class="st1" d="M166.5,129.6c-1.4,0.5-2.7,0.3-4.1,0.3c-0.4,0-0.7-0.4-0.8-0.9c0-0.3,0-0.6,0-0.9
		c0-9.7,0-19.4,0-29.1c0-0.8,0.2-1.5,0.3-2.3c0.1-0.5,0.3-0.7,0.8-0.7c1,0,2,0,3,0c0.7,0,0.8,0.3,0.9,0.9c0,0.2,0,0.5,0,0.7
		c0,10,0,20.1,0,30.1C166.7,128.4,166.6,129,166.5,129.6z"/>
	<path id="XMLID_425_" class="st1" d="M161.3,83.3c0.3-0.1,0.6-0.3,0.9-0.3c1.3,0,2.6,0,3.9,0c0.7,0,1,0.4,1.1,1.1
		c0,1.1,0.1,2.3,0,3.5c0,0.6-0.3,0.9-0.9,0.9c-1.2,0-2.4,0.1-3.6,0c-0.9,0-1.2-0.4-1.2-1.3C161.3,85.8,161.3,84.6,161.3,83.3z"/>
</g>
<g id="XMLID_231_">
	<path id="XMLID_443_" class="st1" d="M369,231.4c-1.8,0.7-2.2,0.5-3.1-1.5c-0.3,0.2-0.7,0.3-1,0.5c-2.5,1.9-5.3,2.2-8.3,1.4
		c-1.4-0.4-2.6-1.3-3.4-2.5c-0.8-1.1-1-2.5-0.8-3.9c0.3-2.7,1.9-4.2,4.4-4.9c2.1-0.6,4.3-0.6,6.4-0.4c0.6,0.1,1.2,0.2,1.8,0.3
		c0.8,0.1,1,0,1-0.7c0.1-2-1.3-3.7-3.2-4.3c-2.1-0.6-4.2-0.4-6.2,0.3c-0.4,0.1-0.8,0.2-1.2,0.4c-0.4,0.1-0.7,0-0.8-0.4
		c-0.1-0.1-0.1-0.2-0.2-0.4c-0.4-1.1-0.3-1.4,0.8-1.8c1-0.4,2.1-0.7,3.2-0.8c1.8-0.2,3.5-0.3,5.3,0.1c2.4,0.5,3.9,1.9,4.7,4.1
		c0.4,1.1,0.6,2.4,0.6,3.6c0.1,3.2,0,6.3,0,9.5C369.2,230.5,369.1,231,369,231.4z M366.3,224.4c0-1,0-1.1-1-1.5
		c-0.5-0.2-0.9-0.3-1.4-0.4c-0.8-0.1-1.6-0.2-2.4-0.3c-1.8-0.2-3.5,0.2-5,1.1c-0.4,0.3-0.8,0.6-1,1c-0.9,2-0.1,4.1,1.9,4.9
		c1.7,0.7,3.4,0.5,5.1,0.1C364.9,228.8,366.3,226.7,366.3,224.4z"/>
	<path id="XMLID_440_" class="st1" d="M415,212.4c1.4,0,2.7,0.2,4,0.8c3.7,1.8,5.7,4.8,5.8,8.9c0.1,4.1-1.8,7.3-5.6,9.2
		c-2.2,1.1-4.6,1.2-7,0.6c-4-1.1-6.2-3.8-7.1-7.7c-0.4-1.7-0.1-3.3,0.3-4.8c0.9-3.1,3-5.2,6-6.4c0.6-0.2,1.2-0.4,1.8-0.5
		C413.7,212.4,414.3,212.4,415,212.4z M415,229.6c2.3,0.3,5.1-2,5.9-3.5c1.3-2.9,1.3-5.7-0.6-8.4c-2.1-2.9-5.7-3.5-8.6-2
		c-2.2,1.2-3.4,3.1-3.7,5.5C407.3,225.5,410.2,229.5,415,229.6z"/>
	<path id="XMLID_437_" class="st1" d="M470.4,224.4c0,1.6,0,3.2,0,4.8c0,0.5-0.1,1-0.1,1.4c-0.1,0.9-0.2,0.9-0.9,1
		c-1,0-1.3-0.1-1.5-0.9c-0.3-1.2-0.3-1.2-1.4-0.5c-1.4,0.9-2.8,1.6-4.5,1.9c-0.9,0.2-1.7,0-2.6-0.1c-1.8-0.3-3.4-1-4.5-2.6
		c-0.6-0.8-0.9-1.7-1-2.6c-0.1-1.9,0.3-3.7,1.9-4.9c1.5-1.1,3.2-1.7,5.1-1.7c2-0.1,4,0,5.9,0.4c0.7,0.2,1.1-0.1,1-0.9
		c-0.2-2.2-1.3-3.8-3.6-4.4c-2.1-0.6-4.1-0.2-6.2,0.4c-0.4,0.1-0.7,0.3-1.1,0.4c-0.4,0.1-0.7,0-0.9-0.4c-0.5-0.7-0.2-1.7,0.6-2.1
		c1.1-0.5,2.2-0.8,3.3-0.9c2.1-0.2,4.2-0.2,6.2,0.5c2.3,0.9,3.8,2.6,4.1,5.1C470.5,220.4,470.4,222.4,470.4,224.4
		C470.4,224.4,470.4,224.4,470.4,224.4z M467.8,225c0-2-0.3-2.2-1.9-2.5c-0.1,0-0.3-0.1-0.4-0.1c-1.9-0.3-3.7-0.6-5.6,0
		c-0.6,0.2-1.2,0.4-1.7,0.7c-2.1,1.5-2.1,3.7-0.6,5.4c1,1.1,2.4,1.5,3.9,1.4c1.3-0.1,2.5-0.3,3.6-0.9
		C466.9,228.1,467.7,226.6,467.8,225z"/>
	<path id="XMLID_434_" class="st1" d="M514,222.1c0,6-4.4,10-9.9,10c-5.3,0-9.5-4.1-9.7-9.3c-0.2-6.2,4.3-10.3,9.9-10.3
		C509.5,212.5,514.1,216.4,514,222.1z M497.1,222.4c0,1.6,0.6,3.1,1.5,4.4c1.1,1.7,2.8,2.6,4.8,2.9c3.1,0.4,6.1-1.6,7.2-3.9
		c2.1-4.2-0.3-9.9-5-10.9c-2.5-0.5-4.6,0.3-6.2,1.9C497.8,218.2,497,220.2,497.1,222.4z"/>
	<path id="XMLID_433_" class="st1" d="M517.8,213.1c0.8-0.1,1.6-0.4,2,0.2c0.3,0.4,0.3,1.1,0.5,1.7c0.5,0.2,0.9-0.1,1.2-0.4
		c1-1,2.2-1.7,3.5-2c3.8-0.8,7.6,0.7,8.7,5c0.3,1.3,0.4,2.5,0.4,3.8c0,2.6,0,5.2,0,7.7c0,0.5-0.1,1-0.2,1.5c-0.1,0.7-0.3,0.8-1,0.8
		c-0.8,0-1.3-0.2-1.4-0.8c-0.1-0.6-0.2-1.2-0.2-1.8c0-2.9,0-5.7,0-8.6c0-1.3-0.4-2.5-1.1-3.6c-0.8-1.2-2-1.8-3.3-1.9
		c-3-0.3-5.7,1.3-6.4,4.3c-0.2,1-0.3,1.9-0.3,2.9c0,2.6,0,5.2,0,7.8c0,0.1,0,0.2,0,0.3c-0.1,0.4,0.1,1-0.4,1.2
		c-0.6,0.2-1.2,0.2-1.8-0.1c-0.1-0.1-0.2-0.3-0.3-0.5c-0.1-0.3,0-0.6,0-0.9c0-5.2,0-10.4,0-15.6
		C517.7,213.9,517.8,213.5,517.8,213.1z"/>
	<path id="XMLID_432_" class="st1" d="M385.8,214.8c-0.2,0.3-0.3,0.6-0.5,0.9c-0.5,0.6-0.7,0.7-1.5,0.4c-1.2-0.4-2.4-0.8-3.6-1.1
		c-1-0.3-2.1-0.1-3.1,0.3c-1.4,0.5-2,2.2-1.3,3.4c0.3,0.6,0.9,0.9,1.5,1.1c1.5,0.5,2.9,1.1,4.4,1.6c1.2,0.4,2.3,1,3.3,1.8
		c1,0.8,1.4,1.9,1.4,3.1c-0.1,2.9-1.4,4.9-4.4,5.5c-3.2,0.7-6.3,0.2-9.1-1.5c-0.4-0.2-0.9-0.6-0.7-1c0.2-0.5,0.5-1,1-1.4
		c0.2-0.1,0.7,0,1,0.2c1.2,0.6,2.4,1.2,3.7,1.5c1.3,0.3,2.6,0.4,3.9-0.1c1.3-0.5,2-1.6,1.9-2.9c0-0.4-0.2-0.8-0.5-1.1
		c-0.9-0.9-2-1.3-3.1-1.7c-1.2-0.4-2.5-0.7-3.7-1.2c-1.4-0.5-2.8-1.3-3.4-2.8c-0.6-1.6-0.6-3.1,0.4-4.6c1.6-2.4,4.1-2.9,6.7-2.6
		c1.4,0.1,2.8,0.4,4,1C384.8,213.8,385.4,214,385.8,214.8z"/>
	<path id="XMLID_431_" class="st1" d="M395.5,212.4c2,0.1,4,0.5,5.8,1.6c0.7,0.5,0.8,0.7,0.4,1.4c-0.5,1-0.9,1.1-1.9,0.6
		c-1-0.5-2.1-0.9-3.3-1.1c-1.1-0.2-2.2,0-3.2,0.3c-0.9,0.3-1.5,1.1-1.6,2c-0.1,1,0.3,1.7,1.2,2.1c0.7,0.3,1.4,0.7,2.1,0.9
		c0.9,0.3,1.9,0.6,2.9,0.9c1.2,0.3,2.2,1,3.2,1.8c1.4,1.1,1.7,2.6,1.5,4.2c-0.3,2.2-1.7,3.7-3.8,4.4c-1.7,0.6-3.4,0.7-5.1,0.1
		c-0.8-0.3-1.7-0.5-2.5-0.6c-0.9-0.2-1.6-0.7-2.3-1.2c-0.6-0.4-0.7-0.7-0.3-1.3c0.5-0.7,0.9-1.3,2.2-0.6c1.4,0.8,2.9,1.3,4.5,1.6
		c1,0.2,2,0,3-0.4c0.3-0.1,0.6-0.3,0.9-0.6c1.3-1.2,1.2-2.9-0.3-3.9c-0.7-0.5-1.6-0.8-2.4-1.1c-1.3-0.5-2.6-0.8-3.9-1.2
		c-1.3-0.5-2.4-1.3-3-2.5c-0.8-1.6-0.7-3.3,0.2-4.9c0.6-0.9,1.4-1.6,2.5-2C393.1,212.7,394.3,212.3,395.5,212.4z"/>
	<path id="XMLID_430_" class="st1" d="M436.6,232.3c-2.5,0.1-4.5-1-6.3-2.5c-1.8-1.5-2.9-3.4-3.3-5.7c-0.5-3.3,0.3-6.2,2.6-8.7
		c1.4-1.5,3-2.4,5-2.8c2.1-0.4,4.2-0.1,6.2,0.6c1,0.3,1.9,0.9,2.6,1.7c0.6,0.8,0.5,1.7-0.3,2.2c-0.4,0.2-0.7,0.3-1.1,0
		c-0.3-0.2-0.7-0.5-1-0.7c-1.1-0.7-2.2-1.2-3.4-1.5c-2-0.4-3.6,0.3-5,1.5c-2.4,1.9-3.5,6.1-1.8,9.4c1.3,2.5,4.2,4,7,3.6
		c1.3-0.2,2.5-0.8,3.7-1.5c0.3-0.2,0.5-0.3,0.8-0.5c0.5-0.4,0.9-0.3,1.3,0c0.8,0.5,0.8,1.2,0.2,1.8c-1.3,1.3-2.8,2.3-4.6,2.7
		C438.2,232.2,437.4,232.2,436.6,232.3z"/>
	<path id="XMLID_429_" class="st1" d="M475.8,207.3c0.3,0,0.5-0.1,0.7-0.1c0.4,0,0.8,0,1.4,0c0.1,0.5,0.2,1,0.2,1.5c0.1,1,0,2,0.1,3
		c0,0.8,0.3,1,1.1,1.1c1,0,2,0,2.9,0.1c0.3,0,0.6,0,0.8,0c1,0.1,1.4,0.9,1,1.8c-0.1,0.2-0.3,0.3-0.4,0.4c-0.4,0.1-0.9,0.2-1.3,0.2
		c-1,0-2.1,0-3.1,0.1c-0.8,0-0.9,0.2-0.9,1c0,3.3,0,6.7,0,10c0,0.6,0.3,1.3,0.5,1.9c0.2,0.6,0.7,0.9,1.3,1.1
		c0.9,0.3,1.8,0.4,2.7,0.2c0.1,0,0.2-0.1,0.3-0.1c0.6-0.1,1.1,0.1,1.2,0.5c0.2,0.6-0.1,1.4-0.7,1.6c-1.6,0.5-3.3,0.7-4.9,0.1
		c-1.6-0.6-2.6-1.8-2.8-3.6c-0.1-0.7-0.1-1.5-0.1-2.2c0-3.1,0-6.2,0-9.3c0-1.1-0.1-1.2-1.2-1.4c-0.2,0-0.4-0.1-0.6-0.1
		c-0.7-0.2-0.9-0.5-0.8-1.3c0-0.6,0.2-0.8,0.9-0.9c0.2,0,0.4,0,0.6-0.1c0.9-0.1,1.1-0.3,1.1-1.2c0-1.1,0-2.2,0-3.2
		C475.7,208,475.8,207.7,475.8,207.3z"/>
	<path id="XMLID_428_" class="st1" d="M450.1,212.9c0.1,0.4,0.2,0.7,0.2,1.1c0.1,3.6,0.1,7.2,0.2,10.9c0,1.7-0.1,3.3-0.2,5
		c0,0.2,0,0.5-0.1,0.7c-0.2,0.9-0.3,1-1,1c-0.9,0-1.2-0.2-1.4-0.9c-0.1-0.8-0.2-1.6-0.2-2.4c0-4.4,0-8.8,0-13.2c0-0.3,0-0.7,0-1
		c0.1-1,0.2-1.2,1.3-1.2C449.3,212.8,449.6,212.8,450.1,212.9z"/>
	<path id="XMLID_427_" class="st1" d="M488,213.1c0.5-0.1,0.9-0.2,1.3-0.2c1-0.1,1.2,0.1,1.3,1.1c0,0.4,0.1,0.9,0.1,1.4
		c0,4.8,0,9.5,0,14.3c0,0.3,0,0.7,0,1c-0.1,0.7-0.2,0.8-0.9,0.9c-0.1,0-0.3,0-0.4,0c-0.9,0-1.1-0.2-1.2-1c0-0.2,0-0.4,0-0.6
		c0-4.9,0-9.8-0.1-14.7C487.9,214.5,488,213.8,488,213.1z"/>
	<path id="XMLID_423_" class="st1" d="M448.8,208.6c-1.1,0.1-1.4-0.3-1.4-1.4c0-1.3,0.2-1.6,1.6-1.6c1.1,0,1.4,0.3,1.4,1.4
		C450.4,208.3,450.2,208.6,448.8,208.6z"/>
	<path id="XMLID_422_" class="st1" d="M490.5,208.1c-0.8,0.5-1.6,0.6-2.5,0.2c0-0.2-0.1-0.5-0.1-0.7c-0.1-1.6,0.2-1.9,1.8-1.8
		c0.8,0,0.9,0.1,0.9,0.9c0,0.2,0,0.3,0,0.5C490.6,207.4,490.6,207.8,490.5,208.1z"/>
</g>
<g id="XMLID_2_">
	<path id="XMLID_3_" class="st1" d="M533.3,201.2h7.6v1.4h-3v8h-1.7v-8h-3V201.2z"/>
	<path id="XMLID_20_" class="st1" d="M542,201.2h2.3l2.6,7.4h0l2.5-7.4h2.3v9.4h-1.6v-7.3h0l-2.6,7.3h-1.4l-2.6-7.3h0v7.3H542V201.2
		z"/>
</g>
<g id="XMLID_18_">
</g>
<g id="XMLID_22_">
</g>
<g id="XMLID_23_">
</g>
<g id="XMLID_24_">
</g>
<g id="XMLID_25_">
</g>
<g id="XMLID_26_">
</g>
</svg>
