<?xml version="1.0" encoding="utf-8"?>
<!-- Generator: Adobe Illustrator 19.0.0, SVG Export Plug-In . SVG Version: 6.00 Build 0)  -->
<svg version="1.1" id="Layer_1" xmlns="http://www.w3.org/2000/svg" xmlns:xlink="http://www.w3.org/1999/xlink" x="0px" y="0px"
	 viewBox="0 0 566.9 224" style="enable-background:new 0 0 566.9 224;" xml:space="preserve">
<style type="text/css">
	.st0{fill:#0681C5;}
	.st1{fill:#6CB445;}
</style>
<g id="XMLID_1_">
	<path id="XMLID_60_" class="st0" d="M34.3,140.2c4,1.5,7.7,3.2,11.6,4.4c4.8,1.4,9.6,2.7,14.5,3.6c3.7,0.7,7.6,0.9,11.4,1
		c6.4,0.1,12.5-1.3,18.1-4.5c5.9-3.5,9.6-8.5,9.4-15.7c-0.2-5.7-3.1-9.8-7.6-13.1c-4.3-3.2-9.3-5.1-14.2-7.2
		c-6-2.5-12.1-4.8-18.1-7.4c-6.5-2.8-12.5-6.5-17.5-11.6c-5.4-5.4-8.7-12-9.8-19.6c-1.2-8.2-0.8-16.3,1.8-24.2
		c3.4-10.3,10.1-18,19.7-23.1c7.5-4,15.6-6.2,24.1-6.9c4.5-0.4,9.1-0.7,13.7-0.4c9.9,0.6,19.7,1.8,29.1,4.9c2.2,0.7,2.3,0.9,2.3,3.1
		c-0.1,7-0.3,14-0.4,21c0,0.6-0.1,1.1-0.1,2c-0.8-0.2-1.5-0.4-2.2-0.6c-7.4-2.8-15.1-4.8-23-5.5c-4-0.3-8-0.7-12-0.4
		c-7.5,0.4-14.1,3.1-18.3,9.7c-2.4,3.9-3.1,8.3-2.7,12.7c0.6,5.4,4,8.9,8.5,11.3c4.9,2.7,10.2,4.8,15.3,7c6.7,2.9,13.6,5.6,20.2,8.7
		c5.3,2.5,10,5.9,13.9,10.3c5,5.6,8.2,12.1,9.1,19.7c0.8,6.2,0.8,12.3-0.5,18.5c-1.8,8.7-5.9,15.9-12.6,21.8
		c-6.6,5.8-14.4,9.1-22.9,11.1c-8.9,2.1-17.9,2.7-27,2.3c-9-0.4-17.9-1.6-26.5-4c-1.9-0.5-3.8-0.9-5.7-1.3c-1.3-0.3-2-0.9-2-2.3
		c0-8.2,0-16.3,0-24.5C34,140.8,34.1,140.6,34.3,140.2z"/>
	<path id="XMLID_57_" class="st0" d="M398.7,116.4c0.5-13.2,3.6-25.8,12.2-36.6c5.7-7.2,12.9-12.4,21.4-15.8
		c7.5-3,15.3-4.4,23.4-4.5c8.1-0.1,16,1,23.6,3.7c9.7,3.5,17.9,9.3,24.2,17.6c6,8,9.3,16.9,10.6,26.8c0.4,3.1,0.9,6.3,0.8,9.5
		c-0.4,16.9-5.5,31.9-18.7,43.3c-7.3,6.3-15.9,10.2-25.4,11.9c-4.9,0.9-9.9,1.5-14.8,1.4c-9.7-0.1-19.1-1.8-27.9-6.3
		c-11.6-5.9-19.9-14.8-24.8-26.9C400.1,132.8,398.8,124.9,398.7,116.4z M429.1,114c-0.1,7.8,0.8,14.8,3.6,21.5
		c3.3,8.1,9,13.5,17.7,15.3c4.1,0.9,8.3,0.9,12.4,0.1c3-0.6,6-1.6,8.6-3.5c5.9-4.2,9.2-10,11.1-16.8c1.6-5.6,2.1-11.4,2-17.2
		c0-4.8-0.8-9.4-2.4-13.9c-2.1-5.8-5.5-10.5-10.7-14c-4.7-3.1-9.8-4-15.4-4.1c-11.3-0.1-20,7-23.9,16.2
		C429.9,103.1,428.8,108.8,429.1,114z"/>
	<path id="XMLID_56_" class="st0" d="M299.4,84.6c-1.3-0.3-2.6-0.6-3.8-1c-5.3-1.6-10.7-2.6-16.3-3.1c-4.1-0.3-8.1-0.6-12.2,0.2
		c-3.2,0.6-6.3,1.7-8.7,4.2c-4.2,4.4-3.8,10.8,1.4,14.1c2.6,1.7,5.7,2.8,8.7,3.9c4.1,1.5,8.5,2.5,12.6,4.1c3.7,1.4,7.4,3,10.9,5
		c7.7,4.4,12,11.3,13.3,20c1.1,7.4,0.3,14.5-3,21.2c-2.7,5.5-6.9,9.7-12.1,12.8c-7.6,4.6-16.1,6.6-24.9,7.3c-12.5,1-24.7-1-36.8-3.9
		c-1.3-0.3-1.9-0.8-1.8-2.1c0.3-4.1,0.5-8.3,0.8-12.4c0.2-2.4,0.4-4.9,0.7-7.3c0.1-0.5,0.2-1.1,0.4-1.7c0.6,0.2,1.1,0.2,1.5,0.4
		c6.4,3.1,13.1,5.2,20.3,6c4.3,0.4,8.5,0.7,12.7-0.2c4.2-0.9,8.1-2.5,10.7-6.3c3.4-5.2,2.2-11.6-2.9-15.1c-3.3-2.3-7.2-3.5-11-4.7
		c-5.2-1.7-10.4-3.2-15.6-5.1c-4.6-1.7-8.6-4.3-12-7.9c-3.9-4.2-5.9-9.3-6.6-14.9c-0.5-4.3-0.4-8.5,0.6-12.6c1.1-4.8,3.3-9,6.6-12.7
		c5.8-6.6,13.3-9.7,21.5-11.8c4.9-1.2,9.9-1.7,14.8-1.7c7.7,0.1,15.5,0.6,23.1,2.4c2.1,0.5,4.3,0.9,6.5,1.4c1,0.2,1.6,0.7,1.6,1.8
		c-0.2,6.1-0.3,12.2-0.5,18.3C299.8,83.6,299.6,83.9,299.4,84.6z"/>
	<path id="XMLID_55_" class="st0" d="M394.3,146.6c0.5,8,0.9,15.6,1.3,23.4c-2.4,0.6-4.7,1.3-7,1.7c-4.7,0.7-9.4,1.1-14.1,1.6
		c-2.9,0.3-5.9,0.5-8.8,0.4c-9.3-0.4-18.3-1.8-26.7-6.2c-10.1-5.3-17.2-13.3-21.6-23.7c-3-7-4.5-14.4-5.1-22.1
		c-0.8-10,0.3-19.7,3.8-29.1c4.4-12.1,12-21.5,23.5-27.4c5.4-2.8,11.2-4.6,17.3-5.2c3.2-0.3,6.5-0.9,9.7-0.8
		c8.2,0.2,16.5,0.9,24.5,3c0.6,0.1,1.1,0.3,1.6,0.5c0.3,0.1,0.6,0.3,1,0.6c-0.8,7.3-1.7,14.5-2.5,22c-0.7-0.2-1.3-0.2-1.7-0.4
		c-6.7-2.8-13.7-3.8-20.9-3.1c-10.1,0.9-17.6,6.1-22.1,15.2c-3.9,7.9-4.6,16.4-3.7,25.1c0.5,4.6,1.4,9,3.4,13.2
		c4.5,9.6,11.8,15,22.5,16c7.8,0.7,15.2-1.1,22.5-3.6C392,147.3,392.9,147.1,394.3,146.6z"/>
	<path id="XMLID_54_" class="st0" d="M228.5,60.7c-0.1,0.5-0.2,0.9-0.3,1.4c-4.1,10.5-8.1,21-12.2,31.5c-3.7,9.7-7.5,19.3-11.2,29
		c-4.1,10.7-8.2,21.5-12.4,32.2c-4.2,10.9-8.5,21.7-12.7,32.6c-2.5,6.4-4.9,12.8-7.3,19.2c-0.5,1.3-1.1,2-2.6,2
		c-7.5-0.1-15,0-22.5,0c-0.5,0-1.1-0.2-1.9-0.3c0.3-0.9,0.4-1.7,0.7-2.4c4.4-12,8.8-23.9,13.2-35.9c4.2-11.4,8.4-22.8,12.6-34.2
		c5.3-14.6,10.7-29.1,16-43.7c3.6-9.8,7.2-19.6,10.8-29.4c0.8-2.2,0.8-2.2,3.1-2.2c8.7,0,17.3-0.1,26-0.1
		C227.9,60.4,228.1,60.5,228.5,60.7z"/>
	<path id="XMLID_53_" class="st1" d="M108.8,57.1c0.8-0.2,1.3-0.4,1.7-0.4c11.7,1.2,23,3.9,33.4,9.5c6.7,3.6,12.7,8.3,17.3,14.5
		c4.1,5.6,7,11.8,8,18.7c0.9,6.6,0.8,13.2-0.2,19.7c-1.6,10.3-5.4,19.8-10.3,28.9c-0.3,0.6-0.8,1.2-1.4,2.2c-0.4-1-0.7-1.7-0.8-2.3
		c-1.5-6.3-2.9-12.7-4.5-19c-1.9-7.4-4.7-14.6-7.9-21.6c-3.8-8.5-8.5-16.6-13.9-24.1c-4.7-6.5-9.5-12.9-15-18.6
		c-1.9-1.9-3.7-3.9-5.5-5.9C109.5,58.3,109.3,57.8,108.8,57.1z"/>
	<g id="XMLID_3_">
		<path id="XMLID_16_" class="st0" d="M511.3,61.2h9.5V63h-3.7v9.9h-2V63h-3.7V61.2z"/>
		<path id="XMLID_19_" class="st0" d="M522.1,61.2h2.9l3.2,9.1h0l3.1-9.1h2.8v11.7h-1.9v-9h0l-3.2,9h-1.7l-3.2-9h0v9h-1.9V61.2z"/>
	</g>
</g>
<g id="XMLID_18_">
</g>
<g id="XMLID_21_">
</g>
<g id="XMLID_22_">
</g>
<g id="XMLID_23_">
</g>
<g id="XMLID_24_">
</g>
<g id="XMLID_25_">
</g>
</svg>
