<?xml version="1.0" encoding="utf-8"?>
<!-- Generator: Adobe Illustrator 19.0.0, SVG Export Plug-In . SVG Version: 6.00 Build 0)  -->
<svg version="1.1" id="Layer_1" xmlns="http://www.w3.org/2000/svg" xmlns:xlink="http://www.w3.org/1999/xlink" x="0px" y="0px"
	 viewBox="0 0 566.9 566.9" style="enable-background:new 0 0 566.9 566.9;" xml:space="preserve">
<style type="text/css">
	.st0{fill:#C24E2C;}
	.st1{fill:#688439;}
</style>
<g id="XMLID_1_">
	<path id="XMLID_13_" class="st0" d="M430.6,422.2c1.4-7.1,10.8-9.7,37.1-1.9l5.3-20.6c0.5-1.7-0.5-3.5-2.3-4.1
		c-29.4-9.6-57.8-3.8-67.8,19c-0.2,0.5-0.9,0.6-1.3,0.1c-16.7-22.7-49.4-26-88.3-20.1c-1.3,0.2-2.3,1.3-2.3,2.7v28.2
		c-7.6-21.3-23.8-34.2-49.5-34.2c-22.8,0-40.8,11.8-50.7,34.5c-6.4-18.6-20.4-34.5-48.5-34.5c-29.3,0-47.4,17.8-52.5,44
		c-0.4,2-2.1,3.4-4.2,3.4H74.3c-1.5,0-2.8-1.2-2.8-2.8v-16c0-1.4,1.1-2.5,2.5-2.5h38.5v-24.1H43.4v1.7V505h25.4
		c1.5,0,2.7-1.2,2.7-2.7v-37.7c0-1.5,1.2-2.8,2.8-2.8h29.8c3.2,0,6,2.3,6.5,5.5c5,26.5,26.2,39.7,51.7,39.7
		c20.1,0,40.5-11.9,48.3-34c9.6,22.9,26.5,34.3,50.9,34c24.6-0.1,40.7-12.7,48.9-35.3l0.8,0.5V504c59.4,9,96.3-5.5,99-56
		c12.3,13.5,39.4,13.2,38.2,26.1c-1.1,10.7-15.5,8.6-31.4,6.1l-15.4,20.3c35.1,13,67.5,5.6,74.8-20
		C487.6,433,427.2,441.8,430.6,422.2z M159.8,483.8c-12.7,0-23-15.5-23-34.6s10.3-34.6,23-34.6c12.7,0,23,15.5,23,34.6
		S172.5,483.8,159.8,483.8z M260.6,483.8c-12.7,0-23-15.5-23-34.6s10.3-34.6,23-34.6c12.7,0,23,15.5,23,34.6
		S273.3,483.8,260.6,483.8z M343.7,484c-1.3-0.1-2.5-0.9-2.9-2.1l-0.3-0.7c-0.3-0.8-0.5-1.7-0.5-2.6v-61.3c0-1,0.7-1.8,1.7-1.9
		c24.2-2.4,37.6,7.4,37.8,31.9C378.9,474,365.1,484.9,343.7,484z"/>
	<path id="XMLID_9_" class="st1" d="M282.7,105.8c41.1-53.3,113.5-54.7,176.4-31.6c2.4,0.7,3.7,3.2,3,5.6l-15.4,59.4
		c-70.9-20.9-96-13.8-99.8,5.2c-9.2,52.7,149.9,32.5,120,159.8c-19.7,69.1-99.8,83.6-194.1,58.1c15.2-16.6,26.6-37,33.5-61.7
		c36.8,8.4,82.3,14.1,85.3-14.8c3.2-39.1-87.8-41.3-107.5-81.2l-1.5,0.9v52.7c0,64.1-52,116.1-116.1,116.1h-20.7
		c-60.2,0-109.1-48.8-109.1-109.1V65.6h76.4v197.9c0,25.8,20.9,46.7,46.7,46.7h0c25.8,0,46.7-20.9,46.7-46.7V65.6h76.5L282.7,105.8z
		"/>
	<circle id="XMLID_10_" class="st1" cx="497.4" cy="340" r="32.8"/>
</g>
<g id="XMLID_2_">
</g>
<g id="XMLID_3_">
</g>
<g id="XMLID_4_">
</g>
<g id="XMLID_5_">
</g>
<g id="XMLID_6_">
</g>
<g id="XMLID_7_">
</g>
</svg>
